<svg version="1.1" xmlns="http://www.w3.org/2000/svg" xmlns:xlink="http://www.w3.org/1999/xlink" width="1300" height="600" style="width: 1300px; height: 600px;"><defs><clipPath id="eRslMXbAmQcr"><path fill="none" stroke="none" d=" M 54 32 L 1270 32 L 1270 535 L 54 535 L 54 32 Z"/></clipPath><clipPath id="mfLVXlwCVVLq"><path fill="none" stroke="none" d=" M 54 32 L 1270 32 L 1270 535 L 54 535 L 54 32 Z"/></clipPath></defs><g><g transform="scale(1,1) translate(0.5,0.5)"><rect fill="#FFFFFF" stroke="none" x="0" y="0" width="1300" height="600"/><rect fill="#ffffff" stroke="none" x="0" y="0" width="1300" height="600"/><rect fill="#FFFFFF" stroke="none" x="54" y="32" width="1216" height="503"/><rect fill="#ffffff" stroke="none" x="54" y="32" width="1216" height="503"/><g><rect fill="none" stroke="#e5e5e5" x="54" y="32" width="1216" height="503" stroke-linejoin="bevel" stroke-miterlimit="10"/></g><g clip-path="url(#eRslMXbAmQcr)"><g><g><path fill="none" stroke="#e5e5e5" paint-order="fill stroke markers" d=" M 79 535 L 79 32" stroke-linejoin="bevel" stroke-miterlimit="10"/><path fill="none" stroke="#e5e5e5" paint-order="fill stroke markers" d=" M 378 535 L 378 32" stroke-linejoin="bevel" stroke-miterlimit="10"/><path fill="none" stroke="#e5e5e5" paint-order="fill stroke markers" d=" M 677 535 L 677 32" stroke-linejoin="bevel" stroke-miterlimit="10"/><path fill="none" stroke="#e5e5e5" paint-order="fill stroke markers" d=" M 976 535 L 976 32" stroke-linejoin="bevel" stroke-miterlimit="10"/></g><g><path fill="none" stroke="#e5e5e5" paint-order="fill stroke markers" d=" M 54 513 L 1270 513" stroke-linejoin="bevel" stroke-miterlimit="10"/><path fill="none" stroke="#e5e5e5" paint-order="fill stroke markers" d=" M 54 445 L 1270 445" stroke-linejoin="bevel" stroke-miterlimit="10"/><path fill="none" stroke="#e5e5e5" paint-order="fill stroke markers" d=" M 54 378 L 1270 378" stroke-linejoin="bevel" stroke-miterlimit="10"/><path fill="none" stroke="#e5e5e5" paint-order="fill stroke markers" d=" M 54 310 L 1270 310" stroke-linejoin="bevel" stroke-miterlimit="10"/><path fill="none" stroke="#e5e5e5" paint-order="fill stroke markers" d=" M 54 243 L 1270 243" stroke-linejoin="bevel" stroke-miterlimit="10"/><path fill="none" stroke="#e5e5e5" paint-order="fill stroke markers" d=" M 54 175 L 1270 175" stroke-linejoin="bevel" stroke-miterlimit="10"/><path fill="none" stroke="#e5e5e5" paint-order="fill stroke markers" d=" M 54 107 L 1270 107" stroke-linejoin="bevel" stroke-miterlimit="10"/><path fill="none" stroke="#e5e5e5" paint-order="fill stroke markers" d=" M 54 40 L 1270 40" stroke-linejoin="bevel" stroke-miterlimit="10"/></g><g><path fill="none" stroke="none"/><path fill="none" stroke="#e41a1c" paint-order="fill stroke markers" d=" M 109.27272727272731 463.49783190538113 L 139.14987714987717 470.7162159666685 L 169.02702702702706 476.5588892250577 L 198.90417690417695 481.4367630704626 L 228.7813267813268 485.5725217356439 L 258.6584766584767 489.02583235690423 L 288.5356265356266 491.9368915683486 L 318.41277641277645 494.4071504442548 L 348.2899262899263 496.5584962145499 L 378.1670761670762 498.4292677911419 L 408.0442260442261 500.05373307884065 L 437.92137592137595 501.4565784505921 L 467.7985257985258 502.6489855441386 L 497.67567567567573 503.71266189590256 L 527.5528255528255 504.6531252184727 L 557.4299754299755 505.4670074594533 L 587.3071253071253 506.1666965281275 L 617.1842751842752 506.80654137181017 L 647.0614250614251 507.39063819399206 L 676.9385749385749 507.8875517460791 L 706.8157248157248 508.3431207830424 L 736.6928746928747 508.73539133033603 L 766.5700245700245 509.0836783544614 L 796.4471744471745 509.4013206512567 L 826.3243243243244 509.67831311896896 L 856.2014742014742 509.9270548170307 L 886.0786240786241 510.1411822876104 L 915.955773955774 510.3343541413456 L 945.8329238329238 510.52093166671216 L 975.7100737100737 510.67421836103335 L 1005.5872235872235 510.8228235940187 L 1035.4643734643735 510.94881095935375 L 1065.3415233415233 511.0648075221303 L 1095.218673218673 511.1694115154975 L 1125.095823095823 511.2635889028525 L 1154.972972972973 511.34992956696595 L 1184.850122850123 511.42157640406197 L 1214.7272727272727 511.4937177972596" stroke-linejoin="bevel" stroke-miterlimit="10" stroke-width="2" stroke-opacity="0.5"/></g><g><path fill="none" stroke="none"/><path fill="#e41a1c" stroke="#e41a1c" paint-order="fill stroke markers" d=" M 113.27272727272731 463.49783190538113 A 4 4 0 1 1 113.27272527272747 463.4938319060478" fill-opacity="0.75" stroke-linejoin="bevel" stroke-miterlimit="10" stroke-width="2" stroke-opacity="0.75"/><path fill="#e41a1c" stroke="#e41a1c" paint-order="fill stroke markers" d=" M 143.14987714987717 470.7162159666685 A 4 4 0 1 1 143.14987514987735 470.71221596733517" fill-opacity="0.75" stroke-linejoin="bevel" stroke-miterlimit="10" stroke-width="2" stroke-opacity="0.75"/><path fill="#e41a1c" stroke="#e41a1c" paint-order="fill stroke markers" d=" M 173.02702702702706 476.5588892250577 A 4 4 0 1 1 173.02702502702724 476.55488922572437" fill-opacity="0.75" stroke-linejoin="bevel" stroke-miterlimit="10" stroke-width="2" stroke-opacity="0.75"/><path fill="#e41a1c" stroke="#e41a1c" paint-order="fill stroke markers" d=" M 202.90417690417695 481.4367630704626 A 4 4 0 1 1 202.90417490417713 481.4327630711292" fill-opacity="0.75" stroke-linejoin="bevel" stroke-miterlimit="10" stroke-width="2" stroke-opacity="0.75"/><path fill="#e41a1c" stroke="#e41a1c" paint-order="fill stroke markers" d=" M 232.7813267813268 485.5725217356439 A 4 4 0 1 1 232.781324781327 485.5685217363105" fill-opacity="0.75" stroke-linejoin="bevel" stroke-miterlimit="10" stroke-width="2" stroke-opacity="0.75"/><path fill="#e41a1c" stroke="#e41a1c" paint-order="fill stroke markers" d=" M 262.6584766584767 489.02583235690423 A 4 4 0 1 1 262.65847465847685 489.0218323575709" fill-opacity="0.75" stroke-linejoin="bevel" stroke-miterlimit="10" stroke-width="2" stroke-opacity="0.75"/><path fill="#e41a1c" stroke="#e41a1c" paint-order="fill stroke markers" d=" M 292.5356265356266 491.9368915683486 A 4 4 0 1 1 292.53562453562677 491.9328915690152" fill-opacity="0.75" stroke-linejoin="bevel" stroke-miterlimit="10" stroke-width="2" stroke-opacity="0.75"/><path fill="#e41a1c" stroke="#e41a1c" paint-order="fill stroke markers" d=" M 322.41277641277645 494.4071504442548 A 4 4 0 1 1 322.4127744127766 494.40315044492144" fill-opacity="0.75" stroke-linejoin="bevel" stroke-miterlimit="10" stroke-width="2" stroke-opacity="0.75"/><path fill="#e41a1c" stroke="#e41a1c" paint-order="fill stroke markers" d=" M 352.2899262899263 496.5584962145499 A 4 4 0 1 1 352.2899242899265 496.55449621521655" fill-opacity="0.75" stroke-linejoin="bevel" stroke-miterlimit="10" stroke-width="2" stroke-opacity="0.75"/><path fill="#e41a1c" stroke="#e41a1c" paint-order="fill stroke markers" d=" M 382.1670761670762 498.4292677911419 A 4 4 0 1 1 382.16707416707635 498.42526779180855" fill-opacity="0.75" stroke-linejoin="bevel" stroke-miterlimit="10" stroke-width="2" stroke-opacity="0.75"/><path fill="#e41a1c" stroke="#e41a1c" paint-order="fill stroke markers" d=" M 412.0442260442261 500.05373307884065 A 4 4 0 1 1 412.04422404422627 500.0497330795073" fill-opacity="0.75" stroke-linejoin="bevel" stroke-miterlimit="10" stroke-width="2" stroke-opacity="0.75"/><path fill="#e41a1c" stroke="#e41a1c" paint-order="fill stroke markers" d=" M 441.92137592137595 501.4565784505921 A 4 4 0 1 1 441.92137392137613 501.4525784512587" fill-opacity="0.75" stroke-linejoin="bevel" stroke-miterlimit="10" stroke-width="2" stroke-opacity="0.75"/><path fill="#e41a1c" stroke="#e41a1c" paint-order="fill stroke markers" d=" M 471.7985257985258 502.6489855441386 A 4 4 0 1 1 471.798523798526 502.64498554480525" fill-opacity="0.75" stroke-linejoin="bevel" stroke-miterlimit="10" stroke-width="2" stroke-opacity="0.75"/><path fill="#e41a1c" stroke="#e41a1c" paint-order="fill stroke markers" d=" M 501.67567567567573 503.71266189590256 A 4 4 0 1 1 501.6756736756759 503.7086618965692" fill-opacity="0.75" stroke-linejoin="bevel" stroke-miterlimit="10" stroke-width="2" stroke-opacity="0.75"/><path fill="#e41a1c" stroke="#e41a1c" paint-order="fill stroke markers" d=" M 531.5528255528255 504.6531252184727 A 4 4 0 1 1 531.5528235528257 504.64912521913936" fill-opacity="0.75" stroke-linejoin="bevel" stroke-miterlimit="10" stroke-width="2" stroke-opacity="0.75"/><path fill="#e41a1c" stroke="#e41a1c" paint-order="fill stroke markers" d=" M 561.4299754299755 505.4670074594533 A 4 4 0 1 1 561.4299734299756 505.46300746011997" fill-opacity="0.75" stroke-linejoin="bevel" stroke-miterlimit="10" stroke-width="2" stroke-opacity="0.75"/><path fill="#e41a1c" stroke="#e41a1c" paint-order="fill stroke markers" d=" M 591.3071253071253 506.1666965281275 A 4 4 0 1 1 591.3071233071254 506.16269652879413" fill-opacity="0.75" stroke-linejoin="bevel" stroke-miterlimit="10" stroke-width="2" stroke-opacity="0.75"/><path fill="#e41a1c" stroke="#e41a1c" paint-order="fill stroke markers" d=" M 621.1842751842752 506.80654137181017 A 4 4 0 1 1 621.1842731842753 506.8025413724768" fill-opacity="0.75" stroke-linejoin="bevel" stroke-miterlimit="10" stroke-width="2" stroke-opacity="0.75"/><path fill="#e41a1c" stroke="#e41a1c" paint-order="fill stroke markers" d=" M 651.0614250614251 507.39063819399206 A 4 4 0 1 1 651.0614230614252 507.3866381946587" fill-opacity="0.75" stroke-linejoin="bevel" stroke-miterlimit="10" stroke-width="2" stroke-opacity="0.75"/><path fill="#e41a1c" stroke="#e41a1c" paint-order="fill stroke markers" d=" M 680.9385749385749 507.8875517460791 A 4 4 0 1 1 680.938572938575 507.88355174674575" fill-opacity="0.75" stroke-linejoin="bevel" stroke-miterlimit="10" stroke-width="2" stroke-opacity="0.75"/><path fill="#e41a1c" stroke="#e41a1c" paint-order="fill stroke markers" d=" M 710.8157248157248 508.3431207830424 A 4 4 0 1 1 710.8157228157249 508.33912078370906" fill-opacity="0.75" stroke-linejoin="bevel" stroke-miterlimit="10" stroke-width="2" stroke-opacity="0.75"/><path fill="#e41a1c" stroke="#e41a1c" paint-order="fill stroke markers" d=" M 740.6928746928747 508.73539133033603 A 4 4 0 1 1 740.6928726928749 508.73139133100267" fill-opacity="0.75" stroke-linejoin="bevel" stroke-miterlimit="10" stroke-width="2" stroke-opacity="0.75"/><path fill="#e41a1c" stroke="#e41a1c" paint-order="fill stroke markers" d=" M 770.5700245700245 509.0836783544614 A 4 4 0 1 1 770.5700225700247 509.07967835512807" fill-opacity="0.75" stroke-linejoin="bevel" stroke-miterlimit="10" stroke-width="2" stroke-opacity="0.75"/><path fill="#e41a1c" stroke="#e41a1c" paint-order="fill stroke markers" d=" M 800.4471744471745 509.4013206512567 A 4 4 0 1 1 800.4471724471746 509.39732065192334" fill-opacity="0.75" stroke-linejoin="bevel" stroke-miterlimit="10" stroke-width="2" stroke-opacity="0.75"/><path fill="#e41a1c" stroke="#e41a1c" paint-order="fill stroke markers" d=" M 830.3243243243244 509.67831311896896 A 4 4 0 1 1 830.3243223243245 509.6743131196356" fill-opacity="0.75" stroke-linejoin="bevel" stroke-miterlimit="10" stroke-width="2" stroke-opacity="0.75"/><path fill="#e41a1c" stroke="#e41a1c" paint-order="fill stroke markers" d=" M 860.2014742014742 509.9270548170307 A 4 4 0 1 1 860.2014722014743 509.92305481769733" fill-opacity="0.75" stroke-linejoin="bevel" stroke-miterlimit="10" stroke-width="2" stroke-opacity="0.75"/><path fill="#e41a1c" stroke="#e41a1c" paint-order="fill stroke markers" d=" M 890.0786240786241 510.1411822876104 A 4 4 0 1 1 890.0786220786242 510.137182288277" fill-opacity="0.75" stroke-linejoin="bevel" stroke-miterlimit="10" stroke-width="2" stroke-opacity="0.75"/><path fill="#e41a1c" stroke="#e41a1c" paint-order="fill stroke markers" d=" M 919.955773955774 510.3343541413456 A 4 4 0 1 1 919.9557719557741 510.33035414201225" fill-opacity="0.75" stroke-linejoin="bevel" stroke-miterlimit="10" stroke-width="2" stroke-opacity="0.75"/><path fill="#e41a1c" stroke="#e41a1c" paint-order="fill stroke markers" d=" M 949.8329238329238 510.52093166671216 A 4 4 0 1 1 949.832921832924 510.5169316673788" fill-opacity="0.75" stroke-linejoin="bevel" stroke-miterlimit="10" stroke-width="2" stroke-opacity="0.75"/><path fill="#e41a1c" stroke="#e41a1c" paint-order="fill stroke markers" d=" M 979.7100737100737 510.67421836103335 A 4 4 0 1 1 979.7100717100739 510.6702183617" fill-opacity="0.75" stroke-linejoin="bevel" stroke-miterlimit="10" stroke-width="2" stroke-opacity="0.75"/><path fill="#e41a1c" stroke="#e41a1c" paint-order="fill stroke markers" d=" M 1009.5872235872235 510.8228235940187 A 4 4 0 1 1 1009.5872215872237 510.81882359468534" fill-opacity="0.75" stroke-linejoin="bevel" stroke-miterlimit="10" stroke-width="2" stroke-opacity="0.75"/><path fill="#e41a1c" stroke="#e41a1c" paint-order="fill stroke markers" d=" M 1039.4643734643735 510.94881095935375 A 4 4 0 1 1 1039.4643714643737 510.9448109600204" fill-opacity="0.75" stroke-linejoin="bevel" stroke-miterlimit="10" stroke-width="2" stroke-opacity="0.75"/><path fill="#e41a1c" stroke="#e41a1c" paint-order="fill stroke markers" d=" M 1069.3415233415233 511.0648075221303 A 4 4 0 1 1 1069.3415213415235 511.06080752279695" fill-opacity="0.75" stroke-linejoin="bevel" stroke-miterlimit="10" stroke-width="2" stroke-opacity="0.75"/><path fill="#e41a1c" stroke="#e41a1c" paint-order="fill stroke markers" d=" M 1099.218673218673 511.1694115154975 A 4 4 0 1 1 1099.2186712186733 511.1654115161641" fill-opacity="0.75" stroke-linejoin="bevel" stroke-miterlimit="10" stroke-width="2" stroke-opacity="0.75"/><path fill="#e41a1c" stroke="#e41a1c" paint-order="fill stroke markers" d=" M 1129.095823095823 511.2635889028525 A 4 4 0 1 1 1129.0958210958233 511.25958890351916" fill-opacity="0.75" stroke-linejoin="bevel" stroke-miterlimit="10" stroke-width="2" stroke-opacity="0.75"/><path fill="#e41a1c" stroke="#e41a1c" paint-order="fill stroke markers" d=" M 1158.972972972973 511.34992956696595 A 4 4 0 1 1 1158.9729709729731 511.3459295676326" fill-opacity="0.75" stroke-linejoin="bevel" stroke-miterlimit="10" stroke-width="2" stroke-opacity="0.75"/><path fill="#e41a1c" stroke="#e41a1c" paint-order="fill stroke markers" d=" M 1188.850122850123 511.42157640406197 A 4 4 0 1 1 1188.8501208501232 511.4175764047286" fill-opacity="0.75" stroke-linejoin="bevel" stroke-miterlimit="10" stroke-width="2" stroke-opacity="0.75"/><path fill="#e41a1c" stroke="#e41a1c" paint-order="fill stroke markers" d=" M 1218.7272727272727 511.4937177972596 A 4 4 0 1 1 1218.727270727273 511.48971779792623" fill-opacity="0.75" stroke-linejoin="bevel" stroke-miterlimit="10" stroke-width="2" stroke-opacity="0.75"/></g><g><path fill="none" stroke="none"/><path fill="none" stroke="#377eb8" paint-order="fill stroke markers" d=" M 109.27272727272731 463.49783190538113 L 139.14987714987717 507.941034232459 L 169.02702702702706 511.15501665403235 L 198.90417690417695 511.87526044163894 L 228.7813267813268 512.0647418109596 L 258.6584766584767 512.1163751668745 L 288.5356265356266 512.129989774619 L 318.41277641277645 512.1346342098346 L 348.2899262899263 512.1352237659402 L 378.1670761670762 512.1363314307273 L 408.0442260442261 512.1363636363637 L 437.92137592137595 512.1360992590053 L 467.7985257985258 512.1358300984343" stroke-linejoin="bevel" stroke-miterlimit="10" stroke-width="2" stroke-opacity="0.5"/></g><g><path fill="none" stroke="none"/><path fill="#377eb8" stroke="#377eb8" paint-order="fill stroke markers" d=" M 113.27272727272731 463.49783190538113 A 4 4 0 1 1 113.27272527272747 463.4938319060478" fill-opacity="0.75" stroke-linejoin="bevel" stroke-miterlimit="10" stroke-width="2" stroke-opacity="0.75"/><path fill="#377eb8" stroke="#377eb8" paint-order="fill stroke markers" d=" M 143.14987714987717 507.941034232459 A 4 4 0 1 1 143.14987514987735 507.93703423312564" fill-opacity="0.75" stroke-linejoin="bevel" stroke-miterlimit="10" stroke-width="2" stroke-opacity="0.75"/><path fill="#377eb8" stroke="#377eb8" paint-order="fill stroke markers" d=" M 173.02702702702706 511.15501665403235 A 4 4 0 1 1 173.02702502702724 511.151016654699" fill-opacity="0.75" stroke-linejoin="bevel" stroke-miterlimit="10" stroke-width="2" stroke-opacity="0.75"/><path fill="#377eb8" stroke="#377eb8" paint-order="fill stroke markers" d=" M 202.90417690417695 511.87526044163894 A 4 4 0 1 1 202.90417490417713 511.8712604423056" fill-opacity="0.75" stroke-linejoin="bevel" stroke-miterlimit="10" stroke-width="2" stroke-opacity="0.75"/><path fill="#377eb8" stroke="#377eb8" paint-order="fill stroke markers" d=" M 232.7813267813268 512.0647418109596 A 4 4 0 1 1 232.781324781327 512.0607418116263" fill-opacity="0.75" stroke-linejoin="bevel" stroke-miterlimit="10" stroke-width="2" stroke-opacity="0.75"/><path fill="#377eb8" stroke="#377eb8" paint-order="fill stroke markers" d=" M 262.6584766584767 512.1163751668745 A 4 4 0 1 1 262.65847465847685 512.1123751675411" fill-opacity="0.75" stroke-linejoin="bevel" stroke-miterlimit="10" stroke-width="2" stroke-opacity="0.75"/><path fill="#377eb8" stroke="#377eb8" paint-order="fill stroke markers" d=" M 292.5356265356266 512.129989774619 A 4 4 0 1 1 292.53562453562677 512.1259897752857" fill-opacity="0.75" stroke-linejoin="bevel" stroke-miterlimit="10" stroke-width="2" stroke-opacity="0.75"/><path fill="#377eb8" stroke="#377eb8" paint-order="fill stroke markers" d=" M 322.41277641277645 512.1346342098346 A 4 4 0 1 1 322.4127744127766 512.1306342105013" fill-opacity="0.75" stroke-linejoin="bevel" stroke-miterlimit="10" stroke-width="2" stroke-opacity="0.75"/><path fill="#377eb8" stroke="#377eb8" paint-order="fill stroke markers" d=" M 352.2899262899263 512.1352237659402 A 4 4 0 1 1 352.2899242899265 512.1312237666068" fill-opacity="0.75" stroke-linejoin="bevel" stroke-miterlimit="10" stroke-width="2" stroke-opacity="0.75"/><path fill="#377eb8" stroke="#377eb8" paint-order="fill stroke markers" d=" M 382.1670761670762 512.1363314307273 A 4 4 0 1 1 382.16707416707635 512.1323314313939" fill-opacity="0.75" stroke-linejoin="bevel" stroke-miterlimit="10" stroke-width="2" stroke-opacity="0.75"/><path fill="#377eb8" stroke="#377eb8" paint-order="fill stroke markers" d=" M 412.0442260442261 512.1363636363637 A 4 4 0 1 1 412.04422404422627 512.1323636370304" fill-opacity="0.75" stroke-linejoin="bevel" stroke-miterlimit="10" stroke-width="2" stroke-opacity="0.75"/><path fill="#377eb8" stroke="#377eb8" paint-order="fill stroke markers" d=" M 441.92137592137595 512.1360992590053 A 4 4 0 1 1 441.92137392137613 512.1320992596719" fill-opacity="0.75" stroke-linejoin="bevel" stroke-miterlimit="10" stroke-width="2" stroke-opacity="0.75"/><path fill="#377eb8" stroke="#377eb8" paint-order="fill stroke markers" d=" M 471.7985257985258 512.1358300984343 A 4 4 0 1 1 471.798523798526 512.131830099101" fill-opacity="0.75" stroke-linejoin="bevel" stroke-miterlimit="10" stroke-width="2" stroke-opacity="0.75"/></g><g><path fill="none" stroke="none"/><path fill="none" stroke="#4daf4a" paint-order="fill stroke markers" d=" M 109.27272727272731 463.49783190538113 L 139.14987714987717 54.863636363636374 L 169.02702702702706 496.1495604074026 L 198.90417690417695 475.4115540865217 L 228.7813267813268 482.92073377666424 L 258.6584766584767 474.1539069397948 L 288.5356265356266 505.91634376519715 L 318.41277641277645 508.2125392931151 L 348.2899262899263 511.0724673884885 L 378.1670761670762 511.6214824656947 L 408.0442260442261 511.9627041212147 L 437.92137592137595 512.0650359480884 L 467.7985257985258 512.1113223221635 L 497.67567567567573 512.1279258405549 L 527.5528255528255 512.132903285309 L 557.4299754299755 512.13507225679 L 587.3071253071253 512.1353309086749 L 617.1842751842752 512.1361702855194 L 647.0614250614251 512.1363070513135 L 676.9385749385749 512.1352345255501" stroke-linejoin="bevel" stroke-miterlimit="10" stroke-width="2" stroke-opacity="0.5"/></g><g><path fill="none" stroke="none"/><path fill="#4daf4a" stroke="#4daf4a" paint-order="fill stroke markers" d=" M 113.27272727272731 463.49783190538113 A 4 4 0 1 1 113.27272527272747 463.4938319060478" fill-opacity="0.75" stroke-linejoin="bevel" stroke-miterlimit="10" stroke-width="2" stroke-opacity="0.75"/><path fill="#4daf4a" stroke="#4daf4a" paint-order="fill stroke markers" d=" M 143.14987714987717 54.863636363636374 A 4 4 0 1 1 143.14987514987735 54.859636364303036" fill-opacity="0.75" stroke-linejoin="bevel" stroke-miterlimit="10" stroke-width="2" stroke-opacity="0.75"/><path fill="#4daf4a" stroke="#4daf4a" paint-order="fill stroke markers" d=" M 173.02702702702706 496.1495604074026 A 4 4 0 1 1 173.02702502702724 496.14556040806923" fill-opacity="0.75" stroke-linejoin="bevel" stroke-miterlimit="10" stroke-width="2" stroke-opacity="0.75"/><path fill="#4daf4a" stroke="#4daf4a" paint-order="fill stroke markers" d=" M 202.90417690417695 475.4115540865217 A 4 4 0 1 1 202.90417490417713 475.4075540871883" fill-opacity="0.75" stroke-linejoin="bevel" stroke-miterlimit="10" stroke-width="2" stroke-opacity="0.75"/><path fill="#4daf4a" stroke="#4daf4a" paint-order="fill stroke markers" d=" M 232.7813267813268 482.92073377666424 A 4 4 0 1 1 232.781324781327 482.9167337773309" fill-opacity="0.75" stroke-linejoin="bevel" stroke-miterlimit="10" stroke-width="2" stroke-opacity="0.75"/><path fill="#4daf4a" stroke="#4daf4a" paint-order="fill stroke markers" d=" M 262.6584766584767 474.1539069397948 A 4 4 0 1 1 262.65847465847685 474.14990694046145" fill-opacity="0.75" stroke-linejoin="bevel" stroke-miterlimit="10" stroke-width="2" stroke-opacity="0.75"/><path fill="#4daf4a" stroke="#4daf4a" paint-order="fill stroke markers" d=" M 292.5356265356266 505.91634376519715 A 4 4 0 1 1 292.53562453562677 505.9123437658638" fill-opacity="0.75" stroke-linejoin="bevel" stroke-miterlimit="10" stroke-width="2" stroke-opacity="0.75"/><path fill="#4daf4a" stroke="#4daf4a" paint-order="fill stroke markers" d=" M 322.41277641277645 508.2125392931151 A 4 4 0 1 1 322.4127744127766 508.20853929378177" fill-opacity="0.75" stroke-linejoin="bevel" stroke-miterlimit="10" stroke-width="2" stroke-opacity="0.75"/><path fill="#4daf4a" stroke="#4daf4a" paint-order="fill stroke markers" d=" M 352.2899262899263 511.0724673884885 A 4 4 0 1 1 352.2899242899265 511.06846738915516" fill-opacity="0.75" stroke-linejoin="bevel" stroke-miterlimit="10" stroke-width="2" stroke-opacity="0.75"/><path fill="#4daf4a" stroke="#4daf4a" paint-order="fill stroke markers" d=" M 382.1670761670762 511.6214824656947 A 4 4 0 1 1 382.16707416707635 511.61748246636137" fill-opacity="0.75" stroke-linejoin="bevel" stroke-miterlimit="10" stroke-width="2" stroke-opacity="0.75"/><path fill="#4daf4a" stroke="#4daf4a" paint-order="fill stroke markers" d=" M 412.0442260442261 511.9627041212147 A 4 4 0 1 1 412.04422404422627 511.95870412188134" fill-opacity="0.75" stroke-linejoin="bevel" stroke-miterlimit="10" stroke-width="2" stroke-opacity="0.75"/><path fill="#4daf4a" stroke="#4daf4a" paint-order="fill stroke markers" d=" M 441.92137592137595 512.0650359480884 A 4 4 0 1 1 441.92137392137613 512.061035948755" fill-opacity="0.75" stroke-linejoin="bevel" stroke-miterlimit="10" stroke-width="2" stroke-opacity="0.75"/><path fill="#4daf4a" stroke="#4daf4a" paint-order="fill stroke markers" d=" M 471.7985257985258 512.1113223221635 A 4 4 0 1 1 471.798523798526 512.1073223228301" fill-opacity="0.75" stroke-linejoin="bevel" stroke-miterlimit="10" stroke-width="2" stroke-opacity="0.75"/><path fill="#4daf4a" stroke="#4daf4a" paint-order="fill stroke markers" d=" M 501.67567567567573 512.1279258405549 A 4 4 0 1 1 501.6756736756759 512.1239258412215" fill-opacity="0.75" stroke-linejoin="bevel" stroke-miterlimit="10" stroke-width="2" stroke-opacity="0.75"/><path fill="#4daf4a" stroke="#4daf4a" paint-order="fill stroke markers" d=" M 531.5528255528255 512.132903285309 A 4 4 0 1 1 531.5528235528257 512.1289032859756" fill-opacity="0.75" stroke-linejoin="bevel" stroke-miterlimit="10" stroke-width="2" stroke-opacity="0.75"/><path fill="#4daf4a" stroke="#4daf4a" paint-order="fill stroke markers" d=" M 561.4299754299755 512.13507225679 A 4 4 0 1 1 561.4299734299756 512.1310722574566" fill-opacity="0.75" stroke-linejoin="bevel" stroke-miterlimit="10" stroke-width="2" stroke-opacity="0.75"/><path fill="#4daf4a" stroke="#4daf4a" paint-order="fill stroke markers" d=" M 591.3071253071253 512.1353309086749 A 4 4 0 1 1 591.3071233071254 512.1313309093415" fill-opacity="0.75" stroke-linejoin="bevel" stroke-miterlimit="10" stroke-width="2" stroke-opacity="0.75"/><path fill="#4daf4a" stroke="#4daf4a" paint-order="fill stroke markers" d=" M 621.1842751842752 512.1361702855194 A 4 4 0 1 1 621.1842731842753 512.132170286186" fill-opacity="0.75" stroke-linejoin="bevel" stroke-miterlimit="10" stroke-width="2" stroke-opacity="0.75"/><path fill="#4daf4a" stroke="#4daf4a" paint-order="fill stroke markers" d=" M 651.0614250614251 512.1363070513135 A 4 4 0 1 1 651.0614230614252 512.1323070519801" fill-opacity="0.75" stroke-linejoin="bevel" stroke-miterlimit="10" stroke-width="2" stroke-opacity="0.75"/><path fill="#4daf4a" stroke="#4daf4a" paint-order="fill stroke markers" d=" M 680.9385749385749 512.1352345255501 A 4 4 0 1 1 680.938572938575 512.1312345262168" fill-opacity="0.75" stroke-linejoin="bevel" stroke-miterlimit="10" stroke-width="2" stroke-opacity="0.75"/></g></g></g><g clip-path="url(#mfLVXlwCVVLq)"><g><g/><g><path fill="#ffffff" stroke="#e5e5e5" paint-order="fill stroke markers" d=" M 994 42 L 1260 42 L 1260 128 L 994 128 L 994 42 Z" fill-opacity="0.95" stroke-linejoin="bevel" stroke-miterlimit="10" stroke-opacity="0.5"/><text fill="#444444" stroke="none" font-family="helvetica" font-size="12pt" font-style="normal" font-weight="normal" text-decoration="normal" x="1029" y="62" text-anchor="start" dominant-baseline="central">Error Loss using fixed α = 0.001</text><g><path fill="none" stroke="#e41a1c" paint-order="fill stroke markers" d=" M 1004 62 L 1024 62" stroke-linejoin="bevel" stroke-miterlimit="10" stroke-width="2" stroke-opacity="0.5"/></g><path fill="#e41a1c" stroke="#e41a1c" paint-order="fill stroke markers" d=" M 1018 62 A 4 4 0 1 1 1017.9999980000001 61.99600000066666" fill-opacity="0.75" stroke-linejoin="bevel" stroke-miterlimit="10" stroke-width="2" stroke-opacity="0.75"/><text fill="#444444" stroke="none" font-family="helvetica" font-size="12pt" font-style="normal" font-weight="normal" text-decoration="normal" x="1029" y="85" text-anchor="start" dominant-baseline="central">Error Loss using fixed α = 0.01</text><g><path fill="none" stroke="#377eb8" paint-order="fill stroke markers" d=" M 1004 85 L 1024 85" stroke-linejoin="bevel" stroke-miterlimit="10" stroke-width="2" stroke-opacity="0.5"/></g><path fill="#377eb8" stroke="#377eb8" paint-order="fill stroke markers" d=" M 1018 85 A 4 4 0 1 1 1017.9999980000001 84.99600000066667" fill-opacity="0.75" stroke-linejoin="bevel" stroke-miterlimit="10" stroke-width="2" stroke-opacity="0.75"/><text fill="#444444" stroke="none" font-family="helvetica" font-size="12pt" font-style="normal" font-weight="normal" text-decoration="normal" x="1029" y="108" text-anchor="start" dominant-baseline="central">Error Loss using fixed α = 0.1</text><g><path fill="none" stroke="#4daf4a" paint-order="fill stroke markers" d=" M 1004 108 L 1024 108" stroke-linejoin="bevel" stroke-miterlimit="10" stroke-width="2" stroke-opacity="0.5"/></g><path fill="#4daf4a" stroke="#4daf4a" paint-order="fill stroke markers" d=" M 1018 108 A 4 4 0 1 1 1017.9999980000001 107.99600000066667" fill-opacity="0.75" stroke-linejoin="bevel" stroke-miterlimit="10" stroke-width="2" stroke-opacity="0.75"/></g></g></g><g><g fill="#444444"><path fill="none" stroke="black" paint-order="fill stroke markers" d=" M 54 535 L 1270 535" stroke-linejoin="bevel" stroke-miterlimit="10"/><path fill="none" stroke="black" paint-order="fill stroke markers" d=" M 79 541 L 79 533" stroke-linejoin="bevel" stroke-miterlimit="10"/><path fill="none" stroke="black" paint-order="fill stroke markers" d=" M 378 541 L 378 533" stroke-linejoin="bevel" stroke-miterlimit="10"/><path fill="none" stroke="black" paint-order="fill stroke markers" d=" M 677 541 L 677 533" stroke-linejoin="bevel" stroke-miterlimit="10"/><path fill="none" stroke="black" paint-order="fill stroke markers" d=" M 976 541 L 976 533" stroke-linejoin="bevel" stroke-miterlimit="10"/><path fill="none" stroke="black" paint-order="fill stroke markers" d=" M 79 539 L 79 535" stroke-linejoin="bevel" stroke-miterlimit="10"/><path fill="none" stroke="black" paint-order="fill stroke markers" d=" M 139 539 L 139 535" stroke-linejoin="bevel" stroke-miterlimit="10"/><path fill="none" stroke="black" paint-order="fill stroke markers" d=" M 199 539 L 199 535" stroke-linejoin="bevel" stroke-miterlimit="10"/><path fill="none" stroke="black" paint-order="fill stroke markers" d=" M 259 539 L 259 535" stroke-linejoin="bevel" stroke-miterlimit="10"/><path fill="none" stroke="black" paint-order="fill stroke markers" d=" M 318 539 L 318 535" stroke-linejoin="bevel" stroke-miterlimit="10"/><path fill="none" stroke="black" paint-order="fill stroke markers" d=" M 378 539 L 378 535" stroke-linejoin="bevel" stroke-miterlimit="10"/><path fill="none" stroke="black" paint-order="fill stroke markers" d=" M 438 539 L 438 535" stroke-linejoin="bevel" stroke-miterlimit="10"/><path fill="none" stroke="black" paint-order="fill stroke markers" d=" M 498 539 L 498 535" stroke-linejoin="bevel" stroke-miterlimit="10"/><path fill="none" stroke="black" paint-order="fill stroke markers" d=" M 557 539 L 557 535" stroke-linejoin="bevel" stroke-miterlimit="10"/><path fill="none" stroke="black" paint-order="fill stroke markers" d=" M 617 539 L 617 535" stroke-linejoin="bevel" stroke-miterlimit="10"/><path fill="none" stroke="black" paint-order="fill stroke markers" d=" M 677 539 L 677 535" stroke-linejoin="bevel" stroke-miterlimit="10"/><path fill="none" stroke="black" paint-order="fill stroke markers" d=" M 737 539 L 737 535" stroke-linejoin="bevel" stroke-miterlimit="10"/><path fill="none" stroke="black" paint-order="fill stroke markers" d=" M 796 539 L 796 535" stroke-linejoin="bevel" stroke-miterlimit="10"/><path fill="none" stroke="black" paint-order="fill stroke markers" d=" M 856 539 L 856 535" stroke-linejoin="bevel" stroke-miterlimit="10"/><path fill="none" stroke="black" paint-order="fill stroke markers" d=" M 916 539 L 916 535" stroke-linejoin="bevel" stroke-miterlimit="10"/><path fill="none" stroke="black" paint-order="fill stroke markers" d=" M 976 539 L 976 535" stroke-linejoin="bevel" stroke-miterlimit="10"/><path fill="none" stroke="black" paint-order="fill stroke markers" d=" M 1035 539 L 1035 535" stroke-linejoin="bevel" stroke-miterlimit="10"/><path fill="none" stroke="black" paint-order="fill stroke markers" d=" M 1095 539 L 1095 535" stroke-linejoin="bevel" stroke-miterlimit="10"/><path fill="none" stroke="black" paint-order="fill stroke markers" d=" M 1155 539 L 1155 535" stroke-linejoin="bevel" stroke-miterlimit="10"/><path fill="" stroke="black" paint-order="fill stroke markers" d=" M 1215 539 L 1215 535" stroke-linejoin="bevel" stroke-miterlimit="10"/><g transform="translate(79,556) rotate(0,0,0)"><text fill="" stroke="none" font-family="helvetica" font-size="11pt" font-style="normal" font-weight="normal" text-decoration="normal" x="0" y="0" text-anchor="middle" dominant-baseline="hanging">0</text><g transform="rotate(0,0,0) translate(-79,-556) translate(378,556) rotate(0,0,0)"><text fill="" stroke="none" font-family="helvetica" font-size="11pt" font-style="normal" font-weight="normal" text-decoration="normal" x="0" y="0" text-anchor="middle" dominant-baseline="hanging">10</text><g transform="rotate(0,0,0) translate(-378,-556) translate(677,556) rotate(0,0,0)"><text fill="" stroke="none" font-family="helvetica" font-size="11pt" font-style="normal" font-weight="normal" text-decoration="normal" x="0" y="0" text-anchor="middle" dominant-baseline="hanging">20</text><g transform="rotate(0,0,0) translate(-677,-556) translate(976,556) rotate(0,0,0)"><text fill="" stroke="none" font-family="helvetica" font-size="11pt" font-style="normal" font-weight="normal" text-decoration="normal" x="0" y="0" text-anchor="middle" dominant-baseline="hanging">30</text><g transform="rotate(0,0,0) translate(-976,-556) translate(662,580) rotate(0,0,0)"><text fill="" stroke="none" font-family="helvetica" font-size="12pt" font-style="italic" font-weight="normal" text-decoration="normal" x="0" y="0" text-anchor="middle" dominant-baseline="hanging">Epochs</text><g transform="rotate(0,0,0) translate(-662,-580)"/></g></g></g></g></g></g><g fill="#444444"><path fill="none" stroke="black" paint-order="fill stroke markers" d=" M 54 535 L 54 32" stroke-linejoin="bevel" stroke-miterlimit="10"/><path fill="none" stroke="black" paint-order="fill stroke markers" d=" M 48 513 L 56 513" stroke-linejoin="bevel" stroke-miterlimit="10"/><path fill="none" stroke="black" paint-order="fill stroke markers" d=" M 48 445 L 56 445" stroke-linejoin="bevel" stroke-miterlimit="10"/><path fill="none" stroke="black" paint-order="fill stroke markers" d=" M 48 378 L 56 378" stroke-linejoin="bevel" stroke-miterlimit="10"/><path fill="none" stroke="black" paint-order="fill stroke markers" d=" M 48 310 L 56 310" stroke-linejoin="bevel" stroke-miterlimit="10"/><path fill="none" stroke="black" paint-order="fill stroke markers" d=" M 48 243 L 56 243" stroke-linejoin="bevel" stroke-miterlimit="10"/><path fill="none" stroke="black" paint-order="fill stroke markers" d=" M 48 175 L 56 175" stroke-linejoin="bevel" stroke-miterlimit="10"/><path fill="none" stroke="black" paint-order="fill stroke markers" d=" M 48 107 L 56 107" stroke-linejoin="bevel" stroke-miterlimit="10"/><path fill="none" stroke="black" paint-order="fill stroke markers" d=" M 48 40 L 56 40" stroke-linejoin="bevel" stroke-miterlimit="10"/><path fill="none" stroke="black" paint-order="fill stroke markers" d=" M 50 526 L 54 526" stroke-linejoin="bevel" stroke-miterlimit="10"/><path fill="none" stroke="black" paint-order="fill stroke markers" d=" M 50 513 L 54 513" stroke-linejoin="bevel" stroke-miterlimit="10"/><path fill="none" stroke="black" paint-order="fill stroke markers" d=" M 50 499 L 54 499" stroke-linejoin="bevel" stroke-miterlimit="10"/><path fill="none" stroke="black" paint-order="fill stroke markers" d=" M 50 486 L 54 486" stroke-linejoin="bevel" stroke-miterlimit="10"/><path fill="none" stroke="black" paint-order="fill stroke markers" d=" M 50 472 L 54 472" stroke-linejoin="bevel" stroke-miterlimit="10"/><path fill="none" stroke="black" paint-order="fill stroke markers" d=" M 50 459 L 54 459" stroke-linejoin="bevel" stroke-miterlimit="10"/><path fill="none" stroke="black" paint-order="fill stroke markers" d=" M 50 445 L 54 445" stroke-linejoin="bevel" stroke-miterlimit="10"/><path fill="none" stroke="black" paint-order="fill stroke markers" d=" M 50 432 L 54 432" stroke-linejoin="bevel" stroke-miterlimit="10"/><path fill="none" stroke="black" paint-order="fill stroke markers" d=" M 50 418 L 54 418" stroke-linejoin="bevel" stroke-miterlimit="10"/><path fill="none" stroke="black" paint-order="fill stroke markers" d=" M 50 405 L 54 405" stroke-linejoin="bevel" stroke-miterlimit="10"/><path fill="none" stroke="black" paint-order="fill stroke markers" d=" M 50 391 L 54 391" stroke-linejoin="bevel" stroke-miterlimit="10"/><path fill="none" stroke="black" paint-order="fill stroke markers" d=" M 50 378 L 54 378" stroke-linejoin="bevel" stroke-miterlimit="10"/><path fill="none" stroke="black" paint-order="fill stroke markers" d=" M 50 364 L 54 364" stroke-linejoin="bevel" stroke-miterlimit="10"/><path fill="none" stroke="black" paint-order="fill stroke markers" d=" M 50 351 L 54 351" stroke-linejoin="bevel" stroke-miterlimit="10"/><path fill="none" stroke="black" paint-order="fill stroke markers" d=" M 50 337 L 54 337" stroke-linejoin="bevel" stroke-miterlimit="10"/><path fill="none" stroke="black" paint-order="fill stroke markers" d=" M 50 324 L 54 324" stroke-linejoin="bevel" stroke-miterlimit="10"/><path fill="none" stroke="black" paint-order="fill stroke markers" d=" M 50 310 L 54 310" stroke-linejoin="bevel" stroke-miterlimit="10"/><path fill="none" stroke="black" paint-order="fill stroke markers" d=" M 50 297 L 54 297" stroke-linejoin="bevel" stroke-miterlimit="10"/><path fill="none" stroke="black" paint-order="fill stroke markers" d=" M 50 283 L 54 283" stroke-linejoin="bevel" stroke-miterlimit="10"/><path fill="none" stroke="black" paint-order="fill stroke markers" d=" M 50 270 L 54 270" stroke-linejoin="bevel" stroke-miterlimit="10"/><path fill="none" stroke="black" paint-order="fill stroke markers" d=" M 50 256 L 54 256" stroke-linejoin="bevel" stroke-miterlimit="10"/><path fill="none" stroke="black" paint-order="fill stroke markers" d=" M 50 243 L 54 243" stroke-linejoin="bevel" stroke-miterlimit="10"/><path fill="none" stroke="black" paint-order="fill stroke markers" d=" M 50 229 L 54 229" stroke-linejoin="bevel" stroke-miterlimit="10"/><path fill="none" stroke="black" paint-order="fill stroke markers" d=" M 50 216 L 54 216" stroke-linejoin="bevel" stroke-miterlimit="10"/><path fill="none" stroke="black" paint-order="fill stroke markers" d=" M 50 202 L 54 202" stroke-linejoin="bevel" stroke-miterlimit="10"/><path fill="none" stroke="black" paint-order="fill stroke markers" d=" M 50 188 L 54 188" stroke-linejoin="bevel" stroke-miterlimit="10"/><path fill="none" stroke="black" paint-order="fill stroke markers" d=" M 50 175 L 54 175" stroke-linejoin="bevel" stroke-miterlimit="10"/><path fill="none" stroke="black" paint-order="fill stroke markers" d=" M 50 161 L 54 161" stroke-linejoin="bevel" stroke-miterlimit="10"/><path fill="none" stroke="black" paint-order="fill stroke markers" d=" M 50 148 L 54 148" stroke-linejoin="bevel" stroke-miterlimit="10"/><path fill="none" stroke="black" paint-order="fill stroke markers" d=" M 50 134 L 54 134" stroke-linejoin="bevel" stroke-miterlimit="10"/><path fill="none" stroke="black" paint-order="fill stroke markers" d=" M 50 121 L 54 121" stroke-linejoin="bevel" stroke-miterlimit="10"/><path fill="none" stroke="black" paint-order="fill stroke markers" d=" M 50 107 L 54 107" stroke-linejoin="bevel" stroke-miterlimit="10"/><path fill="none" stroke="black" paint-order="fill stroke markers" d=" M 50 94 L 54 94" stroke-linejoin="bevel" stroke-miterlimit="10"/><path fill="none" stroke="black" paint-order="fill stroke markers" d=" M 50 80 L 54 80" stroke-linejoin="bevel" stroke-miterlimit="10"/><path fill="none" stroke="black" paint-order="fill stroke markers" d=" M 50 67 L 54 67" stroke-linejoin="bevel" stroke-miterlimit="10"/><path fill="none" stroke="black" paint-order="fill stroke markers" d=" M 50 53 L 54 53" stroke-linejoin="bevel" stroke-miterlimit="10"/><path fill="" stroke="black" paint-order="fill stroke markers" d=" M 50 40 L 54 40" stroke-linejoin="bevel" stroke-miterlimit="10"/><g transform="translate(43,513) rotate(0,0,0)"><text fill="" stroke="none" font-family="helvetica" font-size="11pt" font-style="normal" font-weight="normal" text-decoration="normal" x="0" y="0" text-anchor="end" dominant-baseline="central">0</text><g transform="rotate(0,0,0) translate(-43,-513) translate(43,445) rotate(0,0,0)"><text fill="" stroke="none" font-family="helvetica" font-size="11pt" font-style="normal" font-weight="normal" text-decoration="normal" x="0" y="0" text-anchor="end" dominant-baseline="central">2</text><g transform="rotate(0,0,0) translate(-43,-445) translate(43,378) rotate(0,0,0)"><text fill="" stroke="none" font-family="helvetica" font-size="11pt" font-style="normal" font-weight="normal" text-decoration="normal" x="0" y="0" text-anchor="end" dominant-baseline="central">4</text><g transform="rotate(0,0,0) translate(-43,-378) translate(43,310) rotate(0,0,0)"><text fill="" stroke="none" font-family="helvetica" font-size="11pt" font-style="normal" font-weight="normal" text-decoration="normal" x="0" y="0" text-anchor="end" dominant-baseline="central">6</text><g transform="rotate(0,0,0) translate(-43,-310) translate(43,243) rotate(0,0,0)"><text fill="" stroke="none" font-family="helvetica" font-size="11pt" font-style="normal" font-weight="normal" text-decoration="normal" x="0" y="0" text-anchor="end" dominant-baseline="central">8</text><g transform="rotate(0,0,0) translate(-43,-243) translate(43,175) rotate(0,0,0)"><text fill="" stroke="none" font-family="helvetica" font-size="11pt" font-style="normal" font-weight="normal" text-decoration="normal" x="0" y="0" text-anchor="end" dominant-baseline="central">10</text><g transform="rotate(0,0,0) translate(-43,-175) translate(43,107) rotate(0,0,0)"><text fill="" stroke="none" font-family="helvetica" font-size="11pt" font-style="normal" font-weight="normal" text-decoration="normal" x="0" y="0" text-anchor="end" dominant-baseline="central">12</text><g transform="rotate(0,0,0) translate(-43,-107) translate(43,40) rotate(0,0,0)"><text fill="" stroke="none" font-family="helvetica" font-size="11pt" font-style="normal" font-weight="normal" text-decoration="normal" x="0" y="0" text-anchor="end" dominant-baseline="central">14</text><g transform="rotate(0,0,0) translate(-43,-40) translate(20,284) rotate(-90,0,0)"><text fill="" stroke="none" font-family="helvetica" font-size="12pt" font-style="italic" font-weight="normal" text-decoration="normal" x="0" y="0" text-anchor="middle" dominant-baseline="alphabetic">Error Loss</text><g transform="rotate(90,0,0) translate(-20,-284)"/></g></g></g></g></g></g></g></g></g></g><g fill="#444444"><path fill="" stroke="none" d=""/><g transform="translate(54,27)"><path fill="none" stroke="none"/><text fill="" stroke="none" font-family="helvetica" font-size="12pt" font-style="normal" font-weight="bold" text-decoration="normal" x="0" y="0" text-anchor="start" dominant-baseline="text-after-edge">Full Error (Loss) Function for TZ6 Train data point</text></g></g></g></g></g></svg>