<svg version="1.1" xmlns="http://www.w3.org/2000/svg" xmlns:xlink="http://www.w3.org/1999/xlink" width="1300" height="600" style="width: 1300px; height: 600px;"><defs><clipPath id="nXFKPtQNdqOp"><path fill="none" stroke="none" d=" M 58 32 L 1270 32 L 1270 535 L 58 535 L 58 32 Z"/></clipPath><clipPath id="PCAEZpanSyrU"><path fill="none" stroke="none" d=" M 58 32 L 1270 32 L 1270 535 L 58 535 L 58 32 Z"/></clipPath></defs><g><g transform="scale(1,1) translate(0.5,0.5)"><rect fill="#FFFFFF" stroke="none" x="0" y="0" width="1300" height="600"/><rect fill="#ffffff" stroke="none" x="0" y="0" width="1300" height="600"/><rect fill="#FFFFFF" stroke="none" x="58" y="32" width="1212" height="503"/><rect fill="#ffffff" stroke="none" x="58" y="32" width="1212" height="503"/><g><rect fill="none" stroke="#e5e5e5" x="58" y="32" width="1212" height="503" stroke-linejoin="bevel" stroke-miterlimit="10"/></g><g clip-path="url(#nXFKPtQNdqOp)"><g><g><path fill="none" stroke="#e5e5e5" paint-order="fill stroke markers" d=" M 251 535 L 251 32" stroke-linejoin="bevel" stroke-miterlimit="10"/><path fill="none" stroke="#e5e5e5" paint-order="fill stroke markers" d=" M 526 535 L 526 32" stroke-linejoin="bevel" stroke-miterlimit="10"/><path fill="none" stroke="#e5e5e5" paint-order="fill stroke markers" d=" M 802 535 L 802 32" stroke-linejoin="bevel" stroke-miterlimit="10"/><path fill="none" stroke="#e5e5e5" paint-order="fill stroke markers" d=" M 1077 535 L 1077 32" stroke-linejoin="bevel" stroke-miterlimit="10"/></g><g><path fill="none" stroke="#e5e5e5" paint-order="fill stroke markers" d=" M 58 512 L 1270 512" stroke-linejoin="bevel" stroke-miterlimit="10"/><path fill="none" stroke="#e5e5e5" paint-order="fill stroke markers" d=" M 58 422 L 1270 422" stroke-linejoin="bevel" stroke-miterlimit="10"/><path fill="none" stroke="#e5e5e5" paint-order="fill stroke markers" d=" M 58 332 L 1270 332" stroke-linejoin="bevel" stroke-miterlimit="10"/><path fill="none" stroke="#e5e5e5" paint-order="fill stroke markers" d=" M 58 241 L 1270 241" stroke-linejoin="bevel" stroke-miterlimit="10"/><path fill="none" stroke="#e5e5e5" paint-order="fill stroke markers" d=" M 58 151 L 1270 151" stroke-linejoin="bevel" stroke-miterlimit="10"/><path fill="none" stroke="#e5e5e5" paint-order="fill stroke markers" d=" M 58 61 L 1270 61" stroke-linejoin="bevel" stroke-miterlimit="10"/></g><g><path fill="none" stroke="none"/><path fill="none" stroke="#0072B2" paint-order="fill stroke markers" d=" M 113.09090909090914 54.863636363636374 L 250.81818181818187 386.7502443289192 L 388.54545454545456 466.88414495667405 L 526.2727272727273 494.26168909980163 L 664 504.6802737400468 L 801.7272727272726 509.0444248189425 L 939.4545454545454 510.9125681503968 L 1077.1818181818182 511.7756329453394 L 1214.909090909091 512.1363636363636" stroke-linejoin="bevel" stroke-miterlimit="10" stroke-width="2" stroke-opacity="0.5"/></g><g><path fill="none" stroke="none"/><path fill="#0072B2" stroke="#0072B2" paint-order="fill stroke markers" d=" M 117.09090909090914 54.863636363636374 A 4 4 0 1 1 117.0909070909093 54.859636364303036" fill-opacity="0.75" stroke-linejoin="bevel" stroke-miterlimit="10" stroke-width="2" stroke-opacity="0.75"/><path fill="#0072B2" stroke="#0072B2" paint-order="fill stroke markers" d=" M 254.81818181818187 386.7502443289192 A 4 4 0 1 1 254.81817981818205 386.74624432958586" fill-opacity="0.75" stroke-linejoin="bevel" stroke-miterlimit="10" stroke-width="2" stroke-opacity="0.75"/><path fill="#0072B2" stroke="#0072B2" paint-order="fill stroke markers" d=" M 392.54545454545456 466.88414495667405 A 4 4 0 1 1 392.54545254545474 466.8801449573407" fill-opacity="0.75" stroke-linejoin="bevel" stroke-miterlimit="10" stroke-width="2" stroke-opacity="0.75"/><path fill="#0072B2" stroke="#0072B2" paint-order="fill stroke markers" d=" M 530.2727272727273 494.26168909980163 A 4 4 0 1 1 530.2727252727274 494.25768910046827" fill-opacity="0.75" stroke-linejoin="bevel" stroke-miterlimit="10" stroke-width="2" stroke-opacity="0.75"/><path fill="#0072B2" stroke="#0072B2" paint-order="fill stroke markers" d=" M 668 504.6802737400468 A 4 4 0 1 1 667.9999980000001 504.67627374071344" fill-opacity="0.75" stroke-linejoin="bevel" stroke-miterlimit="10" stroke-width="2" stroke-opacity="0.75"/><path fill="#0072B2" stroke="#0072B2" paint-order="fill stroke markers" d=" M 805.7272727272726 509.0444248189425 A 4 4 0 1 1 805.7272707272728 509.04042481960914" fill-opacity="0.75" stroke-linejoin="bevel" stroke-miterlimit="10" stroke-width="2" stroke-opacity="0.75"/><path fill="#0072B2" stroke="#0072B2" paint-order="fill stroke markers" d=" M 943.4545454545454 510.9125681503968 A 4 4 0 1 1 943.4545434545455 510.90856815106343" fill-opacity="0.75" stroke-linejoin="bevel" stroke-miterlimit="10" stroke-width="2" stroke-opacity="0.75"/><path fill="#0072B2" stroke="#0072B2" paint-order="fill stroke markers" d=" M 1081.1818181818182 511.7756329453394 A 4 4 0 1 1 1081.1818161818185 511.77163294600604" fill-opacity="0.75" stroke-linejoin="bevel" stroke-miterlimit="10" stroke-width="2" stroke-opacity="0.75"/><path fill="#0072B2" stroke="#0072B2" paint-order="fill stroke markers" d=" M 1218.909090909091 512.1363636363636 A 4 4 0 1 1 1218.9090889090912 512.1323636370303" fill-opacity="0.75" stroke-linejoin="bevel" stroke-miterlimit="10" stroke-width="2" stroke-opacity="0.75"/></g></g></g><g clip-path="url(#PCAEZpanSyrU)"><g><g/><g><path fill="#ffffff" stroke="#e5e5e5" paint-order="fill stroke markers" d=" M 950 42 L 1260 42 L 1260 105 L 950 105 L 950 42 Z" fill-opacity="0.95" stroke-linejoin="bevel" stroke-miterlimit="10" stroke-opacity="0.5"/><text fill="#444444" stroke="none" font-family="helvetica" font-size="12pt" font-style="normal" font-weight="normal" text-decoration="normal" x="985" y="62" text-anchor="start" dominant-baseline="central">Error Loss for C6 using Fixed α = 0.01</text><g><path fill="none" stroke="#0072B2" paint-order="fill stroke markers" d=" M 960 62 L 980 62" stroke-linejoin="bevel" stroke-miterlimit="10" stroke-width="2" stroke-opacity="0.5"/></g><text fill="#444444" stroke="none" font-family="helvetica" font-size="12pt" font-style="normal" font-weight="normal" text-decoration="normal" x="985" y="85" text-anchor="start" dominant-baseline="central">Error Loss using Fixed α = 0.01</text><path fill="#0072B2" stroke="#0072B2" paint-order="fill stroke markers" d=" M 974 85 A 4 4 0 1 1 973.9999980000001 84.99600000066667" fill-opacity="0.75" stroke-linejoin="bevel" stroke-miterlimit="10" stroke-width="2" stroke-opacity="0.75"/></g></g></g><g><g fill="#444444"><path fill="none" stroke="black" paint-order="fill stroke markers" d=" M 58 535 L 1270 535" stroke-linejoin="bevel" stroke-miterlimit="10"/><path fill="none" stroke="black" paint-order="fill stroke markers" d=" M 251 541 L 251 533" stroke-linejoin="bevel" stroke-miterlimit="10"/><path fill="none" stroke="black" paint-order="fill stroke markers" d=" M 526 541 L 526 533" stroke-linejoin="bevel" stroke-miterlimit="10"/><path fill="none" stroke="black" paint-order="fill stroke markers" d=" M 802 541 L 802 533" stroke-linejoin="bevel" stroke-miterlimit="10"/><path fill="none" stroke="black" paint-order="fill stroke markers" d=" M 1077 541 L 1077 533" stroke-linejoin="bevel" stroke-miterlimit="10"/><path fill="none" stroke="black" paint-order="fill stroke markers" d=" M 196 539 L 196 535" stroke-linejoin="bevel" stroke-miterlimit="10"/><path fill="none" stroke="black" paint-order="fill stroke markers" d=" M 141 539 L 141 535" stroke-linejoin="bevel" stroke-miterlimit="10"/><path fill="none" stroke="black" paint-order="fill stroke markers" d=" M 86 539 L 86 535" stroke-linejoin="bevel" stroke-miterlimit="10"/><path fill="none" stroke="black" paint-order="fill stroke markers" d=" M 251 539 L 251 535" stroke-linejoin="bevel" stroke-miterlimit="10"/><path fill="none" stroke="black" paint-order="fill stroke markers" d=" M 306 539 L 306 535" stroke-linejoin="bevel" stroke-miterlimit="10"/><path fill="none" stroke="black" paint-order="fill stroke markers" d=" M 361 539 L 361 535" stroke-linejoin="bevel" stroke-miterlimit="10"/><path fill="none" stroke="black" paint-order="fill stroke markers" d=" M 416 539 L 416 535" stroke-linejoin="bevel" stroke-miterlimit="10"/><path fill="none" stroke="black" paint-order="fill stroke markers" d=" M 471 539 L 471 535" stroke-linejoin="bevel" stroke-miterlimit="10"/><path fill="none" stroke="black" paint-order="fill stroke markers" d=" M 526 539 L 526 535" stroke-linejoin="bevel" stroke-miterlimit="10"/><path fill="none" stroke="black" paint-order="fill stroke markers" d=" M 581 539 L 581 535" stroke-linejoin="bevel" stroke-miterlimit="10"/><path fill="none" stroke="black" paint-order="fill stroke markers" d=" M 636 539 L 636 535" stroke-linejoin="bevel" stroke-miterlimit="10"/><path fill="none" stroke="black" paint-order="fill stroke markers" d=" M 692 539 L 692 535" stroke-linejoin="bevel" stroke-miterlimit="10"/><path fill="none" stroke="black" paint-order="fill stroke markers" d=" M 747 539 L 747 535" stroke-linejoin="bevel" stroke-miterlimit="10"/><path fill="none" stroke="black" paint-order="fill stroke markers" d=" M 802 539 L 802 535" stroke-linejoin="bevel" stroke-miterlimit="10"/><path fill="none" stroke="black" paint-order="fill stroke markers" d=" M 857 539 L 857 535" stroke-linejoin="bevel" stroke-miterlimit="10"/><path fill="none" stroke="black" paint-order="fill stroke markers" d=" M 912 539 L 912 535" stroke-linejoin="bevel" stroke-miterlimit="10"/><path fill="none" stroke="black" paint-order="fill stroke markers" d=" M 967 539 L 967 535" stroke-linejoin="bevel" stroke-miterlimit="10"/><path fill="none" stroke="black" paint-order="fill stroke markers" d=" M 1022 539 L 1022 535" stroke-linejoin="bevel" stroke-miterlimit="10"/><path fill="none" stroke="black" paint-order="fill stroke markers" d=" M 1077 539 L 1077 535" stroke-linejoin="bevel" stroke-miterlimit="10"/><path fill="none" stroke="black" paint-order="fill stroke markers" d=" M 1132 539 L 1132 535" stroke-linejoin="bevel" stroke-miterlimit="10"/><path fill="none" stroke="black" paint-order="fill stroke markers" d=" M 1187 539 L 1187 535" stroke-linejoin="bevel" stroke-miterlimit="10"/><path fill="" stroke="black" paint-order="fill stroke markers" d=" M 1242 539 L 1242 535" stroke-linejoin="bevel" stroke-miterlimit="10"/><g transform="translate(251,556) rotate(0,0,0)"><text fill="" stroke="none" font-family="helvetica" font-size="11pt" font-style="normal" font-weight="normal" text-decoration="normal" x="0" y="0" text-anchor="middle" dominant-baseline="hanging">2</text><g transform="rotate(0,0,0) translate(-251,-556) translate(526,556) rotate(0,0,0)"><text fill="" stroke="none" font-family="helvetica" font-size="11pt" font-style="normal" font-weight="normal" text-decoration="normal" x="0" y="0" text-anchor="middle" dominant-baseline="hanging">4</text><g transform="rotate(0,0,0) translate(-526,-556) translate(802,556) rotate(0,0,0)"><text fill="" stroke="none" font-family="helvetica" font-size="11pt" font-style="normal" font-weight="normal" text-decoration="normal" x="0" y="0" text-anchor="middle" dominant-baseline="hanging">6</text><g transform="rotate(0,0,0) translate(-802,-556) translate(1077,556) rotate(0,0,0)"><text fill="" stroke="none" font-family="helvetica" font-size="11pt" font-style="normal" font-weight="normal" text-decoration="normal" x="0" y="0" text-anchor="middle" dominant-baseline="hanging">8</text><g transform="rotate(0,0,0) translate(-1077,-556) translate(664,580) rotate(0,0,0)"><text fill="" stroke="none" font-family="helvetica" font-size="12pt" font-style="italic" font-weight="normal" text-decoration="normal" x="0" y="0" text-anchor="middle" dominant-baseline="hanging">Epochs</text><g transform="rotate(0,0,0) translate(-664,-580)"/></g></g></g></g></g></g><g fill="#444444"><path fill="none" stroke="black" paint-order="fill stroke markers" d=" M 58 535 L 58 32" stroke-linejoin="bevel" stroke-miterlimit="10"/><path fill="none" stroke="black" paint-order="fill stroke markers" d=" M 52 512 L 60 512" stroke-linejoin="bevel" stroke-miterlimit="10"/><path fill="none" stroke="black" paint-order="fill stroke markers" d=" M 52 422 L 60 422" stroke-linejoin="bevel" stroke-miterlimit="10"/><path fill="none" stroke="black" paint-order="fill stroke markers" d=" M 52 332 L 60 332" stroke-linejoin="bevel" stroke-miterlimit="10"/><path fill="none" stroke="black" paint-order="fill stroke markers" d=" M 52 241 L 60 241" stroke-linejoin="bevel" stroke-miterlimit="10"/><path fill="none" stroke="black" paint-order="fill stroke markers" d=" M 52 151 L 60 151" stroke-linejoin="bevel" stroke-miterlimit="10"/><path fill="none" stroke="black" paint-order="fill stroke markers" d=" M 52 61 L 60 61" stroke-linejoin="bevel" stroke-miterlimit="10"/><path fill="none" stroke="black" paint-order="fill stroke markers" d=" M 54 531 L 58 531" stroke-linejoin="bevel" stroke-miterlimit="10"/><path fill="none" stroke="black" paint-order="fill stroke markers" d=" M 54 512 L 58 512" stroke-linejoin="bevel" stroke-miterlimit="10"/><path fill="none" stroke="black" paint-order="fill stroke markers" d=" M 54 494 L 58 494" stroke-linejoin="bevel" stroke-miterlimit="10"/><path fill="none" stroke="black" paint-order="fill stroke markers" d=" M 54 476 L 58 476" stroke-linejoin="bevel" stroke-miterlimit="10"/><path fill="none" stroke="black" paint-order="fill stroke markers" d=" M 54 458 L 58 458" stroke-linejoin="bevel" stroke-miterlimit="10"/><path fill="none" stroke="black" paint-order="fill stroke markers" d=" M 54 440 L 58 440" stroke-linejoin="bevel" stroke-miterlimit="10"/><path fill="none" stroke="black" paint-order="fill stroke markers" d=" M 54 422 L 58 422" stroke-linejoin="bevel" stroke-miterlimit="10"/><path fill="none" stroke="black" paint-order="fill stroke markers" d=" M 54 404 L 58 404" stroke-linejoin="bevel" stroke-miterlimit="10"/><path fill="none" stroke="black" paint-order="fill stroke markers" d=" M 54 386 L 58 386" stroke-linejoin="bevel" stroke-miterlimit="10"/><path fill="none" stroke="black" paint-order="fill stroke markers" d=" M 54 368 L 58 368" stroke-linejoin="bevel" stroke-miterlimit="10"/><path fill="none" stroke="black" paint-order="fill stroke markers" d=" M 54 350 L 58 350" stroke-linejoin="bevel" stroke-miterlimit="10"/><path fill="none" stroke="black" paint-order="fill stroke markers" d=" M 54 332 L 58 332" stroke-linejoin="bevel" stroke-miterlimit="10"/><path fill="none" stroke="black" paint-order="fill stroke markers" d=" M 54 314 L 58 314" stroke-linejoin="bevel" stroke-miterlimit="10"/><path fill="none" stroke="black" paint-order="fill stroke markers" d=" M 54 296 L 58 296" stroke-linejoin="bevel" stroke-miterlimit="10"/><path fill="none" stroke="black" paint-order="fill stroke markers" d=" M 54 278 L 58 278" stroke-linejoin="bevel" stroke-miterlimit="10"/><path fill="none" stroke="black" paint-order="fill stroke markers" d=" M 54 259 L 58 259" stroke-linejoin="bevel" stroke-miterlimit="10"/><path fill="none" stroke="black" paint-order="fill stroke markers" d=" M 54 241 L 58 241" stroke-linejoin="bevel" stroke-miterlimit="10"/><path fill="none" stroke="black" paint-order="fill stroke markers" d=" M 54 223 L 58 223" stroke-linejoin="bevel" stroke-miterlimit="10"/><path fill="none" stroke="black" paint-order="fill stroke markers" d=" M 54 205 L 58 205" stroke-linejoin="bevel" stroke-miterlimit="10"/><path fill="none" stroke="black" paint-order="fill stroke markers" d=" M 54 187 L 58 187" stroke-linejoin="bevel" stroke-miterlimit="10"/><path fill="none" stroke="black" paint-order="fill stroke markers" d=" M 54 169 L 58 169" stroke-linejoin="bevel" stroke-miterlimit="10"/><path fill="none" stroke="black" paint-order="fill stroke markers" d=" M 54 151 L 58 151" stroke-linejoin="bevel" stroke-miterlimit="10"/><path fill="none" stroke="black" paint-order="fill stroke markers" d=" M 54 133 L 58 133" stroke-linejoin="bevel" stroke-miterlimit="10"/><path fill="none" stroke="black" paint-order="fill stroke markers" d=" M 54 115 L 58 115" stroke-linejoin="bevel" stroke-miterlimit="10"/><path fill="none" stroke="black" paint-order="fill stroke markers" d=" M 54 97 L 58 97" stroke-linejoin="bevel" stroke-miterlimit="10"/><path fill="none" stroke="black" paint-order="fill stroke markers" d=" M 54 79 L 58 79" stroke-linejoin="bevel" stroke-miterlimit="10"/><path fill="none" stroke="black" paint-order="fill stroke markers" d=" M 54 61 L 58 61" stroke-linejoin="bevel" stroke-miterlimit="10"/><path fill="" stroke="black" paint-order="fill stroke markers" d=" M 54 43 L 58 43" stroke-linejoin="bevel" stroke-miterlimit="10"/><g transform="translate(47,512) rotate(0,0,0)"><text fill="" stroke="none" font-family="helvetica" font-size="11pt" font-style="normal" font-weight="normal" text-decoration="normal" x="0" y="0" text-anchor="end" dominant-baseline="central">0</text><g transform="rotate(0,0,0) translate(-47,-512) translate(47,422) rotate(0,0,0)"><text fill="" stroke="none" font-family="helvetica" font-size="11pt" font-style="normal" font-weight="normal" text-decoration="normal" x="0" y="0" text-anchor="end" dominant-baseline="central">0.2</text><g transform="rotate(0,0,0) translate(-47,-422) translate(47,332) rotate(0,0,0)"><text fill="" stroke="none" font-family="helvetica" font-size="11pt" font-style="normal" font-weight="normal" text-decoration="normal" x="0" y="0" text-anchor="end" dominant-baseline="central">0.4</text><g transform="rotate(0,0,0) translate(-47,-332) translate(47,241) rotate(0,0,0)"><text fill="" stroke="none" font-family="helvetica" font-size="11pt" font-style="normal" font-weight="normal" text-decoration="normal" x="0" y="0" text-anchor="end" dominant-baseline="central">0.6</text><g transform="rotate(0,0,0) translate(-47,-241) translate(47,151) rotate(0,0,0)"><text fill="" stroke="none" font-family="helvetica" font-size="11pt" font-style="normal" font-weight="normal" text-decoration="normal" x="0" y="0" text-anchor="end" dominant-baseline="central">0.8</text><g transform="rotate(0,0,0) translate(-47,-151) translate(47,61) rotate(0,0,0)"><text fill="" stroke="none" font-family="helvetica" font-size="11pt" font-style="normal" font-weight="normal" text-decoration="normal" x="0" y="0" text-anchor="end" dominant-baseline="central">1</text><g transform="rotate(0,0,0) translate(-47,-61) translate(20,284) rotate(-90,0,0)"><text fill="" stroke="none" font-family="helvetica" font-size="12pt" font-style="italic" font-weight="normal" text-decoration="normal" x="0" y="0" text-anchor="middle" dominant-baseline="alphabetic">Error Loss</text><g transform="rotate(90,0,0) translate(-20,-284)"/></g></g></g></g></g></g></g></g><g fill="#444444"><path fill="" stroke="none" d=""/><g transform="translate(58,27)"><path fill="none" stroke="none"/><text fill="" stroke="none" font-family="helvetica" font-size="12pt" font-style="normal" font-weight="bold" text-decoration="normal" x="0" y="0" text-anchor="start" dominant-baseline="text-after-edge">Simplified Flowrate Error (Loss) Function for TZ6 TRAIN data</text></g></g></g></g></g></svg>