<svg version="1.1" xmlns="http://www.w3.org/2000/svg" xmlns:xlink="http://www.w3.org/1999/xlink" width="1250" height="600" style="width: 1250px; height: 600px;"><defs><clipPath id="FsEqTqbnJKQB"><path fill="none" stroke="none" d=" M 63 32 L 1220 32 L 1220 535 L 63 535 L 63 32 Z"/></clipPath><clipPath id="wJJRVTGdRuaN"><path fill="none" stroke="none" d=" M 63 32 L 1220 32 L 1220 535 L 63 535 L 63 32 Z"/></clipPath></defs><g><g transform="scale(1,1) translate(0.5,0.5)"><rect fill="#FFFFFF" stroke="none" x="0" y="0" width="1250" height="600"/><rect fill="#ffffff" stroke="none" x="0" y="0" width="1250" height="600"/><rect fill="#FFFFFF" stroke="none" x="63" y="32" width="1157" height="503"/><rect fill="#ffffff" stroke="none" x="63" y="32" width="1157" height="503"/><g><rect fill="none" stroke="#e5e5e5" x="63" y="32" width="1157" height="503" stroke-linejoin="bevel" stroke-miterlimit="10"/></g><g clip-path="url(#FsEqTqbnJKQB)"><g><g><path fill="none" stroke="#e5e5e5" paint-order="fill stroke markers" d=" M 197 535 L 197 32" stroke-linejoin="bevel" stroke-miterlimit="10"/><path fill="none" stroke="#e5e5e5" paint-order="fill stroke markers" d=" M 358 535 L 358 32" stroke-linejoin="bevel" stroke-miterlimit="10"/><path fill="none" stroke="#e5e5e5" paint-order="fill stroke markers" d=" M 520 535 L 520 32" stroke-linejoin="bevel" stroke-miterlimit="10"/><path fill="none" stroke="#e5e5e5" paint-order="fill stroke markers" d=" M 682 535 L 682 32" stroke-linejoin="bevel" stroke-miterlimit="10"/><path fill="none" stroke="#e5e5e5" paint-order="fill stroke markers" d=" M 844 535 L 844 32" stroke-linejoin="bevel" stroke-miterlimit="10"/><path fill="none" stroke="#e5e5e5" paint-order="fill stroke markers" d=" M 1006 535 L 1006 32" stroke-linejoin="bevel" stroke-miterlimit="10"/><path fill="none" stroke="#e5e5e5" paint-order="fill stroke markers" d=" M 1167 535 L 1167 32" stroke-linejoin="bevel" stroke-miterlimit="10"/></g><g><path fill="none" stroke="#e5e5e5" paint-order="fill stroke markers" d=" M 63 513 L 1220 513" stroke-linejoin="bevel" stroke-miterlimit="10"/><path fill="none" stroke="#e5e5e5" paint-order="fill stroke markers" d=" M 63 422 L 1220 422" stroke-linejoin="bevel" stroke-miterlimit="10"/><path fill="none" stroke="#e5e5e5" paint-order="fill stroke markers" d=" M 63 332 L 1220 332" stroke-linejoin="bevel" stroke-miterlimit="10"/><path fill="none" stroke="#e5e5e5" paint-order="fill stroke markers" d=" M 63 241 L 1220 241" stroke-linejoin="bevel" stroke-miterlimit="10"/><path fill="none" stroke="#e5e5e5" paint-order="fill stroke markers" d=" M 63 150 L 1220 150" stroke-linejoin="bevel" stroke-miterlimit="10"/><path fill="none" stroke="#e5e5e5" paint-order="fill stroke markers" d=" M 63 59 L 1220 59" stroke-linejoin="bevel" stroke-miterlimit="10"/></g><g><path fill="none" stroke="none"/><path fill="none" stroke="#e41a1c" paint-order="fill stroke markers" d=" M 115.59090909090912 512.1363636363636 L 196.50000000000003 54.86363636363643 L 277.40909090909093 411.6581693916916 L 358.31818181818187 452.52418226759767 L 439.22727272727275 454.3468503515618 L 520.1363636363636 454.5264763242234 L 601.0454545454546 454.5591623344926 L 681.9545454545455 454.5593355423095 L 762.8636363636364 454.55935296651694 L 843.7727272727273 454.5593547306545 L 924.6818181818182 454.5593549062272 L 1005.5909090909091 454.55935492426687 L 1086.5 454.5593549260708 L 1167.409090909091 454.5593549262512" stroke-linejoin="bevel" stroke-miterlimit="10" stroke-width="2" stroke-opacity="0.5"/></g><g><path fill="none" stroke="none"/><path fill="#e41a1c" stroke="#e41a1c" paint-order="fill stroke markers" d=" M 119.59090909090912 512.1363636363636 A 4 4 0 1 1 119.59090709090928 512.1323636370303" fill-opacity="0.75" stroke-linejoin="bevel" stroke-miterlimit="10" stroke-width="2" stroke-opacity="0.75"/><path fill="#e41a1c" stroke="#e41a1c" paint-order="fill stroke markers" d=" M 200.50000000000003 54.86363636363643 A 4 4 0 1 1 200.4999980000002 54.85963636430309" fill-opacity="0.75" stroke-linejoin="bevel" stroke-miterlimit="10" stroke-width="2" stroke-opacity="0.75"/><path fill="#e41a1c" stroke="#e41a1c" paint-order="fill stroke markers" d=" M 281.40909090909093 411.6581693916916 A 4 4 0 1 1 281.4090889090911 411.65416939235826" fill-opacity="0.75" stroke-linejoin="bevel" stroke-miterlimit="10" stroke-width="2" stroke-opacity="0.75"/><path fill="#e41a1c" stroke="#e41a1c" paint-order="fill stroke markers" d=" M 362.31818181818187 452.52418226759767 A 4 4 0 1 1 362.31817981818205 452.5201822682643" fill-opacity="0.75" stroke-linejoin="bevel" stroke-miterlimit="10" stroke-width="2" stroke-opacity="0.75"/><path fill="#e41a1c" stroke="#e41a1c" paint-order="fill stroke markers" d=" M 443.22727272727275 454.3468503515618 A 4 4 0 1 1 443.2272707272729 454.3428503522284" fill-opacity="0.75" stroke-linejoin="bevel" stroke-miterlimit="10" stroke-width="2" stroke-opacity="0.75"/><path fill="#e41a1c" stroke="#e41a1c" paint-order="fill stroke markers" d=" M 524.1363636363636 454.5264763242234 A 4 4 0 1 1 524.1363616363637 454.52247632489" fill-opacity="0.75" stroke-linejoin="bevel" stroke-miterlimit="10" stroke-width="2" stroke-opacity="0.75"/><path fill="#e41a1c" stroke="#e41a1c" paint-order="fill stroke markers" d=" M 605.0454545454546 454.5591623344926 A 4 4 0 1 1 605.0454525454547 454.55516233515925" fill-opacity="0.75" stroke-linejoin="bevel" stroke-miterlimit="10" stroke-width="2" stroke-opacity="0.75"/><path fill="#e41a1c" stroke="#e41a1c" paint-order="fill stroke markers" d=" M 685.9545454545455 454.5593355423095 A 4 4 0 1 1 685.9545434545456 454.55533554297614" fill-opacity="0.75" stroke-linejoin="bevel" stroke-miterlimit="10" stroke-width="2" stroke-opacity="0.75"/><path fill="#e41a1c" stroke="#e41a1c" paint-order="fill stroke markers" d=" M 766.8636363636364 454.55935296651694 A 4 4 0 1 1 766.8636343636365 454.5553529671836" fill-opacity="0.75" stroke-linejoin="bevel" stroke-miterlimit="10" stroke-width="2" stroke-opacity="0.75"/><path fill="#e41a1c" stroke="#e41a1c" paint-order="fill stroke markers" d=" M 847.7727272727273 454.5593547306545 A 4 4 0 1 1 847.7727252727274 454.55535473132113" fill-opacity="0.75" stroke-linejoin="bevel" stroke-miterlimit="10" stroke-width="2" stroke-opacity="0.75"/><path fill="#e41a1c" stroke="#e41a1c" paint-order="fill stroke markers" d=" M 928.6818181818182 454.5593549062272 A 4 4 0 1 1 928.6818161818184 454.55535490689385" fill-opacity="0.75" stroke-linejoin="bevel" stroke-miterlimit="10" stroke-width="2" stroke-opacity="0.75"/><path fill="#e41a1c" stroke="#e41a1c" paint-order="fill stroke markers" d=" M 1009.5909090909091 454.55935492426687 A 4 4 0 1 1 1009.5909070909092 454.5553549249335" fill-opacity="0.75" stroke-linejoin="bevel" stroke-miterlimit="10" stroke-width="2" stroke-opacity="0.75"/><path fill="#e41a1c" stroke="#e41a1c" paint-order="fill stroke markers" d=" M 1090.5 454.5593549260708 A 4 4 0 1 1 1090.4999980000002 454.55535492673744" fill-opacity="0.75" stroke-linejoin="bevel" stroke-miterlimit="10" stroke-width="2" stroke-opacity="0.75"/><path fill="#e41a1c" stroke="#e41a1c" paint-order="fill stroke markers" d=" M 1171.409090909091 454.5593549262512 A 4 4 0 1 1 1171.4090889090912 454.55535492691786" fill-opacity="0.75" stroke-linejoin="bevel" stroke-miterlimit="10" stroke-width="2" stroke-opacity="0.75"/></g></g></g><g clip-path="url(#wJJRVTGdRuaN)"><g><g/><g><path fill="#ffffff" stroke="#e5e5e5" paint-order="fill stroke markers" d=" M 890 42 L 1210 42 L 1210 82 L 890 82 L 890 42 Z" fill-opacity="0.95" stroke-linejoin="bevel" stroke-miterlimit="10" stroke-opacity="0.5"/><text fill="#444444" stroke="none" font-family="helvetica" font-size="12pt" font-style="normal" font-weight="normal" text-decoration="normal" x="925" y="62" text-anchor="start" dominant-baseline="central">Error Loss using α1 = 0.1 in LineSearch</text><g><path fill="none" stroke="#e41a1c" paint-order="fill stroke markers" d=" M 900 62 L 920 62" stroke-linejoin="bevel" stroke-miterlimit="10" stroke-width="2" stroke-opacity="0.5"/></g><path fill="#e41a1c" stroke="#e41a1c" paint-order="fill stroke markers" d=" M 914 62 A 4 4 0 1 1 913.9999980000001 61.99600000066666" fill-opacity="0.75" stroke-linejoin="bevel" stroke-miterlimit="10" stroke-width="2" stroke-opacity="0.75"/></g></g></g><g><g fill="#444444"><path fill="none" stroke="black" paint-order="fill stroke markers" d=" M 63 535 L 1220 535" stroke-linejoin="bevel" stroke-miterlimit="10"/><path fill="none" stroke="black" paint-order="fill stroke markers" d=" M 197 541 L 197 533" stroke-linejoin="bevel" stroke-miterlimit="10"/><path fill="none" stroke="black" paint-order="fill stroke markers" d=" M 358 541 L 358 533" stroke-linejoin="bevel" stroke-miterlimit="10"/><path fill="none" stroke="black" paint-order="fill stroke markers" d=" M 520 541 L 520 533" stroke-linejoin="bevel" stroke-miterlimit="10"/><path fill="none" stroke="black" paint-order="fill stroke markers" d=" M 682 541 L 682 533" stroke-linejoin="bevel" stroke-miterlimit="10"/><path fill="none" stroke="black" paint-order="fill stroke markers" d=" M 844 541 L 844 533" stroke-linejoin="bevel" stroke-miterlimit="10"/><path fill="none" stroke="black" paint-order="fill stroke markers" d=" M 1006 541 L 1006 533" stroke-linejoin="bevel" stroke-miterlimit="10"/><path fill="none" stroke="black" paint-order="fill stroke markers" d=" M 1167 541 L 1167 533" stroke-linejoin="bevel" stroke-miterlimit="10"/><path fill="none" stroke="black" paint-order="fill stroke markers" d=" M 164 539 L 164 535" stroke-linejoin="bevel" stroke-miterlimit="10"/><path fill="none" stroke="black" paint-order="fill stroke markers" d=" M 132 539 L 132 535" stroke-linejoin="bevel" stroke-miterlimit="10"/><path fill="none" stroke="black" paint-order="fill stroke markers" d=" M 99 539 L 99 535" stroke-linejoin="bevel" stroke-miterlimit="10"/><path fill="none" stroke="black" paint-order="fill stroke markers" d=" M 67 539 L 67 535" stroke-linejoin="bevel" stroke-miterlimit="10"/><path fill="none" stroke="black" paint-order="fill stroke markers" d=" M 197 539 L 197 535" stroke-linejoin="bevel" stroke-miterlimit="10"/><path fill="none" stroke="black" paint-order="fill stroke markers" d=" M 229 539 L 229 535" stroke-linejoin="bevel" stroke-miterlimit="10"/><path fill="none" stroke="black" paint-order="fill stroke markers" d=" M 261 539 L 261 535" stroke-linejoin="bevel" stroke-miterlimit="10"/><path fill="none" stroke="black" paint-order="fill stroke markers" d=" M 294 539 L 294 535" stroke-linejoin="bevel" stroke-miterlimit="10"/><path fill="none" stroke="black" paint-order="fill stroke markers" d=" M 326 539 L 326 535" stroke-linejoin="bevel" stroke-miterlimit="10"/><path fill="none" stroke="black" paint-order="fill stroke markers" d=" M 358 539 L 358 535" stroke-linejoin="bevel" stroke-miterlimit="10"/><path fill="none" stroke="black" paint-order="fill stroke markers" d=" M 391 539 L 391 535" stroke-linejoin="bevel" stroke-miterlimit="10"/><path fill="none" stroke="black" paint-order="fill stroke markers" d=" M 423 539 L 423 535" stroke-linejoin="bevel" stroke-miterlimit="10"/><path fill="none" stroke="black" paint-order="fill stroke markers" d=" M 455 539 L 455 535" stroke-linejoin="bevel" stroke-miterlimit="10"/><path fill="none" stroke="black" paint-order="fill stroke markers" d=" M 488 539 L 488 535" stroke-linejoin="bevel" stroke-miterlimit="10"/><path fill="none" stroke="black" paint-order="fill stroke markers" d=" M 520 539 L 520 535" stroke-linejoin="bevel" stroke-miterlimit="10"/><path fill="none" stroke="black" paint-order="fill stroke markers" d=" M 553 539 L 553 535" stroke-linejoin="bevel" stroke-miterlimit="10"/><path fill="none" stroke="black" paint-order="fill stroke markers" d=" M 585 539 L 585 535" stroke-linejoin="bevel" stroke-miterlimit="10"/><path fill="none" stroke="black" paint-order="fill stroke markers" d=" M 617 539 L 617 535" stroke-linejoin="bevel" stroke-miterlimit="10"/><path fill="none" stroke="black" paint-order="fill stroke markers" d=" M 650 539 L 650 535" stroke-linejoin="bevel" stroke-miterlimit="10"/><path fill="none" stroke="black" paint-order="fill stroke markers" d=" M 682 539 L 682 535" stroke-linejoin="bevel" stroke-miterlimit="10"/><path fill="none" stroke="black" paint-order="fill stroke markers" d=" M 714 539 L 714 535" stroke-linejoin="bevel" stroke-miterlimit="10"/><path fill="none" stroke="black" paint-order="fill stroke markers" d=" M 747 539 L 747 535" stroke-linejoin="bevel" stroke-miterlimit="10"/><path fill="none" stroke="black" paint-order="fill stroke markers" d=" M 779 539 L 779 535" stroke-linejoin="bevel" stroke-miterlimit="10"/><path fill="none" stroke="black" paint-order="fill stroke markers" d=" M 811 539 L 811 535" stroke-linejoin="bevel" stroke-miterlimit="10"/><path fill="none" stroke="black" paint-order="fill stroke markers" d=" M 844 539 L 844 535" stroke-linejoin="bevel" stroke-miterlimit="10"/><path fill="none" stroke="black" paint-order="fill stroke markers" d=" M 876 539 L 876 535" stroke-linejoin="bevel" stroke-miterlimit="10"/><path fill="none" stroke="black" paint-order="fill stroke markers" d=" M 909 539 L 909 535" stroke-linejoin="bevel" stroke-miterlimit="10"/><path fill="none" stroke="black" paint-order="fill stroke markers" d=" M 941 539 L 941 535" stroke-linejoin="bevel" stroke-miterlimit="10"/><path fill="none" stroke="black" paint-order="fill stroke markers" d=" M 973 539 L 973 535" stroke-linejoin="bevel" stroke-miterlimit="10"/><path fill="none" stroke="black" paint-order="fill stroke markers" d=" M 1006 539 L 1006 535" stroke-linejoin="bevel" stroke-miterlimit="10"/><path fill="none" stroke="black" paint-order="fill stroke markers" d=" M 1038 539 L 1038 535" stroke-linejoin="bevel" stroke-miterlimit="10"/><path fill="none" stroke="black" paint-order="fill stroke markers" d=" M 1070 539 L 1070 535" stroke-linejoin="bevel" stroke-miterlimit="10"/><path fill="none" stroke="black" paint-order="fill stroke markers" d=" M 1103 539 L 1103 535" stroke-linejoin="bevel" stroke-miterlimit="10"/><path fill="none" stroke="black" paint-order="fill stroke markers" d=" M 1135 539 L 1135 535" stroke-linejoin="bevel" stroke-miterlimit="10"/><path fill="none" stroke="black" paint-order="fill stroke markers" d=" M 1167 539 L 1167 535" stroke-linejoin="bevel" stroke-miterlimit="10"/><path fill="" stroke="black" paint-order="fill stroke markers" d=" M 1200 539 L 1200 535" stroke-linejoin="bevel" stroke-miterlimit="10"/><g transform="translate(197,556) rotate(0,0,0)"><text fill="" stroke="none" font-family="helvetica" font-size="11pt" font-style="normal" font-weight="normal" text-decoration="normal" x="0" y="0" text-anchor="middle" dominant-baseline="hanging">2</text><g transform="rotate(0,0,0) translate(-197,-556) translate(358,556) rotate(0,0,0)"><text fill="" stroke="none" font-family="helvetica" font-size="11pt" font-style="normal" font-weight="normal" text-decoration="normal" x="0" y="0" text-anchor="middle" dominant-baseline="hanging">4</text><g transform="rotate(0,0,0) translate(-358,-556) translate(520,556) rotate(0,0,0)"><text fill="" stroke="none" font-family="helvetica" font-size="11pt" font-style="normal" font-weight="normal" text-decoration="normal" x="0" y="0" text-anchor="middle" dominant-baseline="hanging">6</text><g transform="rotate(0,0,0) translate(-520,-556) translate(682,556) rotate(0,0,0)"><text fill="" stroke="none" font-family="helvetica" font-size="11pt" font-style="normal" font-weight="normal" text-decoration="normal" x="0" y="0" text-anchor="middle" dominant-baseline="hanging">8</text><g transform="rotate(0,0,0) translate(-682,-556) translate(844,556) rotate(0,0,0)"><text fill="" stroke="none" font-family="helvetica" font-size="11pt" font-style="normal" font-weight="normal" text-decoration="normal" x="0" y="0" text-anchor="middle" dominant-baseline="hanging">10</text><g transform="rotate(0,0,0) translate(-844,-556) translate(1006,556) rotate(0,0,0)"><text fill="" stroke="none" font-family="helvetica" font-size="11pt" font-style="normal" font-weight="normal" text-decoration="normal" x="0" y="0" text-anchor="middle" dominant-baseline="hanging">12</text><g transform="rotate(0,0,0) translate(-1006,-556) translate(1167,556) rotate(0,0,0)"><text fill="" stroke="none" font-family="helvetica" font-size="11pt" font-style="normal" font-weight="normal" text-decoration="normal" x="0" y="0" text-anchor="middle" dominant-baseline="hanging">14</text><g transform="rotate(0,0,0) translate(-1167,-556) translate(642,580) rotate(0,0,0)"><text fill="" stroke="none" font-family="helvetica" font-size="12pt" font-style="italic" font-weight="normal" text-decoration="normal" x="0" y="0" text-anchor="middle" dominant-baseline="hanging">Epochs</text><g transform="rotate(0,0,0) translate(-642,-580)"/></g></g></g></g></g></g></g></g></g><g fill="#444444"><path fill="none" stroke="black" paint-order="fill stroke markers" d=" M 63 535 L 63 32" stroke-linejoin="bevel" stroke-miterlimit="10"/><path fill="none" stroke="black" paint-order="fill stroke markers" d=" M 57 513 L 65 513" stroke-linejoin="bevel" stroke-miterlimit="10"/><path fill="none" stroke="black" paint-order="fill stroke markers" d=" M 57 422 L 65 422" stroke-linejoin="bevel" stroke-miterlimit="10"/><path fill="none" stroke="black" paint-order="fill stroke markers" d=" M 57 332 L 65 332" stroke-linejoin="bevel" stroke-miterlimit="10"/><path fill="none" stroke="black" paint-order="fill stroke markers" d=" M 57 241 L 65 241" stroke-linejoin="bevel" stroke-miterlimit="10"/><path fill="none" stroke="black" paint-order="fill stroke markers" d=" M 57 150 L 65 150" stroke-linejoin="bevel" stroke-miterlimit="10"/><path fill="none" stroke="black" paint-order="fill stroke markers" d=" M 57 59 L 65 59" stroke-linejoin="bevel" stroke-miterlimit="10"/><path fill="none" stroke="black" paint-order="fill stroke markers" d=" M 59 532 L 63 532" stroke-linejoin="bevel" stroke-miterlimit="10"/><path fill="none" stroke="black" paint-order="fill stroke markers" d=" M 59 513 L 63 513" stroke-linejoin="bevel" stroke-miterlimit="10"/><path fill="none" stroke="black" paint-order="fill stroke markers" d=" M 59 495 L 63 495" stroke-linejoin="bevel" stroke-miterlimit="10"/><path fill="none" stroke="black" paint-order="fill stroke markers" d=" M 59 477 L 63 477" stroke-linejoin="bevel" stroke-miterlimit="10"/><path fill="none" stroke="black" paint-order="fill stroke markers" d=" M 59 459 L 63 459" stroke-linejoin="bevel" stroke-miterlimit="10"/><path fill="none" stroke="black" paint-order="fill stroke markers" d=" M 59 441 L 63 441" stroke-linejoin="bevel" stroke-miterlimit="10"/><path fill="none" stroke="black" paint-order="fill stroke markers" d=" M 59 422 L 63 422" stroke-linejoin="bevel" stroke-miterlimit="10"/><path fill="none" stroke="black" paint-order="fill stroke markers" d=" M 59 404 L 63 404" stroke-linejoin="bevel" stroke-miterlimit="10"/><path fill="none" stroke="black" paint-order="fill stroke markers" d=" M 59 386 L 63 386" stroke-linejoin="bevel" stroke-miterlimit="10"/><path fill="none" stroke="black" paint-order="fill stroke markers" d=" M 59 368 L 63 368" stroke-linejoin="bevel" stroke-miterlimit="10"/><path fill="none" stroke="black" paint-order="fill stroke markers" d=" M 59 350 L 63 350" stroke-linejoin="bevel" stroke-miterlimit="10"/><path fill="none" stroke="black" paint-order="fill stroke markers" d=" M 59 332 L 63 332" stroke-linejoin="bevel" stroke-miterlimit="10"/><path fill="none" stroke="black" paint-order="fill stroke markers" d=" M 59 313 L 63 313" stroke-linejoin="bevel" stroke-miterlimit="10"/><path fill="none" stroke="black" paint-order="fill stroke markers" d=" M 59 295 L 63 295" stroke-linejoin="bevel" stroke-miterlimit="10"/><path fill="none" stroke="black" paint-order="fill stroke markers" d=" M 59 277 L 63 277" stroke-linejoin="bevel" stroke-miterlimit="10"/><path fill="none" stroke="black" paint-order="fill stroke markers" d=" M 59 259 L 63 259" stroke-linejoin="bevel" stroke-miterlimit="10"/><path fill="none" stroke="black" paint-order="fill stroke markers" d=" M 59 241 L 63 241" stroke-linejoin="bevel" stroke-miterlimit="10"/><path fill="none" stroke="black" paint-order="fill stroke markers" d=" M 59 222 L 63 222" stroke-linejoin="bevel" stroke-miterlimit="10"/><path fill="none" stroke="black" paint-order="fill stroke markers" d=" M 59 204 L 63 204" stroke-linejoin="bevel" stroke-miterlimit="10"/><path fill="none" stroke="black" paint-order="fill stroke markers" d=" M 59 186 L 63 186" stroke-linejoin="bevel" stroke-miterlimit="10"/><path fill="none" stroke="black" paint-order="fill stroke markers" d=" M 59 168 L 63 168" stroke-linejoin="bevel" stroke-miterlimit="10"/><path fill="none" stroke="black" paint-order="fill stroke markers" d=" M 59 150 L 63 150" stroke-linejoin="bevel" stroke-miterlimit="10"/><path fill="none" stroke="black" paint-order="fill stroke markers" d=" M 59 131 L 63 131" stroke-linejoin="bevel" stroke-miterlimit="10"/><path fill="none" stroke="black" paint-order="fill stroke markers" d=" M 59 113 L 63 113" stroke-linejoin="bevel" stroke-miterlimit="10"/><path fill="none" stroke="black" paint-order="fill stroke markers" d=" M 59 95 L 63 95" stroke-linejoin="bevel" stroke-miterlimit="10"/><path fill="none" stroke="black" paint-order="fill stroke markers" d=" M 59 77 L 63 77" stroke-linejoin="bevel" stroke-miterlimit="10"/><path fill="none" stroke="black" paint-order="fill stroke markers" d=" M 59 59 L 63 59" stroke-linejoin="bevel" stroke-miterlimit="10"/><path fill="" stroke="black" paint-order="fill stroke markers" d=" M 59 41 L 63 41" stroke-linejoin="bevel" stroke-miterlimit="10"/><g transform="translate(52,513) rotate(0,0,0)"><text fill="" stroke="none" font-family="helvetica" font-size="11pt" font-style="normal" font-weight="normal" text-decoration="normal" x="0" y="0" text-anchor="end" dominant-baseline="central">0</text><g transform="rotate(0,0,0) translate(-52,-513) translate(52,422) rotate(0,0,0)"><text fill="" stroke="none" font-family="helvetica" font-size="11pt" font-style="normal" font-weight="normal" text-decoration="normal" x="0" y="0" text-anchor="end" dominant-baseline="central">50</text><g transform="rotate(0,0,0) translate(-52,-422) translate(52,332) rotate(0,0,0)"><text fill="" stroke="none" font-family="helvetica" font-size="11pt" font-style="normal" font-weight="normal" text-decoration="normal" x="0" y="0" text-anchor="end" dominant-baseline="central">100</text><g transform="rotate(0,0,0) translate(-52,-332) translate(52,241) rotate(0,0,0)"><text fill="" stroke="none" font-family="helvetica" font-size="11pt" font-style="normal" font-weight="normal" text-decoration="normal" x="0" y="0" text-anchor="end" dominant-baseline="central">150</text><g transform="rotate(0,0,0) translate(-52,-241) translate(52,150) rotate(0,0,0)"><text fill="" stroke="none" font-family="helvetica" font-size="11pt" font-style="normal" font-weight="normal" text-decoration="normal" x="0" y="0" text-anchor="end" dominant-baseline="central">200</text><g transform="rotate(0,0,0) translate(-52,-150) translate(52,59) rotate(0,0,0)"><text fill="" stroke="none" font-family="helvetica" font-size="11pt" font-style="normal" font-weight="normal" text-decoration="normal" x="0" y="0" text-anchor="end" dominant-baseline="central">250</text><g transform="rotate(0,0,0) translate(-52,-59) translate(21,284) rotate(-90,0,0)"><text fill="" stroke="none" font-family="helvetica" font-size="12pt" font-style="italic" font-weight="normal" text-decoration="normal" x="0" y="0" text-anchor="middle" dominant-baseline="alphabetic">Error Loss</text><g transform="rotate(90,0,0) translate(-21,-284)"/></g></g></g></g></g></g></g></g><g fill="#444444"><path fill="" stroke="none" d=""/><g transform="translate(63,27)"><path fill="none" stroke="none"/><text fill="" stroke="none" font-family="helvetica" font-size="12pt" font-style="normal" font-weight="bold" text-decoration="normal" x="0" y="0" text-anchor="start" dominant-baseline="text-after-edge">Error (Loss) Function for TZ6 TRAIN data points</text></g></g></g></g></g></svg>