<svg version="1.1" xmlns="http://www.w3.org/2000/svg" xmlns:xlink="http://www.w3.org/1999/xlink" width="1250" height="600" style="width: 1250px; height: 600px;"><defs><clipPath id="HWXVcbDzKLVc"><path fill="none" stroke="none" d=" M 58 32 L 1220 32 L 1220 535 L 58 535 L 58 32 Z"/></clipPath><clipPath id="nkpKncPNqSne"><path fill="none" stroke="none" d=" M 58 32 L 1220 32 L 1220 535 L 58 535 L 58 32 Z"/></clipPath></defs><g><g transform="scale(1,1) translate(0.5,0.5)"><rect fill="#FFFFFF" stroke="none" x="0" y="0" width="1250" height="600"/><rect fill="#ffffff" stroke="none" x="0" y="0" width="1250" height="600"/><rect fill="#FFFFFF" stroke="none" x="58" y="32" width="1162" height="503"/><rect fill="#ffffff" stroke="none" x="58" y="32" width="1162" height="503"/><g><rect fill="none" stroke="#e5e5e5" x="58" y="32" width="1162" height="503" stroke-linejoin="bevel" stroke-miterlimit="10"/></g><g clip-path="url(#HWXVcbDzKLVc)"><g><g><path fill="none" stroke="#e5e5e5" paint-order="fill stroke markers" d=" M 243 535 L 243 32" stroke-linejoin="bevel" stroke-miterlimit="10"/><path fill="none" stroke="#e5e5e5" paint-order="fill stroke markers" d=" M 507 535 L 507 32" stroke-linejoin="bevel" stroke-miterlimit="10"/><path fill="none" stroke="#e5e5e5" paint-order="fill stroke markers" d=" M 771 535 L 771 32" stroke-linejoin="bevel" stroke-miterlimit="10"/><path fill="none" stroke="#e5e5e5" paint-order="fill stroke markers" d=" M 1035 535 L 1035 32" stroke-linejoin="bevel" stroke-miterlimit="10"/></g><g><path fill="none" stroke="#e5e5e5" paint-order="fill stroke markers" d=" M 58 416 L 1220 416" stroke-linejoin="bevel" stroke-miterlimit="10"/><path fill="none" stroke="#e5e5e5" paint-order="fill stroke markers" d=" M 58 291 L 1220 291" stroke-linejoin="bevel" stroke-miterlimit="10"/><path fill="none" stroke="#e5e5e5" paint-order="fill stroke markers" d=" M 58 167 L 1220 167" stroke-linejoin="bevel" stroke-miterlimit="10"/><path fill="none" stroke="#e5e5e5" paint-order="fill stroke markers" d=" M 58 42 L 1220 42" stroke-linejoin="bevel" stroke-miterlimit="10"/></g><g><path fill="none" stroke="none"/><path fill="none" stroke="green" paint-order="fill stroke markers" d=" M 110.81818181818186 488.8069715775481 L 242.86363636363637 512.1363636363636" stroke-linejoin="bevel" stroke-miterlimit="10" stroke-width="2" stroke-opacity="0.5"/></g><g><path fill="none" stroke="none"/><path fill="green" stroke="green" paint-order="fill stroke markers" d=" M 114.81818181818186 488.8069715775481 A 4 4 0 1 1 114.81817981818202 488.80297157821474" fill-opacity="0.75" stroke-linejoin="bevel" stroke-miterlimit="10" stroke-width="2" stroke-opacity="0.75"/><path fill="green" stroke="green" paint-order="fill stroke markers" d=" M 246.86363636363637 512.1363636363636 A 4 4 0 1 1 246.86363436363655 512.1323636370303" fill-opacity="0.75" stroke-linejoin="bevel" stroke-miterlimit="10" stroke-width="2" stroke-opacity="0.75"/></g><g><path fill="none" stroke="none"/><path fill="none" stroke="red" paint-order="fill stroke markers" d=" M 110.81818181818186 347.4679069381365 L 242.86363636363637 449.5600780241467 L 374.90909090909093 484.90591565496567 L 506.95454545454544 498.189197033329 L 639 503.0515328331094 L 771.0454545454546 505.0666785036121" stroke-linejoin="bevel" stroke-miterlimit="10" stroke-width="2" stroke-opacity="0.5"/></g><g><path fill="none" stroke="none"/><path fill="red" stroke="red" paint-order="fill stroke markers" d=" M 114.81818181818186 347.4679069381365 A 4 4 0 1 1 114.81817981818202 347.4639069388031" fill-opacity="0.75" stroke-linejoin="bevel" stroke-miterlimit="10" stroke-width="2" stroke-opacity="0.75"/><path fill="red" stroke="red" paint-order="fill stroke markers" d=" M 246.86363636363637 449.5600780241467 A 4 4 0 1 1 246.86363436363655 449.55607802481336" fill-opacity="0.75" stroke-linejoin="bevel" stroke-miterlimit="10" stroke-width="2" stroke-opacity="0.75"/><path fill="red" stroke="red" paint-order="fill stroke markers" d=" M 378.90909090909093 484.90591565496567 A 4 4 0 1 1 378.9090889090911 484.9019156556323" fill-opacity="0.75" stroke-linejoin="bevel" stroke-miterlimit="10" stroke-width="2" stroke-opacity="0.75"/><path fill="red" stroke="red" paint-order="fill stroke markers" d=" M 510.95454545454544 498.189197033329 A 4 4 0 1 1 510.9545434545456 498.1851970339956" fill-opacity="0.75" stroke-linejoin="bevel" stroke-miterlimit="10" stroke-width="2" stroke-opacity="0.75"/><path fill="red" stroke="red" paint-order="fill stroke markers" d=" M 643 503.0515328331094 A 4 4 0 1 1 642.9999980000001 503.047532833776" fill-opacity="0.75" stroke-linejoin="bevel" stroke-miterlimit="10" stroke-width="2" stroke-opacity="0.75"/><path fill="red" stroke="red" paint-order="fill stroke markers" d=" M 775.0454545454546 505.0666785036121 A 4 4 0 1 1 775.0454525454547 505.0626785042787" fill-opacity="0.75" stroke-linejoin="bevel" stroke-miterlimit="10" stroke-width="2" stroke-opacity="0.75"/></g><g><path fill="none" stroke="none"/><path fill="none" stroke="orange" paint-order="fill stroke markers" d=" M 110.81818181818186 203.49663895676156 L 242.86363636363637 355.1822709416702 L 374.90909090909093 436.7356717644552 L 506.95454545454544 469.53731962029303 L 639 487.97742567846416 L 771.0454545454546 495.73707768460457 L 903.0909090909091 500.08170909936734 L 1035.1363636363635 502.1279736802299 L 1167.181818181818 503.3061254032216" stroke-linejoin="bevel" stroke-miterlimit="10" stroke-width="2" stroke-opacity="0.5"/></g><g><path fill="none" stroke="none"/><path fill="orange" stroke="orange" paint-order="fill stroke markers" d=" M 114.81818181818186 203.49663895676156 A 4 4 0 1 1 114.81817981818202 203.49263895742823" fill-opacity="0.75" stroke-linejoin="bevel" stroke-miterlimit="10" stroke-width="2" stroke-opacity="0.75"/><path fill="orange" stroke="orange" paint-order="fill stroke markers" d=" M 246.86363636363637 355.1822709416702 A 4 4 0 1 1 246.86363436363655 355.17827094233684" fill-opacity="0.75" stroke-linejoin="bevel" stroke-miterlimit="10" stroke-width="2" stroke-opacity="0.75"/><path fill="orange" stroke="orange" paint-order="fill stroke markers" d=" M 378.90909090909093 436.7356717644552 A 4 4 0 1 1 378.9090889090911 436.73167176512186" fill-opacity="0.75" stroke-linejoin="bevel" stroke-miterlimit="10" stroke-width="2" stroke-opacity="0.75"/><path fill="orange" stroke="orange" paint-order="fill stroke markers" d=" M 510.95454545454544 469.53731962029303 A 4 4 0 1 1 510.9545434545456 469.5333196209597" fill-opacity="0.75" stroke-linejoin="bevel" stroke-miterlimit="10" stroke-width="2" stroke-opacity="0.75"/><path fill="orange" stroke="orange" paint-order="fill stroke markers" d=" M 643 487.97742567846416 A 4 4 0 1 1 642.9999980000001 487.9734256791308" fill-opacity="0.75" stroke-linejoin="bevel" stroke-miterlimit="10" stroke-width="2" stroke-opacity="0.75"/><path fill="orange" stroke="orange" paint-order="fill stroke markers" d=" M 775.0454545454546 495.73707768460457 A 4 4 0 1 1 775.0454525454547 495.7330776852712" fill-opacity="0.75" stroke-linejoin="bevel" stroke-miterlimit="10" stroke-width="2" stroke-opacity="0.75"/><path fill="orange" stroke="orange" paint-order="fill stroke markers" d=" M 907.0909090909091 500.08170909936734 A 4 4 0 1 1 907.0909070909092 500.077709100034" fill-opacity="0.75" stroke-linejoin="bevel" stroke-miterlimit="10" stroke-width="2" stroke-opacity="0.75"/><path fill="orange" stroke="orange" paint-order="fill stroke markers" d=" M 1039.1363636363635 502.1279736802299 A 4 4 0 1 1 1039.1363616363637 502.12397368089654" fill-opacity="0.75" stroke-linejoin="bevel" stroke-miterlimit="10" stroke-width="2" stroke-opacity="0.75"/><path fill="orange" stroke="orange" paint-order="fill stroke markers" d=" M 1171.181818181818 503.3061254032216 A 4 4 0 1 1 1171.1818161818182 503.3021254038882" fill-opacity="0.75" stroke-linejoin="bevel" stroke-miterlimit="10" stroke-width="2" stroke-opacity="0.75"/></g><g><path fill="none" stroke="none"/><path fill="none" stroke="blue" paint-order="fill stroke markers" d=" M 110.81818181818186 54.863636363636374 L 242.86363636363637 251.8955054187968 L 374.90909090909093 374.38826892043653 L 506.95454545454544 429.970282200263 L 639 464.67882340607184 L 771.0454545454546 480.94917565510093 L 903.0909090909091 491.4179701632263 L 1035.1363636363635 496.164098345585 L 1167.181818181818 499.32600967132095" stroke-linejoin="bevel" stroke-miterlimit="10" stroke-width="2" stroke-opacity="0.5"/></g><g><path fill="none" stroke="none"/><path fill="blue" stroke="blue" paint-order="fill stroke markers" d=" M 114.81818181818186 54.863636363636374 A 4 4 0 1 1 114.81817981818202 54.859636364303036" fill-opacity="0.75" stroke-linejoin="bevel" stroke-miterlimit="10" stroke-width="2" stroke-opacity="0.75"/><path fill="blue" stroke="blue" paint-order="fill stroke markers" d=" M 246.86363636363637 251.8955054187968 A 4 4 0 1 1 246.86363436363655 251.89150541946347" fill-opacity="0.75" stroke-linejoin="bevel" stroke-miterlimit="10" stroke-width="2" stroke-opacity="0.75"/><path fill="blue" stroke="blue" paint-order="fill stroke markers" d=" M 378.90909090909093 374.38826892043653 A 4 4 0 1 1 378.9090889090911 374.38426892110317" fill-opacity="0.75" stroke-linejoin="bevel" stroke-miterlimit="10" stroke-width="2" stroke-opacity="0.75"/><path fill="blue" stroke="blue" paint-order="fill stroke markers" d=" M 510.95454545454544 429.970282200263 A 4 4 0 1 1 510.9545434545456 429.96628220092964" fill-opacity="0.75" stroke-linejoin="bevel" stroke-miterlimit="10" stroke-width="2" stroke-opacity="0.75"/><path fill="blue" stroke="blue" paint-order="fill stroke markers" d=" M 643 464.67882340607184 A 4 4 0 1 1 642.9999980000001 464.6748234067385" fill-opacity="0.75" stroke-linejoin="bevel" stroke-miterlimit="10" stroke-width="2" stroke-opacity="0.75"/><path fill="blue" stroke="blue" paint-order="fill stroke markers" d=" M 775.0454545454546 480.94917565510093 A 4 4 0 1 1 775.0454525454547 480.94517565576757" fill-opacity="0.75" stroke-linejoin="bevel" stroke-miterlimit="10" stroke-width="2" stroke-opacity="0.75"/><path fill="blue" stroke="blue" paint-order="fill stroke markers" d=" M 907.0909090909091 491.4179701632263 A 4 4 0 1 1 907.0909070909092 491.41397016389294" fill-opacity="0.75" stroke-linejoin="bevel" stroke-miterlimit="10" stroke-width="2" stroke-opacity="0.75"/><path fill="blue" stroke="blue" paint-order="fill stroke markers" d=" M 1039.1363636363635 496.164098345585 A 4 4 0 1 1 1039.1363616363637 496.16009834625163" fill-opacity="0.75" stroke-linejoin="bevel" stroke-miterlimit="10" stroke-width="2" stroke-opacity="0.75"/><path fill="blue" stroke="blue" paint-order="fill stroke markers" d=" M 1171.181818181818 499.32600967132095 A 4 4 0 1 1 1171.1818161818182 499.3220096719876" fill-opacity="0.75" stroke-linejoin="bevel" stroke-miterlimit="10" stroke-width="2" stroke-opacity="0.75"/></g></g></g><g clip-path="url(#nkpKncPNqSne)"><g><g/><g><path fill="#ffffff" stroke="#e5e5e5" paint-order="fill stroke markers" d=" M 986 42 L 1210 42 L 1210 151 L 986 151 L 986 42 Z" fill-opacity="0.95" stroke-linejoin="bevel" stroke-miterlimit="10" stroke-opacity="0.5"/><text fill="#444444" stroke="none" font-family="helvetica" font-size="12pt" font-style="normal" font-weight="normal" text-decoration="normal" x="1021" y="62" text-anchor="start" dominant-baseline="central">Error Loss using 位 = 100</text><path fill="green" stroke="green" paint-order="fill stroke markers" d=" M 1010 62 A 4 4 0 1 1 1009.9999980000001 61.99600000066666" fill-opacity="0.75" stroke-linejoin="bevel" stroke-miterlimit="10" stroke-width="2" stroke-opacity="0.75"/><text fill="#444444" stroke="none" font-family="helvetica" font-size="12pt" font-style="normal" font-weight="normal" text-decoration="normal" x="1021" y="85" text-anchor="start" dominant-baseline="central">Error Loss using 位 = 400</text><path fill="red" stroke="red" paint-order="fill stroke markers" d=" M 1010 85 A 4 4 0 1 1 1009.9999980000001 84.99600000066667" fill-opacity="0.75" stroke-linejoin="bevel" stroke-miterlimit="10" stroke-width="2" stroke-opacity="0.75"/><text fill="#444444" stroke="none" font-family="helvetica" font-size="12pt" font-style="normal" font-weight="normal" text-decoration="normal" x="1021" y="108" text-anchor="start" dominant-baseline="central">Error Loss using 位 = 700</text><path fill="orange" stroke="orange" paint-order="fill stroke markers" d=" M 1010 108 A 4 4 0 1 1 1009.9999980000001 107.99600000066667" fill-opacity="0.75" stroke-linejoin="bevel" stroke-miterlimit="10" stroke-width="2" stroke-opacity="0.75"/><text fill="#444444" stroke="none" font-family="helvetica" font-size="12pt" font-style="normal" font-weight="normal" text-decoration="normal" x="1021" y="131" text-anchor="start" dominant-baseline="central">Error Loss using 位 = 1000</text><path fill="blue" stroke="blue" paint-order="fill stroke markers" d=" M 1010 131 A 4 4 0 1 1 1009.9999980000001 130.99600000066667" fill-opacity="0.75" stroke-linejoin="bevel" stroke-miterlimit="10" stroke-width="2" stroke-opacity="0.75"/></g></g></g><g><g fill="#444444"><path fill="none" stroke="black" paint-order="fill stroke markers" d=" M 58 535 L 1220 535" stroke-linejoin="bevel" stroke-miterlimit="10"/><path fill="none" stroke="black" paint-order="fill stroke markers" d=" M 243 541 L 243 533" stroke-linejoin="bevel" stroke-miterlimit="10"/><path fill="none" stroke="black" paint-order="fill stroke markers" d=" M 507 541 L 507 533" stroke-linejoin="bevel" stroke-miterlimit="10"/><path fill="none" stroke="black" paint-order="fill stroke markers" d=" M 771 541 L 771 533" stroke-linejoin="bevel" stroke-miterlimit="10"/><path fill="none" stroke="black" paint-order="fill stroke markers" d=" M 1035 541 L 1035 533" stroke-linejoin="bevel" stroke-miterlimit="10"/><path fill="none" stroke="black" paint-order="fill stroke markers" d=" M 190 539 L 190 535" stroke-linejoin="bevel" stroke-miterlimit="10"/><path fill="none" stroke="black" paint-order="fill stroke markers" d=" M 137 539 L 137 535" stroke-linejoin="bevel" stroke-miterlimit="10"/><path fill="none" stroke="black" paint-order="fill stroke markers" d=" M 84 539 L 84 535" stroke-linejoin="bevel" stroke-miterlimit="10"/><path fill="none" stroke="black" paint-order="fill stroke markers" d=" M 243 539 L 243 535" stroke-linejoin="bevel" stroke-miterlimit="10"/><path fill="none" stroke="black" paint-order="fill stroke markers" d=" M 296 539 L 296 535" stroke-linejoin="bevel" stroke-miterlimit="10"/><path fill="none" stroke="black" paint-order="fill stroke markers" d=" M 349 539 L 349 535" stroke-linejoin="bevel" stroke-miterlimit="10"/><path fill="none" stroke="black" paint-order="fill stroke markers" d=" M 401 539 L 401 535" stroke-linejoin="bevel" stroke-miterlimit="10"/><path fill="none" stroke="black" paint-order="fill stroke markers" d=" M 454 539 L 454 535" stroke-linejoin="bevel" stroke-miterlimit="10"/><path fill="none" stroke="black" paint-order="fill stroke markers" d=" M 507 539 L 507 535" stroke-linejoin="bevel" stroke-miterlimit="10"/><path fill="none" stroke="black" paint-order="fill stroke markers" d=" M 560 539 L 560 535" stroke-linejoin="bevel" stroke-miterlimit="10"/><path fill="none" stroke="black" paint-order="fill stroke markers" d=" M 613 539 L 613 535" stroke-linejoin="bevel" stroke-miterlimit="10"/><path fill="none" stroke="black" paint-order="fill stroke markers" d=" M 665 539 L 665 535" stroke-linejoin="bevel" stroke-miterlimit="10"/><path fill="none" stroke="black" paint-order="fill stroke markers" d=" M 718 539 L 718 535" stroke-linejoin="bevel" stroke-miterlimit="10"/><path fill="none" stroke="black" paint-order="fill stroke markers" d=" M 771 539 L 771 535" stroke-linejoin="bevel" stroke-miterlimit="10"/><path fill="none" stroke="black" paint-order="fill stroke markers" d=" M 824 539 L 824 535" stroke-linejoin="bevel" stroke-miterlimit="10"/><path fill="none" stroke="black" paint-order="fill stroke markers" d=" M 877 539 L 877 535" stroke-linejoin="bevel" stroke-miterlimit="10"/><path fill="none" stroke="black" paint-order="fill stroke markers" d=" M 930 539 L 930 535" stroke-linejoin="bevel" stroke-miterlimit="10"/><path fill="none" stroke="black" paint-order="fill stroke markers" d=" M 982 539 L 982 535" stroke-linejoin="bevel" stroke-miterlimit="10"/><path fill="none" stroke="black" paint-order="fill stroke markers" d=" M 1035 539 L 1035 535" stroke-linejoin="bevel" stroke-miterlimit="10"/><path fill="none" stroke="black" paint-order="fill stroke markers" d=" M 1088 539 L 1088 535" stroke-linejoin="bevel" stroke-miterlimit="10"/><path fill="none" stroke="black" paint-order="fill stroke markers" d=" M 1141 539 L 1141 535" stroke-linejoin="bevel" stroke-miterlimit="10"/><path fill="" stroke="black" paint-order="fill stroke markers" d=" M 1194 539 L 1194 535" stroke-linejoin="bevel" stroke-miterlimit="10"/><g transform="translate(243,556) rotate(0,0,0)"><text fill="" stroke="none" font-family="helvetica" font-size="11pt" font-style="normal" font-weight="normal" text-decoration="normal" x="0" y="0" text-anchor="middle" dominant-baseline="hanging">2</text><g transform="rotate(0,0,0) translate(-243,-556) translate(507,556) rotate(0,0,0)"><text fill="" stroke="none" font-family="helvetica" font-size="11pt" font-style="normal" font-weight="normal" text-decoration="normal" x="0" y="0" text-anchor="middle" dominant-baseline="hanging">4</text><g transform="rotate(0,0,0) translate(-507,-556) translate(771,556) rotate(0,0,0)"><text fill="" stroke="none" font-family="helvetica" font-size="11pt" font-style="normal" font-weight="normal" text-decoration="normal" x="0" y="0" text-anchor="middle" dominant-baseline="hanging">6</text><g transform="rotate(0,0,0) translate(-771,-556) translate(1035,556) rotate(0,0,0)"><text fill="" stroke="none" font-family="helvetica" font-size="11pt" font-style="normal" font-weight="normal" text-decoration="normal" x="0" y="0" text-anchor="middle" dominant-baseline="hanging">8</text><g transform="rotate(0,0,0) translate(-1035,-556) translate(639,580) rotate(0,0,0)"><text fill="" stroke="none" font-family="helvetica" font-size="12pt" font-style="italic" font-weight="normal" text-decoration="normal" x="0" y="0" text-anchor="middle" dominant-baseline="hanging">Epochs</text><g transform="rotate(0,0,0) translate(-639,-580)"/></g></g></g></g></g></g><g fill="#444444"><path fill="none" stroke="black" paint-order="fill stroke markers" d=" M 58 535 L 58 32" stroke-linejoin="bevel" stroke-miterlimit="10"/><path fill="none" stroke="black" paint-order="fill stroke markers" d=" M 52 416 L 60 416" stroke-linejoin="bevel" stroke-miterlimit="10"/><path fill="none" stroke="black" paint-order="fill stroke markers" d=" M 52 291 L 60 291" stroke-linejoin="bevel" stroke-miterlimit="10"/><path fill="none" stroke="black" paint-order="fill stroke markers" d=" M 52 167 L 60 167" stroke-linejoin="bevel" stroke-miterlimit="10"/><path fill="none" stroke="black" paint-order="fill stroke markers" d=" M 52 42 L 60 42" stroke-linejoin="bevel" stroke-miterlimit="10"/><path fill="none" stroke="black" paint-order="fill stroke markers" d=" M 54 441 L 58 441" stroke-linejoin="bevel" stroke-miterlimit="10"/><path fill="none" stroke="black" paint-order="fill stroke markers" d=" M 54 466 L 58 466" stroke-linejoin="bevel" stroke-miterlimit="10"/><path fill="none" stroke="black" paint-order="fill stroke markers" d=" M 54 491 L 58 491" stroke-linejoin="bevel" stroke-miterlimit="10"/><path fill="none" stroke="black" paint-order="fill stroke markers" d=" M 54 516 L 58 516" stroke-linejoin="bevel" stroke-miterlimit="10"/><path fill="none" stroke="black" paint-order="fill stroke markers" d=" M 54 416 L 58 416" stroke-linejoin="bevel" stroke-miterlimit="10"/><path fill="none" stroke="black" paint-order="fill stroke markers" d=" M 54 391 L 58 391" stroke-linejoin="bevel" stroke-miterlimit="10"/><path fill="none" stroke="black" paint-order="fill stroke markers" d=" M 54 366 L 58 366" stroke-linejoin="bevel" stroke-miterlimit="10"/><path fill="none" stroke="black" paint-order="fill stroke markers" d=" M 54 341 L 58 341" stroke-linejoin="bevel" stroke-miterlimit="10"/><path fill="none" stroke="black" paint-order="fill stroke markers" d=" M 54 316 L 58 316" stroke-linejoin="bevel" stroke-miterlimit="10"/><path fill="none" stroke="black" paint-order="fill stroke markers" d=" M 54 291 L 58 291" stroke-linejoin="bevel" stroke-miterlimit="10"/><path fill="none" stroke="black" paint-order="fill stroke markers" d=" M 54 266 L 58 266" stroke-linejoin="bevel" stroke-miterlimit="10"/><path fill="none" stroke="black" paint-order="fill stroke markers" d=" M 54 241 L 58 241" stroke-linejoin="bevel" stroke-miterlimit="10"/><path fill="none" stroke="black" paint-order="fill stroke markers" d=" M 54 216 L 58 216" stroke-linejoin="bevel" stroke-miterlimit="10"/><path fill="none" stroke="black" paint-order="fill stroke markers" d=" M 54 192 L 58 192" stroke-linejoin="bevel" stroke-miterlimit="10"/><path fill="none" stroke="black" paint-order="fill stroke markers" d=" M 54 167 L 58 167" stroke-linejoin="bevel" stroke-miterlimit="10"/><path fill="none" stroke="black" paint-order="fill stroke markers" d=" M 54 142 L 58 142" stroke-linejoin="bevel" stroke-miterlimit="10"/><path fill="none" stroke="black" paint-order="fill stroke markers" d=" M 54 117 L 58 117" stroke-linejoin="bevel" stroke-miterlimit="10"/><path fill="none" stroke="black" paint-order="fill stroke markers" d=" M 54 92 L 58 92" stroke-linejoin="bevel" stroke-miterlimit="10"/><path fill="none" stroke="black" paint-order="fill stroke markers" d=" M 54 67 L 58 67" stroke-linejoin="bevel" stroke-miterlimit="10"/><path fill="" stroke="black" paint-order="fill stroke markers" d=" M 54 42 L 58 42" stroke-linejoin="bevel" stroke-miterlimit="10"/><g transform="translate(47,416) rotate(0,0,0)"><text fill="" stroke="none" font-family="helvetica" font-size="11pt" font-style="normal" font-weight="normal" text-decoration="normal" x="0" y="0" text-anchor="end" dominant-baseline="central">0.2</text><g transform="rotate(0,0,0) translate(-47,-416) translate(47,291) rotate(0,0,0)"><text fill="" stroke="none" font-family="helvetica" font-size="11pt" font-style="normal" font-weight="normal" text-decoration="normal" x="0" y="0" text-anchor="end" dominant-baseline="central">0.4</text><g transform="rotate(0,0,0) translate(-47,-291) translate(47,167) rotate(0,0,0)"><text fill="" stroke="none" font-family="helvetica" font-size="11pt" font-style="normal" font-weight="normal" text-decoration="normal" x="0" y="0" text-anchor="end" dominant-baseline="central">0.6</text><g transform="rotate(0,0,0) translate(-47,-167) translate(47,42) rotate(0,0,0)"><text fill="" stroke="none" font-family="helvetica" font-size="11pt" font-style="normal" font-weight="normal" text-decoration="normal" x="0" y="0" text-anchor="end" dominant-baseline="central">0.8</text><g transform="rotate(0,0,0) translate(-47,-42) translate(20,284) rotate(-90,0,0)"><text fill="" stroke="none" font-family="helvetica" font-size="12pt" font-style="italic" font-weight="normal" text-decoration="normal" x="0" y="0" text-anchor="middle" dominant-baseline="alphabetic">Error Loss</text><g transform="rotate(90,0,0) translate(-20,-284)"/></g></g></g></g></g></g><g fill="#444444"><path fill="" stroke="none" d=""/><g transform="translate(58,27)"><path fill="none" stroke="none"/><text fill="" stroke="none" font-family="helvetica" font-size="12pt" font-style="normal" font-weight="bold" text-decoration="normal" x="0" y="0" text-anchor="start" dominant-baseline="text-after-edge">Error (Loss) Function for TRAIN data points</text></g></g></g></g></g></svg>