<?xml version="1.0" encoding="utf-8" standalone="no"?>
<!DOCTYPE svg PUBLIC "-//W3C//DTD SVG 1.1//EN"
  "http://www.w3.org/Graphics/SVG/1.1/DTD/svg11.dtd">
<!-- Created with matplotlib (https://matplotlib.org/) -->
<svg height="576pt" version="1.1" viewBox="0 0 1008 576" width="1008pt" xmlns="http://www.w3.org/2000/svg" xmlns:xlink="http://www.w3.org/1999/xlink">
 <defs>
  <style type="text/css">
*{stroke-linecap:butt;stroke-linejoin:round;}
  </style>
 </defs>
 <g id="figure_1">
  <g id="patch_1">
   <path d="M 0 576 
L 1008 576 
L 1008 0 
L 0 0 
z
" style="fill:#ffffff;"/>
  </g>
  <g id="axes_1">
   <g id="patch_2">
    <path d="M 126 504 
L 907.2 504 
L 907.2 69.12 
L 126 69.12 
z
" style="fill:#ffffff;"/>
   </g>
   <g id="matplotlib.axis_1">
    <g id="xtick_1">
     <g id="line2d_1">
      <path clip-path="url(#p98ec5535be)" d="M 161.509091 504 
L 161.509091 69.12 
" style="fill:none;stroke:#cccccc;stroke-linecap:round;stroke-width:0.8;"/>
     </g>
     <g id="line2d_2"/>
     <g id="text_1">
      <!-- 0 -->
      <defs>
       <path d="M 4.15625 35.296875 
Q 4.15625 48 6.765625 55.734375 
Q 9.375 63.484375 14.515625 67.671875 
Q 19.671875 71.875 27.484375 71.875 
Q 33.25 71.875 37.59375 69.546875 
Q 41.9375 67.234375 44.765625 62.859375 
Q 47.609375 58.5 49.21875 52.21875 
Q 50.828125 45.953125 50.828125 35.296875 
Q 50.828125 22.703125 48.234375 14.96875 
Q 45.65625 7.234375 40.5 3 
Q 35.359375 -1.21875 27.484375 -1.21875 
Q 17.140625 -1.21875 11.234375 6.203125 
Q 4.15625 15.140625 4.15625 35.296875 
z
M 13.1875 35.296875 
Q 13.1875 17.671875 17.3125 11.828125 
Q 21.4375 6 27.484375 6 
Q 33.546875 6 37.671875 11.859375 
Q 41.796875 17.71875 41.796875 35.296875 
Q 41.796875 52.984375 37.671875 58.78125 
Q 33.546875 64.59375 27.390625 64.59375 
Q 21.34375 64.59375 17.71875 59.46875 
Q 13.1875 52.9375 13.1875 35.296875 
z
" id="ArialMT-48"/>
      </defs>
      <g style="fill:#262626;" transform="translate(158.728622 514.657812)scale(0.1 -0.1)">
       <use xlink:href="#ArialMT-48"/>
      </g>
     </g>
    </g>
    <g id="xtick_2">
     <g id="line2d_3">
      <path clip-path="url(#p98ec5535be)" d="M 250.727912 504 
L 250.727912 69.12 
" style="fill:none;stroke:#cccccc;stroke-linecap:round;stroke-width:0.8;"/>
     </g>
     <g id="line2d_4"/>
     <g id="text_2">
      <!-- 25 -->
      <defs>
       <path d="M 50.34375 8.453125 
L 50.34375 0 
L 3.03125 0 
Q 2.9375 3.171875 4.046875 6.109375 
Q 5.859375 10.9375 9.828125 15.625 
Q 13.8125 20.3125 21.34375 26.46875 
Q 33.015625 36.03125 37.109375 41.625 
Q 41.21875 47.21875 41.21875 52.203125 
Q 41.21875 57.421875 37.46875 61 
Q 33.734375 64.59375 27.734375 64.59375 
Q 21.390625 64.59375 17.578125 60.78125 
Q 13.765625 56.984375 13.71875 50.25 
L 4.6875 51.171875 
Q 5.609375 61.28125 11.65625 66.578125 
Q 17.71875 71.875 27.9375 71.875 
Q 38.234375 71.875 44.234375 66.15625 
Q 50.25 60.453125 50.25 52 
Q 50.25 47.703125 48.484375 43.546875 
Q 46.734375 39.40625 42.65625 34.8125 
Q 38.578125 30.21875 29.109375 22.21875 
Q 21.1875 15.578125 18.9375 13.203125 
Q 16.703125 10.84375 15.234375 8.453125 
z
" id="ArialMT-50"/>
       <path d="M 4.15625 18.75 
L 13.375 19.53125 
Q 14.40625 12.796875 18.140625 9.390625 
Q 21.875 6 27.15625 6 
Q 33.5 6 37.890625 10.78125 
Q 42.28125 15.578125 42.28125 23.484375 
Q 42.28125 31 38.0625 35.34375 
Q 33.84375 39.703125 27 39.703125 
Q 22.75 39.703125 19.328125 37.765625 
Q 15.921875 35.84375 13.96875 32.765625 
L 5.71875 33.84375 
L 12.640625 70.609375 
L 48.25 70.609375 
L 48.25 62.203125 
L 19.671875 62.203125 
L 15.828125 42.96875 
Q 22.265625 47.46875 29.34375 47.46875 
Q 38.71875 47.46875 45.15625 40.96875 
Q 51.609375 34.46875 51.609375 24.265625 
Q 51.609375 14.546875 45.953125 7.46875 
Q 39.0625 -1.21875 27.15625 -1.21875 
Q 17.390625 -1.21875 11.203125 4.25 
Q 5.03125 9.71875 4.15625 18.75 
z
" id="ArialMT-53"/>
      </defs>
      <g style="fill:#262626;" transform="translate(245.166975 514.657812)scale(0.1 -0.1)">
       <use xlink:href="#ArialMT-50"/>
       <use x="55.615234" xlink:href="#ArialMT-53"/>
      </g>
     </g>
    </g>
    <g id="xtick_3">
     <g id="line2d_5">
      <path clip-path="url(#p98ec5535be)" d="M 339.946734 504 
L 339.946734 69.12 
" style="fill:none;stroke:#cccccc;stroke-linecap:round;stroke-width:0.8;"/>
     </g>
     <g id="line2d_6"/>
     <g id="text_3">
      <!-- 50 -->
      <g style="fill:#262626;" transform="translate(334.385796 514.657812)scale(0.1 -0.1)">
       <use xlink:href="#ArialMT-53"/>
       <use x="55.615234" xlink:href="#ArialMT-48"/>
      </g>
     </g>
    </g>
    <g id="xtick_4">
     <g id="line2d_7">
      <path clip-path="url(#p98ec5535be)" d="M 429.165555 504 
L 429.165555 69.12 
" style="fill:none;stroke:#cccccc;stroke-linecap:round;stroke-width:0.8;"/>
     </g>
     <g id="line2d_8"/>
     <g id="text_4">
      <!-- 75 -->
      <defs>
       <path d="M 4.734375 62.203125 
L 4.734375 70.65625 
L 51.078125 70.65625 
L 51.078125 63.8125 
Q 44.234375 56.546875 37.515625 44.484375 
Q 30.8125 32.421875 27.15625 19.671875 
Q 24.515625 10.6875 23.78125 0 
L 14.75 0 
Q 14.890625 8.453125 18.0625 20.40625 
Q 21.234375 32.375 27.171875 43.484375 
Q 33.109375 54.59375 39.796875 62.203125 
z
" id="ArialMT-55"/>
      </defs>
      <g style="fill:#262626;" transform="translate(423.604618 514.657812)scale(0.1 -0.1)">
       <use xlink:href="#ArialMT-55"/>
       <use x="55.615234" xlink:href="#ArialMT-53"/>
      </g>
     </g>
    </g>
    <g id="xtick_5">
     <g id="line2d_9">
      <path clip-path="url(#p98ec5535be)" d="M 518.384376 504 
L 518.384376 69.12 
" style="fill:none;stroke:#cccccc;stroke-linecap:round;stroke-width:0.8;"/>
     </g>
     <g id="line2d_10"/>
     <g id="text_5">
      <!-- 100 -->
      <defs>
       <path d="M 37.25 0 
L 28.46875 0 
L 28.46875 56 
Q 25.296875 52.984375 20.140625 49.953125 
Q 14.984375 46.921875 10.890625 45.40625 
L 10.890625 53.90625 
Q 18.265625 57.375 23.78125 62.296875 
Q 29.296875 67.234375 31.59375 71.875 
L 37.25 71.875 
z
" id="ArialMT-49"/>
      </defs>
      <g style="fill:#262626;" transform="translate(510.04297 514.657812)scale(0.1 -0.1)">
       <use xlink:href="#ArialMT-49"/>
       <use x="55.615234" xlink:href="#ArialMT-48"/>
       <use x="111.230469" xlink:href="#ArialMT-48"/>
      </g>
     </g>
    </g>
    <g id="xtick_6">
     <g id="line2d_11">
      <path clip-path="url(#p98ec5535be)" d="M 607.603198 504 
L 607.603198 69.12 
" style="fill:none;stroke:#cccccc;stroke-linecap:round;stroke-width:0.8;"/>
     </g>
     <g id="line2d_12"/>
     <g id="text_6">
      <!-- 125 -->
      <g style="fill:#262626;" transform="translate(599.261792 514.657812)scale(0.1 -0.1)">
       <use xlink:href="#ArialMT-49"/>
       <use x="55.615234" xlink:href="#ArialMT-50"/>
       <use x="111.230469" xlink:href="#ArialMT-53"/>
      </g>
     </g>
    </g>
    <g id="xtick_7">
     <g id="line2d_13">
      <path clip-path="url(#p98ec5535be)" d="M 696.822019 504 
L 696.822019 69.12 
" style="fill:none;stroke:#cccccc;stroke-linecap:round;stroke-width:0.8;"/>
     </g>
     <g id="line2d_14"/>
     <g id="text_7">
      <!-- 150 -->
      <g style="fill:#262626;" transform="translate(688.480613 514.657812)scale(0.1 -0.1)">
       <use xlink:href="#ArialMT-49"/>
       <use x="55.615234" xlink:href="#ArialMT-53"/>
       <use x="111.230469" xlink:href="#ArialMT-48"/>
      </g>
     </g>
    </g>
    <g id="xtick_8">
     <g id="line2d_15">
      <path clip-path="url(#p98ec5535be)" d="M 786.040841 504 
L 786.040841 69.12 
" style="fill:none;stroke:#cccccc;stroke-linecap:round;stroke-width:0.8;"/>
     </g>
     <g id="line2d_16"/>
     <g id="text_8">
      <!-- 175 -->
      <g style="fill:#262626;" transform="translate(777.699434 514.657812)scale(0.1 -0.1)">
       <use xlink:href="#ArialMT-49"/>
       <use x="55.615234" xlink:href="#ArialMT-55"/>
       <use x="111.230469" xlink:href="#ArialMT-53"/>
      </g>
     </g>
    </g>
    <g id="xtick_9">
     <g id="line2d_17">
      <path clip-path="url(#p98ec5535be)" d="M 875.259662 504 
L 875.259662 69.12 
" style="fill:none;stroke:#cccccc;stroke-linecap:round;stroke-width:0.8;"/>
     </g>
     <g id="line2d_18"/>
     <g id="text_9">
      <!-- 200 -->
      <g style="fill:#262626;" transform="translate(866.918256 514.657812)scale(0.1 -0.1)">
       <use xlink:href="#ArialMT-50"/>
       <use x="55.615234" xlink:href="#ArialMT-48"/>
       <use x="111.230469" xlink:href="#ArialMT-48"/>
      </g>
     </g>
    </g>
    <g id="text_10">
     <!-- Epochs -->
     <defs>
      <path d="M 7.90625 0 
L 7.90625 71.578125 
L 59.671875 71.578125 
L 59.671875 63.140625 
L 17.390625 63.140625 
L 17.390625 41.21875 
L 56.984375 41.21875 
L 56.984375 32.8125 
L 17.390625 32.8125 
L 17.390625 8.453125 
L 61.328125 8.453125 
L 61.328125 0 
z
" id="ArialMT-69"/>
      <path d="M 6.59375 -19.875 
L 6.59375 51.859375 
L 14.59375 51.859375 
L 14.59375 45.125 
Q 17.4375 49.078125 21 51.046875 
Q 24.5625 53.03125 29.640625 53.03125 
Q 36.28125 53.03125 41.359375 49.609375 
Q 46.4375 46.1875 49.015625 39.953125 
Q 51.609375 33.734375 51.609375 26.3125 
Q 51.609375 18.359375 48.75 11.984375 
Q 45.90625 5.609375 40.453125 2.21875 
Q 35.015625 -1.171875 29 -1.171875 
Q 24.609375 -1.171875 21.109375 0.6875 
Q 17.625 2.546875 15.375 5.375 
L 15.375 -19.875 
z
M 14.546875 25.640625 
Q 14.546875 15.625 18.59375 10.84375 
Q 22.65625 6.0625 28.421875 6.0625 
Q 34.28125 6.0625 38.453125 11.015625 
Q 42.625 15.96875 42.625 26.375 
Q 42.625 36.28125 38.546875 41.203125 
Q 34.46875 46.140625 28.8125 46.140625 
Q 23.1875 46.140625 18.859375 40.890625 
Q 14.546875 35.640625 14.546875 25.640625 
z
" id="ArialMT-112"/>
      <path d="M 3.328125 25.921875 
Q 3.328125 40.328125 11.328125 47.265625 
Q 18.015625 53.03125 27.640625 53.03125 
Q 38.328125 53.03125 45.109375 46.015625 
Q 51.90625 39.015625 51.90625 26.65625 
Q 51.90625 16.65625 48.90625 10.90625 
Q 45.90625 5.171875 40.15625 2 
Q 34.421875 -1.171875 27.640625 -1.171875 
Q 16.75 -1.171875 10.03125 5.8125 
Q 3.328125 12.796875 3.328125 25.921875 
z
M 12.359375 25.921875 
Q 12.359375 15.96875 16.703125 11.015625 
Q 21.046875 6.0625 27.640625 6.0625 
Q 34.1875 6.0625 38.53125 11.03125 
Q 42.875 16.015625 42.875 26.21875 
Q 42.875 35.84375 38.5 40.796875 
Q 34.125 45.75 27.640625 45.75 
Q 21.046875 45.75 16.703125 40.8125 
Q 12.359375 35.890625 12.359375 25.921875 
z
" id="ArialMT-111"/>
      <path d="M 40.4375 19 
L 49.078125 17.875 
Q 47.65625 8.9375 41.8125 3.875 
Q 35.984375 -1.171875 27.484375 -1.171875 
Q 16.84375 -1.171875 10.375 5.78125 
Q 3.90625 12.75 3.90625 25.734375 
Q 3.90625 34.125 6.6875 40.421875 
Q 9.46875 46.734375 15.15625 49.875 
Q 20.84375 53.03125 27.546875 53.03125 
Q 35.984375 53.03125 41.359375 48.75 
Q 46.734375 44.484375 48.25 36.625 
L 39.703125 35.296875 
Q 38.484375 40.53125 35.375 43.15625 
Q 32.28125 45.796875 27.875 45.796875 
Q 21.234375 45.796875 17.078125 41.03125 
Q 12.9375 36.28125 12.9375 25.984375 
Q 12.9375 15.53125 16.9375 10.796875 
Q 20.953125 6.0625 27.390625 6.0625 
Q 32.5625 6.0625 36.03125 9.234375 
Q 39.5 12.40625 40.4375 19 
z
" id="ArialMT-99"/>
      <path d="M 6.59375 0 
L 6.59375 71.578125 
L 15.375 71.578125 
L 15.375 45.90625 
Q 21.53125 53.03125 30.90625 53.03125 
Q 36.671875 53.03125 40.921875 50.75 
Q 45.171875 48.484375 47 44.484375 
Q 48.828125 40.484375 48.828125 32.859375 
L 48.828125 0 
L 40.046875 0 
L 40.046875 32.859375 
Q 40.046875 39.453125 37.1875 42.453125 
Q 34.328125 45.453125 29.109375 45.453125 
Q 25.203125 45.453125 21.75 43.421875 
Q 18.3125 41.40625 16.84375 37.9375 
Q 15.375 34.46875 15.375 28.375 
L 15.375 0 
z
" id="ArialMT-104"/>
      <path d="M 3.078125 15.484375 
L 11.765625 16.84375 
Q 12.5 11.625 15.84375 8.84375 
Q 19.1875 6.0625 25.203125 6.0625 
Q 31.25 6.0625 34.171875 8.515625 
Q 37.109375 10.984375 37.109375 14.3125 
Q 37.109375 17.28125 34.515625 19 
Q 32.71875 20.171875 25.53125 21.96875 
Q 15.875 24.421875 12.140625 26.203125 
Q 8.40625 27.984375 6.46875 31.125 
Q 4.546875 34.28125 4.546875 38.09375 
Q 4.546875 41.546875 6.125 44.5 
Q 7.71875 47.46875 10.453125 49.421875 
Q 12.5 50.921875 16.03125 51.96875 
Q 19.578125 53.03125 23.640625 53.03125 
Q 29.734375 53.03125 34.34375 51.265625 
Q 38.96875 49.515625 41.15625 46.5 
Q 43.359375 43.5 44.1875 38.484375 
L 35.59375 37.3125 
Q 35.015625 41.3125 32.203125 43.546875 
Q 29.390625 45.796875 24.265625 45.796875 
Q 18.21875 45.796875 15.625 43.796875 
Q 13.03125 41.796875 13.03125 39.109375 
Q 13.03125 37.40625 14.109375 36.03125 
Q 15.1875 34.625 17.484375 33.6875 
Q 18.796875 33.203125 25.25 31.453125 
Q 34.578125 28.953125 38.25 27.359375 
Q 41.9375 25.78125 44.03125 22.75 
Q 46.140625 19.734375 46.140625 15.234375 
Q 46.140625 10.84375 43.578125 6.953125 
Q 41.015625 3.078125 36.171875 0.953125 
Q 31.34375 -1.171875 25.25 -1.171875 
Q 15.140625 -1.171875 9.84375 3.03125 
Q 4.546875 7.234375 3.078125 15.484375 
z
" id="ArialMT-115"/>
     </defs>
     <g style="fill:#262626;" transform="translate(499.923438 527.803125)scale(0.1 -0.1)">
      <use xlink:href="#ArialMT-69"/>
      <use x="66.699219" xlink:href="#ArialMT-112"/>
      <use x="122.314453" xlink:href="#ArialMT-111"/>
      <use x="177.929688" xlink:href="#ArialMT-99"/>
      <use x="227.929688" xlink:href="#ArialMT-104"/>
      <use x="283.544922" xlink:href="#ArialMT-115"/>
     </g>
    </g>
   </g>
   <g id="matplotlib.axis_2">
    <g id="ytick_1">
     <g id="line2d_19">
      <path clip-path="url(#p98ec5535be)" d="M 126 489.563135 
L 907.2 489.563135 
" style="fill:none;stroke:#cccccc;stroke-linecap:round;stroke-width:0.8;"/>
     </g>
     <g id="line2d_20"/>
     <g id="text_11">
      <!-- 0.0 -->
      <defs>
       <path d="M 9.078125 0 
L 9.078125 10.015625 
L 19.09375 10.015625 
L 19.09375 0 
z
" id="ArialMT-46"/>
      </defs>
      <g style="fill:#262626;" transform="translate(108.6 493.142041)scale(0.1 -0.1)">
       <use xlink:href="#ArialMT-48"/>
       <use x="55.615234" xlink:href="#ArialMT-46"/>
       <use x="83.398438" xlink:href="#ArialMT-48"/>
      </g>
     </g>
    </g>
    <g id="ytick_2">
     <g id="line2d_21">
      <path clip-path="url(#p98ec5535be)" d="M 126 435.401966 
L 907.2 435.401966 
" style="fill:none;stroke:#cccccc;stroke-linecap:round;stroke-width:0.8;"/>
     </g>
     <g id="line2d_22"/>
     <g id="text_12">
      <!-- 0.1 -->
      <g style="fill:#262626;" transform="translate(108.6 438.980873)scale(0.1 -0.1)">
       <use xlink:href="#ArialMT-48"/>
       <use x="55.615234" xlink:href="#ArialMT-46"/>
       <use x="83.398438" xlink:href="#ArialMT-49"/>
      </g>
     </g>
    </g>
    <g id="ytick_3">
     <g id="line2d_23">
      <path clip-path="url(#p98ec5535be)" d="M 126 381.240798 
L 907.2 381.240798 
" style="fill:none;stroke:#cccccc;stroke-linecap:round;stroke-width:0.8;"/>
     </g>
     <g id="line2d_24"/>
     <g id="text_13">
      <!-- 0.2 -->
      <g style="fill:#262626;" transform="translate(108.6 384.819704)scale(0.1 -0.1)">
       <use xlink:href="#ArialMT-48"/>
       <use x="55.615234" xlink:href="#ArialMT-46"/>
       <use x="83.398438" xlink:href="#ArialMT-50"/>
      </g>
     </g>
    </g>
    <g id="ytick_4">
     <g id="line2d_25">
      <path clip-path="url(#p98ec5535be)" d="M 126 327.07963 
L 907.2 327.07963 
" style="fill:none;stroke:#cccccc;stroke-linecap:round;stroke-width:0.8;"/>
     </g>
     <g id="line2d_26"/>
     <g id="text_14">
      <!-- 0.3 -->
      <defs>
       <path d="M 4.203125 18.890625 
L 12.984375 20.0625 
Q 14.5 12.59375 18.140625 9.296875 
Q 21.78125 6 27 6 
Q 33.203125 6 37.46875 10.296875 
Q 41.75 14.59375 41.75 20.953125 
Q 41.75 27 37.796875 30.921875 
Q 33.84375 34.859375 27.734375 34.859375 
Q 25.25 34.859375 21.53125 33.890625 
L 22.515625 41.609375 
Q 23.390625 41.5 23.921875 41.5 
Q 29.546875 41.5 34.03125 44.421875 
Q 38.53125 47.359375 38.53125 53.46875 
Q 38.53125 58.296875 35.25 61.46875 
Q 31.984375 64.65625 26.8125 64.65625 
Q 21.6875 64.65625 18.265625 61.421875 
Q 14.84375 58.203125 13.875 51.765625 
L 5.078125 53.328125 
Q 6.6875 62.15625 12.390625 67.015625 
Q 18.109375 71.875 26.609375 71.875 
Q 32.46875 71.875 37.390625 69.359375 
Q 42.328125 66.84375 44.9375 62.5 
Q 47.5625 58.15625 47.5625 53.265625 
Q 47.5625 48.640625 45.0625 44.828125 
Q 42.578125 41.015625 37.703125 38.765625 
Q 44.046875 37.3125 47.5625 32.6875 
Q 51.078125 28.078125 51.078125 21.140625 
Q 51.078125 11.765625 44.234375 5.25 
Q 37.40625 -1.265625 26.953125 -1.265625 
Q 17.53125 -1.265625 11.296875 4.34375 
Q 5.078125 9.96875 4.203125 18.890625 
z
" id="ArialMT-51"/>
      </defs>
      <g style="fill:#262626;" transform="translate(108.6 330.658536)scale(0.1 -0.1)">
       <use xlink:href="#ArialMT-48"/>
       <use x="55.615234" xlink:href="#ArialMT-46"/>
       <use x="83.398438" xlink:href="#ArialMT-51"/>
      </g>
     </g>
    </g>
    <g id="ytick_5">
     <g id="line2d_27">
      <path clip-path="url(#p98ec5535be)" d="M 126 272.918461 
L 907.2 272.918461 
" style="fill:none;stroke:#cccccc;stroke-linecap:round;stroke-width:0.8;"/>
     </g>
     <g id="line2d_28"/>
     <g id="text_15">
      <!-- 0.4 -->
      <defs>
       <path d="M 32.328125 0 
L 32.328125 17.140625 
L 1.265625 17.140625 
L 1.265625 25.203125 
L 33.9375 71.578125 
L 41.109375 71.578125 
L 41.109375 25.203125 
L 50.78125 25.203125 
L 50.78125 17.140625 
L 41.109375 17.140625 
L 41.109375 0 
z
M 32.328125 25.203125 
L 32.328125 57.46875 
L 9.90625 25.203125 
z
" id="ArialMT-52"/>
      </defs>
      <g style="fill:#262626;" transform="translate(108.6 276.497367)scale(0.1 -0.1)">
       <use xlink:href="#ArialMT-48"/>
       <use x="55.615234" xlink:href="#ArialMT-46"/>
       <use x="83.398438" xlink:href="#ArialMT-52"/>
      </g>
     </g>
    </g>
    <g id="ytick_6">
     <g id="line2d_29">
      <path clip-path="url(#p98ec5535be)" d="M 126 218.757293 
L 907.2 218.757293 
" style="fill:none;stroke:#cccccc;stroke-linecap:round;stroke-width:0.8;"/>
     </g>
     <g id="line2d_30"/>
     <g id="text_16">
      <!-- 0.5 -->
      <g style="fill:#262626;" transform="translate(108.6 222.336199)scale(0.1 -0.1)">
       <use xlink:href="#ArialMT-48"/>
       <use x="55.615234" xlink:href="#ArialMT-46"/>
       <use x="83.398438" xlink:href="#ArialMT-53"/>
      </g>
     </g>
    </g>
    <g id="ytick_7">
     <g id="line2d_31">
      <path clip-path="url(#p98ec5535be)" d="M 126 164.596124 
L 907.2 164.596124 
" style="fill:none;stroke:#cccccc;stroke-linecap:round;stroke-width:0.8;"/>
     </g>
     <g id="line2d_32"/>
     <g id="text_17">
      <!-- 0.6 -->
      <defs>
       <path d="M 49.75 54.046875 
L 41.015625 53.375 
Q 39.84375 58.546875 37.703125 60.890625 
Q 34.125 64.65625 28.90625 64.65625 
Q 24.703125 64.65625 21.53125 62.3125 
Q 17.390625 59.28125 14.984375 53.46875 
Q 12.59375 47.65625 12.5 36.921875 
Q 15.671875 41.75 20.265625 44.09375 
Q 24.859375 46.4375 29.890625 46.4375 
Q 38.671875 46.4375 44.84375 39.96875 
Q 51.03125 33.5 51.03125 23.25 
Q 51.03125 16.5 48.125 10.71875 
Q 45.21875 4.9375 40.140625 1.859375 
Q 35.0625 -1.21875 28.609375 -1.21875 
Q 17.625 -1.21875 10.6875 6.859375 
Q 3.765625 14.9375 3.765625 33.5 
Q 3.765625 54.25 11.421875 63.671875 
Q 18.109375 71.875 29.4375 71.875 
Q 37.890625 71.875 43.28125 67.140625 
Q 48.6875 62.40625 49.75 54.046875 
z
M 13.875 23.1875 
Q 13.875 18.65625 15.796875 14.5 
Q 17.71875 10.359375 21.1875 8.171875 
Q 24.65625 6 28.46875 6 
Q 34.03125 6 38.03125 10.484375 
Q 42.046875 14.984375 42.046875 22.703125 
Q 42.046875 30.125 38.078125 34.390625 
Q 34.125 38.671875 28.125 38.671875 
Q 22.171875 38.671875 18.015625 34.390625 
Q 13.875 30.125 13.875 23.1875 
z
" id="ArialMT-54"/>
      </defs>
      <g style="fill:#262626;" transform="translate(108.6 168.175031)scale(0.1 -0.1)">
       <use xlink:href="#ArialMT-48"/>
       <use x="55.615234" xlink:href="#ArialMT-46"/>
       <use x="83.398438" xlink:href="#ArialMT-54"/>
      </g>
     </g>
    </g>
    <g id="ytick_8">
     <g id="line2d_33">
      <path clip-path="url(#p98ec5535be)" d="M 126 110.434956 
L 907.2 110.434956 
" style="fill:none;stroke:#cccccc;stroke-linecap:round;stroke-width:0.8;"/>
     </g>
     <g id="line2d_34"/>
     <g id="text_18">
      <!-- 0.7 -->
      <g style="fill:#262626;" transform="translate(108.6 114.013862)scale(0.1 -0.1)">
       <use xlink:href="#ArialMT-48"/>
       <use x="55.615234" xlink:href="#ArialMT-46"/>
       <use x="83.398438" xlink:href="#ArialMT-55"/>
      </g>
     </g>
    </g>
    <g id="text_19">
     <!-- Train Loss -->
     <defs>
      <path d="M 25.921875 0 
L 25.921875 63.140625 
L 2.34375 63.140625 
L 2.34375 71.578125 
L 59.078125 71.578125 
L 59.078125 63.140625 
L 35.40625 63.140625 
L 35.40625 0 
z
" id="ArialMT-84"/>
      <path d="M 6.5 0 
L 6.5 51.859375 
L 14.40625 51.859375 
L 14.40625 44 
Q 17.4375 49.515625 20 51.265625 
Q 22.5625 53.03125 25.640625 53.03125 
Q 30.078125 53.03125 34.671875 50.203125 
L 31.640625 42.046875 
Q 28.421875 43.953125 25.203125 43.953125 
Q 22.3125 43.953125 20.015625 42.21875 
Q 17.71875 40.484375 16.75 37.40625 
Q 15.28125 32.71875 15.28125 27.15625 
L 15.28125 0 
z
" id="ArialMT-114"/>
      <path d="M 40.4375 6.390625 
Q 35.546875 2.25 31.03125 0.53125 
Q 26.515625 -1.171875 21.34375 -1.171875 
Q 12.796875 -1.171875 8.203125 3 
Q 3.609375 7.171875 3.609375 13.671875 
Q 3.609375 17.484375 5.34375 20.625 
Q 7.078125 23.78125 9.890625 25.6875 
Q 12.703125 27.59375 16.21875 28.5625 
Q 18.796875 29.25 24.03125 29.890625 
Q 34.671875 31.15625 39.703125 32.90625 
Q 39.75 34.71875 39.75 35.203125 
Q 39.75 40.578125 37.25 42.78125 
Q 33.890625 45.75 27.25 45.75 
Q 21.046875 45.75 18.09375 43.578125 
Q 15.140625 41.40625 13.71875 35.890625 
L 5.125 37.0625 
Q 6.296875 42.578125 8.984375 45.96875 
Q 11.671875 49.359375 16.75 51.1875 
Q 21.828125 53.03125 28.515625 53.03125 
Q 35.15625 53.03125 39.296875 51.46875 
Q 43.453125 49.90625 45.40625 47.53125 
Q 47.359375 45.171875 48.140625 41.546875 
Q 48.578125 39.3125 48.578125 33.453125 
L 48.578125 21.734375 
Q 48.578125 9.46875 49.140625 6.21875 
Q 49.703125 2.984375 51.375 0 
L 42.1875 0 
Q 40.828125 2.734375 40.4375 6.390625 
z
M 39.703125 26.03125 
Q 34.90625 24.078125 25.34375 22.703125 
Q 19.921875 21.921875 17.671875 20.9375 
Q 15.4375 19.96875 14.203125 18.09375 
Q 12.984375 16.21875 12.984375 13.921875 
Q 12.984375 10.40625 15.640625 8.0625 
Q 18.3125 5.71875 23.4375 5.71875 
Q 28.515625 5.71875 32.46875 7.9375 
Q 36.421875 10.15625 38.28125 14.015625 
Q 39.703125 17 39.703125 22.796875 
z
" id="ArialMT-97"/>
      <path d="M 6.640625 61.46875 
L 6.640625 71.578125 
L 15.4375 71.578125 
L 15.4375 61.46875 
z
M 6.640625 0 
L 6.640625 51.859375 
L 15.4375 51.859375 
L 15.4375 0 
z
" id="ArialMT-105"/>
      <path d="M 6.59375 0 
L 6.59375 51.859375 
L 14.5 51.859375 
L 14.5 44.484375 
Q 20.21875 53.03125 31 53.03125 
Q 35.6875 53.03125 39.625 51.34375 
Q 43.5625 49.65625 45.515625 46.921875 
Q 47.46875 44.1875 48.25 40.4375 
Q 48.734375 37.984375 48.734375 31.890625 
L 48.734375 0 
L 39.9375 0 
L 39.9375 31.546875 
Q 39.9375 36.921875 38.90625 39.578125 
Q 37.890625 42.234375 35.28125 43.8125 
Q 32.671875 45.40625 29.15625 45.40625 
Q 23.53125 45.40625 19.453125 41.84375 
Q 15.375 38.28125 15.375 28.328125 
L 15.375 0 
z
" id="ArialMT-110"/>
      <path id="ArialMT-32"/>
      <path d="M 7.328125 0 
L 7.328125 71.578125 
L 16.796875 71.578125 
L 16.796875 8.453125 
L 52.046875 8.453125 
L 52.046875 0 
z
" id="ArialMT-76"/>
     </defs>
     <g style="fill:#262626;" transform="translate(102.6125 309.898281)rotate(-90)scale(0.1 -0.1)">
      <use xlink:href="#ArialMT-84"/>
      <use x="61.037109" xlink:href="#ArialMT-114"/>
      <use x="94.337891" xlink:href="#ArialMT-97"/>
      <use x="149.953125" xlink:href="#ArialMT-105"/>
      <use x="172.169922" xlink:href="#ArialMT-110"/>
      <use x="227.785156" xlink:href="#ArialMT-32"/>
      <use x="255.568359" xlink:href="#ArialMT-76"/>
      <use x="311.183594" xlink:href="#ArialMT-111"/>
      <use x="366.798828" xlink:href="#ArialMT-115"/>
      <use x="416.798828" xlink:href="#ArialMT-115"/>
     </g>
    </g>
   </g>
   <g id="line2d_35">
    <path clip-path="url(#p98ec5535be)" d="M 161.509091 111.76857 
L 165.077844 178.727749 
L 168.646597 220.913646 
L 172.215349 252.287352 
L 175.784102 278.648615 
L 179.352855 298.511887 
L 182.921608 313.863519 
L 186.490361 327.963679 
L 190.059114 339.754094 
L 193.627867 349.571854 
L 197.196619 356.87223 
L 200.765372 365.070414 
L 204.334125 372.01039 
L 211.471631 381.92189 
L 215.040384 387.835177 
L 218.609137 392.833732 
L 225.746642 402.012275 
L 229.315395 408.095538 
L 236.452901 427.389213 
L 240.021654 433.291953 
L 243.590407 437.445881 
L 247.159159 440.125605 
L 250.727912 442.045826 
L 257.865418 444.972587 
L 261.434171 446.744817 
L 265.002924 447.685962 
L 268.571677 448.758522 
L 272.140429 450.108856 
L 275.709182 451.121352 
L 279.277935 451.942257 
L 282.846688 452.566581 
L 286.415441 453.38119 
L 289.984194 454.310491 
L 293.552947 454.680698 
L 297.121699 455.596371 
L 300.690452 455.680183 
L 307.827958 456.782148 
L 318.534217 458.163939 
L 325.671722 458.816241 
L 329.240475 459.38604 
L 336.377981 459.572395 
L 339.946734 459.903052 
L 343.515487 460.042616 
L 347.084239 460.614503 
L 350.652992 460.643275 
L 354.221745 460.902767 
L 357.790498 461.342496 
L 361.359251 461.171386 
L 364.928004 461.615285 
L 375.634262 462.440177 
L 379.203015 462.337616 
L 382.771768 462.75958 
L 386.340521 462.761229 
L 393.478026 463.262177 
L 397.046779 463.04993 
L 400.615532 463.718124 
L 404.184285 463.660072 
L 407.753038 463.962801 
L 411.321791 463.822861 
L 414.890544 464.204055 
L 439.871814 465.651611 
L 443.440566 465.446717 
L 447.009319 465.836798 
L 454.146825 466.21708 
L 457.715578 466.622763 
L 468.421836 467.124144 
L 471.990589 467.183309 
L 475.559342 467.449464 
L 479.128095 467.833953 
L 496.971859 468.837401 
L 500.540612 469.061051 
L 504.109365 469.155299 
L 507.678118 469.484212 
L 536.228141 470.996156 
L 539.796894 470.991543 
L 543.365646 471.365477 
L 546.934399 471.44007 
L 557.640658 471.993992 
L 579.053175 472.959093 
L 586.190681 473.038286 
L 596.896939 473.596067 
L 604.034445 473.635131 
L 607.603198 473.698307 
L 611.171951 473.965836 
L 614.740704 474.074783 
L 618.309456 474.061971 
L 625.446962 474.417604 
L 632.584468 474.567302 
L 636.153221 474.53892 
L 639.721974 474.725486 
L 643.290726 474.668505 
L 650.428232 475.021613 
L 653.996985 474.93323 
L 664.703243 475.246575 
L 675.409502 475.314569 
L 678.978255 475.533766 
L 682.547008 475.545371 
L 689.684513 475.720094 
L 693.253266 475.789471 
L 696.822019 475.70855 
L 703.959525 476.116054 
L 707.528278 475.986083 
L 711.097031 476.261089 
L 714.665783 476.262081 
L 732.509548 476.861233 
L 736.078301 476.993995 
L 739.647053 476.963345 
L 746.784559 477.350008 
L 753.922065 477.609304 
L 764.628323 477.959839 
L 768.197076 477.780796 
L 775.334582 478.235823 
L 782.472088 478.484016 
L 786.040841 478.656031 
L 789.609593 478.69863 
L 796.747099 478.95247 
L 811.022111 479.274928 
L 814.590863 479.522777 
L 825.297122 479.737627 
L 828.865875 479.973383 
L 836.003381 480.111175 
L 846.709639 480.204988 
L 850.278392 480.448255 
L 864.553403 480.575444 
L 868.122156 480.814146 
L 871.690909 480.908187 
L 871.690909 480.908187 
" style="fill:none;stroke:#0000ff;stroke-linecap:round;stroke-width:1.5;"/>
   </g>
   <g id="line2d_36">
    <path clip-path="url(#p98ec5535be)" d="M 161.509091 118.200561 
L 165.077844 196.158178 
L 168.646597 247.909854 
L 172.215349 284.503011 
L 175.784102 309.845195 
L 179.352855 329.255236 
L 182.921608 345.467612 
L 186.490361 356.998952 
L 190.059114 366.090117 
L 193.627867 373.283156 
L 197.196619 380.127151 
L 200.765372 386.099927 
L 207.902878 393.716605 
L 211.471631 397.690549 
L 218.609137 404.235902 
L 225.746642 409.734662 
L 229.315395 412.839737 
L 236.452901 435.06034 
L 240.021654 439.973009 
L 243.590407 444.143976 
L 247.159159 445.505005 
L 250.727912 447.312527 
L 254.296665 448.334527 
L 257.865418 449.207491 
L 261.434171 450.238234 
L 265.002924 450.377767 
L 268.571677 451.540707 
L 272.140429 451.897046 
L 275.709182 452.918692 
L 279.277935 453.513386 
L 282.846688 453.82823 
L 286.415441 454.465421 
L 289.984194 454.929014 
L 293.552947 455.581833 
L 297.121699 456.037664 
L 300.690452 456.272282 
L 304.259205 457.079056 
L 307.827958 457.08806 
L 311.396711 457.361939 
L 314.965464 458.185556 
L 318.534217 458.769312 
L 322.102969 459.018129 
L 325.671722 459.034248 
L 329.240475 459.720751 
L 332.809228 460.041772 
L 336.377981 460.627869 
L 347.084239 461.6101 
L 354.221745 462.622734 
L 357.790498 462.930872 
L 361.359251 462.951536 
L 368.496757 463.223628 
L 372.065509 463.85431 
L 375.634262 464.090234 
L 379.203015 464.195304 
L 382.771768 464.571375 
L 386.340521 464.573987 
L 389.909274 464.944452 
L 393.478026 465.016808 
L 397.046779 465.356147 
L 400.615532 465.376444 
L 404.184285 465.649926 
L 407.753038 465.757171 
L 411.321791 466.122287 
L 414.890544 466.152665 
L 418.459296 466.454692 
L 425.596802 466.835244 
L 429.165555 467.178279 
L 432.734308 467.203386 
L 436.303061 467.529104 
L 443.440566 467.909878 
L 447.009319 468.165811 
L 457.715578 468.347454 
L 461.284331 468.740103 
L 468.421836 469.08997 
L 471.990589 469.118589 
L 479.128095 469.484455 
L 482.696848 469.405628 
L 489.834354 470.010205 
L 500.540612 470.31938 
L 504.109365 470.593462 
L 507.678118 470.631301 
L 511.246871 470.434064 
L 518.384376 471.185176 
L 521.953129 471.111513 
L 529.090635 471.348798 
L 532.659388 471.664576 
L 539.796894 471.751076 
L 543.365646 472.086347 
L 550.503152 472.190308 
L 554.071905 472.512567 
L 557.640658 472.36406 
L 561.209411 472.72467 
L 568.346916 472.806522 
L 575.484422 473.359046 
L 579.053175 473.249804 
L 582.621928 473.49201 
L 586.190681 473.390524 
L 593.328186 473.940446 
L 596.896939 473.961107 
L 600.465692 474.114399 
L 604.034445 473.735712 
L 607.603198 474.168474 
L 618.309456 474.85708 
L 621.878209 474.694671 
L 625.446962 474.993114 
L 632.584468 475.034559 
L 636.153221 475.389714 
L 639.721974 475.369579 
L 657.565738 476.024055 
L 661.134491 475.734234 
L 664.703243 476.221399 
L 678.978255 476.4277 
L 686.115761 476.885498 
L 693.253266 477.059853 
L 696.822019 476.94952 
L 711.097031 477.404029 
L 714.665783 477.49546 
L 721.803289 477.870851 
L 725.372042 477.866091 
L 728.940795 478.031987 
L 739.647053 478.259651 
L 743.215806 478.42048 
L 746.784559 478.258641 
L 750.353312 478.610161 
L 757.490818 478.821965 
L 761.059571 478.894508 
L 764.628323 479.090102 
L 768.197076 479.002003 
L 771.765829 479.268767 
L 775.334582 479.341957 
L 778.903335 479.300535 
L 818.159616 480.06529 
L 821.728369 480.008268 
L 832.434628 480.267684 
L 839.572133 480.3699 
L 843.140886 480.209805 
L 846.709639 480.559999 
L 850.278392 480.34547 
L 853.847145 480.532912 
L 857.415898 480.39064 
L 860.984651 480.582208 
L 864.553403 480.500221 
L 868.122156 480.705982 
L 871.690909 480.737269 
L 871.690909 480.737269 
" style="fill:none;stroke:#0000ff;stroke-linecap:round;stroke-width:1.5;"/>
   </g>
   <g id="line2d_37">
    <path clip-path="url(#p98ec5535be)" d="M 161.509091 103.674821 
L 165.077844 186.537735 
L 168.646597 230.963803 
L 172.215349 263.221965 
L 175.784102 287.423113 
L 179.352855 307.101881 
L 182.921608 318.063218 
L 186.490361 334.68211 
L 190.059114 344.969903 
L 193.627867 352.074868 
L 197.196619 362.013655 
L 204.334125 378.200334 
L 207.902878 387.378158 
L 211.471631 391.79154 
L 215.040384 396.887722 
L 218.609137 401.484934 
L 222.177889 408.757749 
L 225.746642 420.151506 
L 229.315395 435.842657 
L 232.884148 443.26724 
L 236.452901 447.057819 
L 240.021654 449.741153 
L 247.159159 453.571794 
L 250.727912 455.10998 
L 257.865418 457.359612 
L 261.434171 458.348075 
L 265.002924 458.854418 
L 268.571677 459.841901 
L 272.140429 460.387715 
L 275.709182 461.16948 
L 286.415441 462.820289 
L 293.552947 463.456299 
L 297.121699 463.99688 
L 300.690452 464.291938 
L 304.259205 464.840552 
L 311.396711 465.577326 
L 318.534217 466.270873 
L 322.102969 466.569555 
L 329.240475 466.948852 
L 332.809228 467.515888 
L 336.377981 467.605848 
L 339.946734 468.009084 
L 343.515487 468.114964 
L 347.084239 468.565166 
L 350.652992 468.828155 
L 354.221745 468.858731 
L 357.790498 469.034474 
L 364.928004 469.88537 
L 368.496757 469.888971 
L 372.065509 470.333147 
L 375.634262 470.220191 
L 379.203015 470.402941 
L 382.771768 470.812459 
L 386.340521 470.824695 
L 389.909274 471.085513 
L 393.478026 471.187027 
L 397.046779 471.564098 
L 404.184285 471.726821 
L 407.753038 472.024229 
L 411.321791 472.183087 
L 414.890544 472.218378 
L 422.028049 472.694076 
L 425.596802 472.662117 
L 429.165555 473.013494 
L 436.303061 473.151665 
L 439.871814 473.410313 
L 443.440566 473.494966 
L 447.009319 473.705077 
L 454.146825 473.808498 
L 457.715578 474.193509 
L 461.284331 474.261766 
L 475.559342 475.018133 
L 479.128095 474.963777 
L 486.265601 475.197343 
L 504.109365 475.840115 
L 507.678118 475.85413 
L 518.384376 476.37755 
L 521.953129 476.115721 
L 525.521882 476.516132 
L 529.090635 476.452634 
L 532.659388 476.671639 
L 536.228141 476.565332 
L 539.796894 476.87054 
L 546.934399 477.082061 
L 557.640658 477.386317 
L 571.915669 477.763505 
L 575.484422 477.551945 
L 579.053175 477.908985 
L 586.190681 478.162313 
L 589.759434 478.113617 
L 607.603198 478.534062 
L 611.171951 478.557909 
L 618.309456 478.822402 
L 621.878209 478.801819 
L 639.721974 479.199682 
L 643.290726 479.162841 
L 650.428232 479.371349 
L 653.996985 479.320791 
L 657.565738 479.54955 
L 668.271996 479.750613 
L 682.547008 479.936911 
L 689.684513 480.078355 
L 696.822019 480.321407 
L 703.959525 480.352845 
L 718.234536 480.558977 
L 725.372042 480.498837 
L 728.940795 480.714066 
L 732.509548 480.717945 
L 736.078301 480.861234 
L 743.215806 480.762421 
L 746.784559 480.947346 
L 750.353312 480.848815 
L 753.922065 480.982842 
L 761.059571 480.990596 
L 771.765829 481.096968 
L 789.609593 481.242271 
L 793.178346 481.074809 
L 796.747099 481.260641 
L 803.884605 481.382601 
L 807.453358 481.422846 
L 811.022111 481.211785 
L 814.590863 481.355122 
L 846.709639 481.580153 
L 850.278392 481.486112 
L 860.984651 481.707239 
L 864.553403 481.584074 
L 868.122156 481.717562 
L 871.690909 481.688716 
L 871.690909 481.688716 
" style="fill:none;stroke:#0000ff;stroke-linecap:round;stroke-width:1.5;"/>
   </g>
   <g id="line2d_38">
    <path clip-path="url(#p98ec5535be)" d="M 161.509091 124.867175 
L 165.077844 195.105821 
L 168.646597 237.748025 
L 172.215349 271.882619 
L 175.784102 295.531286 
L 179.352855 315.148943 
L 182.921608 329.960187 
L 186.490361 342.779605 
L 190.059114 352.095923 
L 193.627867 360.784854 
L 197.196619 368.241583 
L 200.765372 374.135024 
L 204.334125 377.947525 
L 207.902878 383.397099 
L 211.471631 386.606613 
L 215.040384 391.211059 
L 218.609137 393.5034 
L 222.177889 396.836806 
L 225.746642 400.92141 
L 229.315395 407.994023 
L 232.884148 412.766254 
L 236.452901 425.030996 
L 240.021654 442.5066 
L 243.590407 451.152596 
L 247.159159 453.429196 
L 250.727912 454.749231 
L 254.296665 456.467012 
L 257.865418 457.767617 
L 265.002924 459.454643 
L 272.140429 460.757645 
L 279.277935 462.018759 
L 282.846688 462.672739 
L 286.415441 462.994854 
L 297.121699 464.407343 
L 300.690452 464.90102 
L 307.827958 465.463556 
L 311.396711 465.976954 
L 314.965464 466.069902 
L 318.534217 466.385516 
L 322.102969 466.835568 
L 325.671722 466.885634 
L 329.240475 467.332215 
L 332.809228 467.321806 
L 336.377981 467.769293 
L 339.946734 467.978447 
L 343.515487 467.989198 
L 350.652992 468.647997 
L 354.221745 468.798167 
L 357.790498 469.074579 
L 361.359251 469.099273 
L 368.496757 469.731966 
L 372.065509 469.564046 
L 375.634262 469.995509 
L 379.203015 470.198835 
L 382.771768 470.288117 
L 386.340521 470.506065 
L 393.478026 470.403303 
L 397.046779 470.801962 
L 400.615532 470.907583 
L 404.184285 471.182088 
L 407.753038 471.16598 
L 411.321791 471.500002 
L 414.890544 471.546361 
L 418.459296 471.760347 
L 422.028049 471.729157 
L 425.596802 471.96783 
L 429.165555 471.708769 
L 432.734308 472.24275 
L 436.303061 472.401883 
L 439.871814 472.325521 
L 443.440566 472.522845 
L 450.578072 472.608108 
L 454.146825 472.750861 
L 457.715578 473.040208 
L 461.284331 473.131287 
L 464.853084 472.990587 
L 468.421836 473.256944 
L 471.990589 473.009117 
L 479.128095 473.396235 
L 482.696848 473.330351 
L 486.265601 473.622839 
L 489.834354 473.774147 
L 504.109365 473.9606 
L 507.678118 474.218311 
L 518.384376 474.454316 
L 521.953129 474.239054 
L 525.521882 474.530537 
L 532.659388 474.622125 
L 536.228141 474.940721 
L 543.365646 474.958511 
L 557.640658 475.355162 
L 564.778164 475.225105 
L 571.915669 475.825156 
L 575.484422 475.707423 
L 579.053175 475.967581 
L 582.621928 476.026932 
L 586.190681 475.906027 
L 589.759434 476.221258 
L 596.896939 476.239104 
L 600.465692 476.457194 
L 611.171951 476.572325 
L 614.740704 476.769058 
L 625.446962 476.92042 
L 629.015715 476.986252 
L 632.584468 476.505065 
L 636.153221 477.115012 
L 639.721974 477.03887 
L 643.290726 477.273127 
L 646.859479 477.07515 
L 650.428232 477.353881 
L 657.565738 477.531671 
L 661.134491 477.235415 
L 668.271996 477.660959 
L 671.840749 477.605095 
L 693.253266 477.91548 
L 696.822019 477.85175 
L 703.959525 478.115844 
L 707.528278 477.994738 
L 711.097031 478.174532 
L 714.665783 478.164067 
L 721.803289 478.317659 
L 725.372042 478.307025 
L 732.509548 478.469686 
L 736.078301 478.35075 
L 739.647053 478.576631 
L 746.784559 478.671697 
L 753.922065 478.709928 
L 757.490818 478.854626 
L 761.059571 478.877708 
L 768.197076 479.110965 
L 775.334582 479.239998 
L 778.903335 479.122217 
L 782.472088 479.365733 
L 786.040841 479.277185 
L 789.609593 479.520078 
L 796.747099 479.481955 
L 800.315852 479.77161 
L 803.884605 479.539451 
L 807.453358 479.864271 
L 825.297122 480.299285 
L 828.865875 480.189361 
L 832.434628 480.195172 
L 836.003381 480.473559 
L 839.572133 480.57192 
L 843.140886 480.483312 
L 850.278392 480.742491 
L 853.847145 480.729215 
L 860.984651 480.915211 
L 864.553403 480.949697 
L 868.122156 481.102155 
L 871.690909 481.083027 
L 871.690909 481.083027 
" style="fill:none;stroke:#0000ff;stroke-linecap:round;stroke-width:1.5;"/>
   </g>
   <g id="line2d_39">
    <path clip-path="url(#p98ec5535be)" d="M 161.509091 88.887273 
L 165.077844 172.280224 
L 168.646597 222.840801 
L 172.215349 258.734836 
L 175.784102 284.752148 
L 179.352855 305.913868 
L 182.921608 318.918231 
L 186.490361 335.178571 
L 193.627867 351.884651 
L 200.765372 365.440693 
L 204.334125 371.167558 
L 207.902878 375.110181 
L 211.471631 378.723772 
L 215.040384 381.71781 
L 218.609137 385.513957 
L 222.177889 386.742818 
L 225.746642 389.785886 
L 229.315395 391.421081 
L 232.884148 394.732722 
L 236.452901 396.451256 
L 240.021654 398.354982 
L 243.590407 400.420072 
L 247.159159 400.623638 
L 250.727912 402.902222 
L 254.296665 404.951561 
L 257.865418 408.051918 
L 261.434171 414.822328 
L 268.571677 423.620985 
L 272.140429 425.473195 
L 275.709182 428.96493 
L 279.277935 436.626604 
L 282.846688 447.30519 
L 286.415441 455.570222 
L 289.984194 458.866094 
L 293.552947 461.062455 
L 297.121699 462.33811 
L 300.690452 463.086922 
L 307.827958 465.149383 
L 311.396711 465.140693 
L 314.965464 466.12062 
L 318.534217 466.967906 
L 322.102969 467.330532 
L 325.671722 467.81916 
L 339.946734 469.286611 
L 343.515487 469.435413 
L 347.084239 469.863022 
L 350.652992 470.16506 
L 354.221745 470.651312 
L 357.790498 470.726015 
L 361.359251 471.189059 
L 368.496757 471.632317 
L 372.065509 471.925424 
L 375.634262 472.056775 
L 379.203015 472.409479 
L 382.771768 472.476064 
L 386.340521 472.74309 
L 389.909274 472.774359 
L 397.046779 473.375503 
L 400.615532 473.274068 
L 404.184285 473.571287 
L 407.753038 473.700061 
L 411.321791 473.970136 
L 418.459296 474.186024 
L 422.028049 474.390317 
L 425.596802 474.41763 
L 429.165555 474.683194 
L 439.871814 475.058701 
L 443.440566 475.163229 
L 447.009319 475.148298 
L 450.578072 475.428169 
L 457.715578 475.498827 
L 461.284331 475.700937 
L 464.853084 475.643939 
L 468.421836 475.945069 
L 471.990589 476.017538 
L 475.559342 475.884741 
L 479.128095 476.25246 
L 486.265601 476.287892 
L 496.971859 476.681084 
L 504.109365 476.947161 
L 507.678118 476.871517 
L 514.815624 477.126519 
L 525.521882 477.529537 
L 529.090635 477.41426 
L 532.659388 477.507313 
L 536.228141 477.840007 
L 539.796894 477.821124 
L 543.365646 478.057959 
L 546.934399 478.037351 
L 554.071905 478.243331 
L 557.640658 478.233566 
L 564.778164 478.64583 
L 568.346916 478.564136 
L 571.915669 478.879383 
L 579.053175 478.836637 
L 582.621928 478.913462 
L 586.190681 478.837631 
L 589.759434 479.167718 
L 607.603198 479.623756 
L 611.171951 479.567402 
L 621.878209 479.895688 
L 625.446962 479.916362 
L 629.015715 480.111306 
L 639.721974 480.243384 
L 646.859479 480.39707 
L 650.428232 480.324231 
L 653.996985 480.566622 
L 657.565738 480.520216 
L 661.134491 480.648543 
L 664.703243 480.607773 
L 668.271996 480.787101 
L 707.528278 481.369335 
L 718.234536 481.370763 
L 721.803289 481.581862 
L 725.372042 481.477819 
L 739.647053 481.780128 
L 746.784559 481.825537 
L 753.922065 482.04133 
L 757.490818 481.896939 
L 764.628323 481.917517 
L 768.197076 482.18405 
L 778.903335 482.428102 
L 782.472088 482.297351 
L 786.040841 482.489282 
L 789.609593 482.504127 
L 793.178346 482.688937 
L 796.747099 482.603366 
L 807.453358 482.925338 
L 814.590863 482.923043 
L 818.159616 483.113785 
L 828.865875 482.986881 
L 832.434628 483.255039 
L 843.140886 483.474402 
L 850.278392 483.2253 
L 853.847145 483.54817 
L 860.984651 483.660804 
L 864.553403 483.644925 
L 868.122156 483.757128 
L 871.690909 483.727877 
L 871.690909 483.727877 
" style="fill:none;stroke:#0000ff;stroke-linecap:round;stroke-width:1.5;"/>
   </g>
   <g id="line2d_40">
    <path clip-path="url(#p98ec5535be)" d="M 161.509091 96.931298 
L 165.077844 159.204817 
L 168.646597 203.494659 
L 172.215349 236.930152 
L 175.784102 261.418097 
L 179.352855 282.02336 
L 182.921608 299.503084 
L 186.490361 313.933162 
L 190.059114 326.067992 
L 193.627867 336.479733 
L 197.196619 345.03097 
L 200.765372 351.475532 
L 204.334125 359.650832 
L 207.902878 366.356494 
L 211.471631 371.225525 
L 218.609137 379.322676 
L 225.746642 390.728504 
L 229.315395 394.558984 
L 232.884148 399.433767 
L 236.452901 402.468437 
L 240.021654 404.027764 
L 243.590407 408.428653 
L 247.159159 416.561121 
L 250.727912 428.130211 
L 254.296665 434.71213 
L 257.865418 438.429493 
L 261.434171 441.0807 
L 265.002924 443.467644 
L 268.571677 444.85424 
L 272.140429 446.593088 
L 275.709182 447.639875 
L 279.277935 448.328471 
L 282.846688 449.262766 
L 289.984194 450.493251 
L 293.552947 450.86892 
L 297.121699 451.411791 
L 300.690452 452.076085 
L 304.259205 452.211535 
L 311.396711 453.199881 
L 318.534217 453.694263 
L 322.102969 454.189575 
L 325.671722 454.426542 
L 329.240475 454.824307 
L 336.377981 455.342166 
L 347.084239 456.362642 
L 350.652992 456.321805 
L 354.221745 456.740781 
L 357.790498 456.841817 
L 368.496757 457.808923 
L 372.065509 458.134806 
L 375.634262 458.221721 
L 382.771768 458.592416 
L 386.340521 459.093555 
L 389.909274 459.050425 
L 393.478026 459.515488 
L 397.046779 459.560824 
L 400.615532 459.971138 
L 404.184285 460.0549 
L 407.753038 460.403605 
L 411.321791 460.361437 
L 418.459296 460.852014 
L 422.028049 460.60356 
L 425.596802 461.292712 
L 429.165555 461.356514 
L 447.009319 462.392212 
L 450.578072 462.415207 
L 457.715578 462.974094 
L 471.990589 463.735444 
L 475.559342 464.043863 
L 479.128095 464.105529 
L 500.540612 465.452895 
L 504.109365 465.757372 
L 507.678118 465.914075 
L 514.815624 466.469996 
L 518.384376 466.572776 
L 521.953129 466.993961 
L 525.521882 467.023415 
L 529.090635 467.455143 
L 539.796894 468.170845 
L 554.071905 468.903952 
L 557.640658 469.247194 
L 568.346916 469.854805 
L 571.915669 469.855933 
L 579.053175 470.509574 
L 586.190681 470.755589 
L 589.759434 470.918987 
L 596.896939 471.373327 
L 611.171951 471.997019 
L 614.740704 471.947826 
L 618.309456 472.279019 
L 646.859479 473.423581 
L 650.428232 473.352361 
L 653.996985 473.49828 
L 657.565738 473.787511 
L 664.703243 473.783698 
L 668.271996 474.062877 
L 671.840749 474.143045 
L 675.409502 474.050475 
L 678.978255 474.396536 
L 682.547008 474.250074 
L 689.684513 474.466676 
L 693.253266 474.616097 
L 696.822019 474.53049 
L 703.959525 474.812845 
L 707.528278 474.7753 
L 711.097031 474.922948 
L 718.234536 474.835459 
L 721.803289 474.99791 
L 728.940795 475.054963 
L 732.509548 474.632402 
L 736.078301 475.064848 
L 750.353312 475.336162 
L 753.922065 475.19145 
L 757.490818 475.347895 
L 768.197076 475.2636 
L 771.765829 475.40664 
L 775.334582 475.322379 
L 778.903335 475.537804 
L 800.315852 475.496535 
L 803.884605 475.363778 
L 807.453358 475.674393 
L 811.022111 475.529641 
L 814.590863 475.758075 
L 821.728369 475.778395 
L 828.865875 475.851019 
L 868.122156 476.254527 
L 871.690909 476.321847 
L 871.690909 476.321847 
" style="fill:none;stroke:#0000ff;stroke-linecap:round;stroke-width:1.5;"/>
   </g>
   <g id="line2d_41">
    <path clip-path="url(#p98ec5535be)" d="M 161.509091 98.124794 
L 165.077844 186.978288 
L 168.646597 242.595829 
L 172.215349 285.971155 
L 175.784102 319.228813 
L 179.352855 347.373959 
L 182.921608 370.974537 
L 186.490361 390.413805 
L 190.059114 405.30742 
L 193.627867 415.635481 
L 197.196619 424.185315 
L 200.765372 430.918429 
L 204.334125 436.243454 
L 207.902878 440.874171 
L 211.471631 444.596424 
L 215.040384 447.837164 
L 218.609137 450.41322 
L 222.177889 452.468862 
L 225.746642 454.340507 
L 229.315395 455.92829 
L 236.452901 458.427215 
L 243.590407 460.302632 
L 250.727912 461.466693 
L 257.865418 462.550731 
L 261.434171 462.784101 
L 272.140429 463.822229 
L 286.415441 464.928004 
L 289.984194 465.006392 
L 300.690452 465.63215 
L 307.827958 465.908804 
L 311.396711 466.13526 
L 314.965464 466.214711 
L 318.534217 466.443218 
L 336.377981 467.021068 
L 339.946734 467.440798 
L 350.652992 467.688369 
L 354.221745 468.036779 
L 357.790498 468.176983 
L 361.359251 468.203942 
L 364.928004 468.429654 
L 368.496757 468.491509 
L 372.065509 468.68853 
L 375.634262 469.019834 
L 379.203015 468.82429 
L 386.340521 469.255838 
L 389.909274 469.533839 
L 393.478026 469.69937 
L 397.046779 469.615821 
L 400.615532 470.072128 
L 404.184285 470.066536 
L 411.321791 470.277252 
L 414.890544 470.644561 
L 422.028049 470.702048 
L 425.596802 470.978426 
L 436.303061 471.322375 
L 439.871814 471.139803 
L 443.440566 471.4828 
L 447.009319 471.582377 
L 450.578072 471.898024 
L 457.715578 472.059036 
L 475.559342 472.746828 
L 479.128095 472.406493 
L 482.696848 472.886909 
L 489.834354 473.17719 
L 511.246871 473.761659 
L 514.815624 473.935613 
L 518.384376 473.961803 
L 521.953129 473.867571 
L 525.521882 474.284761 
L 529.090635 474.384374 
L 532.659388 474.183101 
L 536.228141 474.611461 
L 539.796894 474.429814 
L 546.934399 474.942275 
L 550.503152 474.925023 
L 561.209411 475.243547 
L 568.346916 475.217756 
L 571.915669 475.504711 
L 582.621928 475.686113 
L 586.190681 475.623655 
L 589.759434 475.887898 
L 625.446962 476.672825 
L 629.015715 476.564906 
L 636.153221 476.894889 
L 639.721974 476.765141 
L 643.290726 477.001374 
L 646.859479 476.97656 
L 653.996985 477.226898 
L 657.565738 477.194531 
L 661.134491 477.333221 
L 664.703243 477.243036 
L 668.271996 477.429061 
L 671.840749 477.386828 
L 675.409502 477.582035 
L 682.547008 477.605224 
L 686.115761 477.918292 
L 689.684513 477.834831 
L 693.253266 477.988891 
L 700.390772 478.085383 
L 707.528278 478.288525 
L 711.097031 478.305177 
L 721.803289 478.705218 
L 736.078301 478.82726 
L 739.647053 479.093945 
L 753.922065 479.260318 
L 757.490818 479.50763 
L 764.628323 479.530909 
L 771.765829 479.862482 
L 775.334582 479.879786 
L 778.903335 480.036474 
L 782.472088 479.966689 
L 786.040841 480.179617 
L 811.022111 480.66194 
L 814.590863 480.552232 
L 818.159616 480.797254 
L 825.297122 480.967275 
L 828.865875 480.704111 
L 832.434628 481.097851 
L 836.003381 481.180419 
L 839.572133 481.126225 
L 843.140886 481.290607 
L 846.709639 481.16181 
L 850.278392 481.214591 
L 853.847145 481.485903 
L 871.690909 481.58702 
L 871.690909 481.58702 
" style="fill:none;stroke:#0000ff;stroke-linecap:round;stroke-width:1.5;"/>
   </g>
   <g id="line2d_42">
    <path clip-path="url(#p98ec5535be)" d="M 161.509091 103.11912 
L 165.077844 182.457887 
L 168.646597 227.928109 
L 172.215349 263.181578 
L 175.784102 289.974829 
L 179.352855 308.606945 
L 182.921608 324.6792 
L 186.490361 339.071158 
L 190.059114 349.735813 
L 193.627867 357.941231 
L 197.196619 367.125496 
L 200.765372 372.246017 
L 204.334125 381.474758 
L 207.902878 386.479297 
L 211.471631 393.656157 
L 215.040384 401.237863 
L 218.609137 413.995731 
L 222.177889 432.403924 
L 225.746642 442.085509 
L 229.315395 445.624415 
L 232.884148 447.835644 
L 236.452901 449.398837 
L 240.021654 451.085494 
L 247.159159 453.695035 
L 250.727912 454.486941 
L 254.296665 455.491641 
L 257.865418 456.31963 
L 265.002924 457.500409 
L 268.571677 457.843469 
L 272.140429 458.715308 
L 275.709182 459.023286 
L 279.277935 459.578847 
L 282.846688 459.678799 
L 289.984194 460.751312 
L 293.552947 460.949687 
L 300.690452 461.697068 
L 304.259205 461.945827 
L 307.827958 461.996103 
L 311.396711 462.505712 
L 322.102969 463.177056 
L 332.809228 463.944475 
L 347.084239 464.782263 
L 361.359251 465.589732 
L 364.928004 465.728935 
L 372.065509 466.155102 
L 375.634262 466.348806 
L 382.771768 466.556263 
L 386.340521 466.717584 
L 389.909274 467.070582 
L 397.046779 467.306722 
L 407.753038 467.865947 
L 411.321791 467.838769 
L 418.459296 468.144971 
L 422.028049 468.077068 
L 429.165555 468.647043 
L 432.734308 468.46335 
L 436.303061 468.791911 
L 493.403106 470.387133 
L 496.971859 470.721199 
L 500.540612 470.689573 
L 511.246871 471.099912 
L 514.815624 471.067738 
L 521.953129 471.572697 
L 529.090635 471.882275 
L 532.659388 471.80567 
L 536.228141 471.84337 
L 539.796894 472.248826 
L 546.934399 472.415065 
L 550.503152 472.638871 
L 557.640658 472.787891 
L 561.209411 473.056513 
L 575.484422 473.554925 
L 582.621928 474.059841 
L 589.759434 474.395004 
L 593.328186 474.367975 
L 596.896939 474.685876 
L 600.465692 474.780504 
L 607.603198 475.186198 
L 611.171951 475.289494 
L 618.309456 475.721142 
L 625.446962 476.030213 
L 629.015715 476.332425 
L 632.584468 476.416073 
L 636.153221 476.647958 
L 639.721974 476.579134 
L 643.290726 476.861369 
L 646.859479 476.967865 
L 653.996985 477.364424 
L 657.565738 477.316496 
L 661.134491 477.680735 
L 664.703243 477.749367 
L 668.271996 477.953489 
L 678.978255 478.07577 
L 682.547008 478.45701 
L 686.115761 478.506344 
L 689.684513 478.676477 
L 700.390772 478.856913 
L 703.959525 479.048288 
L 707.528278 479.009842 
L 711.097031 479.143926 
L 714.665783 479.131932 
L 728.940795 479.639965 
L 736.078301 479.715101 
L 739.647053 479.820861 
L 743.215806 479.722923 
L 746.784559 479.767102 
L 750.353312 479.945798 
L 761.059571 480.003204 
L 768.197076 480.156282 
L 775.334582 480.027324 
L 778.903335 480.290042 
L 782.472088 480.058689 
L 786.040841 480.254821 
L 789.609593 480.136356 
L 793.178346 480.321311 
L 807.453358 480.356419 
L 814.590863 480.329214 
L 821.728369 480.49239 
L 825.297122 480.309773 
L 828.865875 480.487226 
L 832.434628 480.538117 
L 836.003381 480.380712 
L 843.140886 480.613403 
L 850.278392 480.547852 
L 871.690909 480.632312 
L 871.690909 480.632312 
" style="fill:none;stroke:#0000ff;stroke-linecap:round;stroke-width:1.5;"/>
   </g>
   <g id="line2d_43">
    <path clip-path="url(#p98ec5535be)" d="M 161.509091 95.636327 
L 165.077844 166.855072 
L 168.646597 208.985508 
L 172.215349 242.427634 
L 175.784102 269.256182 
L 179.352855 290.648367 
L 186.490361 322.653736 
L 193.627867 345.585157 
L 197.196619 353.731312 
L 200.765372 359.802097 
L 204.334125 367.227983 
L 207.902878 371.321235 
L 211.471631 378.62834 
L 215.040384 382.97381 
L 218.609137 387.060679 
L 222.177889 390.562623 
L 225.746642 395.203243 
L 229.315395 397.445071 
L 232.884148 402.765136 
L 236.452901 411.44526 
L 240.021654 425.997864 
L 243.590407 435.893754 
L 247.159159 439.116019 
L 250.727912 442.007303 
L 254.296665 443.353633 
L 257.865418 445.260694 
L 261.434171 446.341794 
L 265.002924 447.213041 
L 268.571677 448.553626 
L 272.140429 449.129273 
L 275.709182 449.943353 
L 279.277935 451.018462 
L 282.846688 451.770536 
L 289.984194 452.912663 
L 293.552947 453.206668 
L 297.121699 453.722245 
L 300.690452 454.610475 
L 304.259205 455.180321 
L 307.827958 455.435832 
L 314.965464 456.285505 
L 318.534217 456.397703 
L 322.102969 457.138591 
L 325.671722 457.388306 
L 329.240475 457.935388 
L 332.809228 458.071773 
L 336.377981 458.530167 
L 339.946734 459.133913 
L 343.515487 459.176006 
L 347.084239 459.401844 
L 350.652992 459.84692 
L 354.221745 460.166717 
L 357.790498 460.101728 
L 361.359251 460.913633 
L 364.928004 460.768497 
L 372.065509 461.628664 
L 379.203015 461.992863 
L 382.771768 462.408103 
L 386.340521 462.254545 
L 389.909274 462.560545 
L 393.478026 463.074478 
L 397.046779 463.144548 
L 400.615532 463.717231 
L 404.184285 463.856917 
L 422.028049 465.195749 
L 429.165555 465.127471 
L 432.734308 465.332075 
L 436.303061 465.825587 
L 457.715578 467.197499 
L 461.284331 467.061594 
L 464.853084 467.663979 
L 468.421836 467.74149 
L 471.990589 468.10622 
L 479.128095 468.374216 
L 482.696848 468.790225 
L 489.834354 469.212258 
L 493.403106 469.234992 
L 496.971859 469.737946 
L 507.678118 470.503268 
L 511.246871 470.539045 
L 518.384376 471.159804 
L 521.953129 471.260006 
L 525.521882 471.543881 
L 529.090635 471.585603 
L 532.659388 471.813369 
L 536.228141 472.225507 
L 539.796894 472.276443 
L 543.365646 472.485863 
L 546.934399 472.557528 
L 550.503152 472.944009 
L 554.071905 472.974518 
L 561.209411 473.294794 
L 564.778164 473.646237 
L 568.346916 473.747692 
L 575.484422 474.139421 
L 600.465692 475.09126 
L 614.740704 475.746485 
L 625.446962 476.074049 
L 629.015715 476.368575 
L 632.584468 476.413552 
L 643.290726 476.892179 
L 646.859479 477.003699 
L 650.428232 476.964839 
L 653.996985 477.359934 
L 657.565738 477.37274 
L 661.134491 477.618335 
L 664.703243 477.498305 
L 668.271996 477.903868 
L 675.409502 477.972733 
L 682.547008 478.40659 
L 686.115761 478.450308 
L 689.684513 478.366231 
L 693.253266 478.561799 
L 696.822019 478.90403 
L 700.390772 478.864201 
L 703.959525 478.950896 
L 711.097031 479.30405 
L 714.665783 479.279197 
L 718.234536 479.561544 
L 721.803289 479.522763 
L 725.372042 479.668505 
L 732.509548 479.815975 
L 736.078301 480.071026 
L 746.784559 480.34518 
L 753.922065 480.66075 
L 757.490818 480.642376 
L 761.059571 480.913859 
L 764.628323 481.057361 
L 768.197076 481.020306 
L 778.903335 481.516341 
L 782.472088 481.518029 
L 786.040841 481.776953 
L 832.434628 483.282603 
L 836.003381 483.272651 
L 846.709639 483.655158 
L 853.847145 483.742081 
L 857.415898 483.975367 
L 868.122156 483.991337 
L 871.690909 484.232727 
L 871.690909 484.232727 
" style="fill:none;stroke:#0000ff;stroke-linecap:round;stroke-width:1.5;"/>
   </g>
   <g id="line2d_44">
    <path clip-path="url(#p98ec5535be)" d="M 161.509091 106.418061 
L 165.077844 180.598152 
L 168.646597 224.928708 
L 172.215349 259.761501 
L 175.784102 284.881848 
L 179.352855 306.18473 
L 182.921608 319.357881 
L 186.490361 334.444988 
L 190.059114 347.097874 
L 193.627867 355.896353 
L 197.196619 365.033089 
L 200.765372 372.393023 
L 204.334125 378.787887 
L 207.902878 385.50982 
L 211.471631 389.214671 
L 215.040384 393.640202 
L 218.609137 397.883048 
L 222.177889 403.64819 
L 225.746642 406.732695 
L 229.315395 411.560427 
L 232.884148 415.379176 
L 236.452901 420.409187 
L 240.021654 426.519791 
L 243.590407 434.716624 
L 247.159159 440.020925 
L 250.727912 444.50782 
L 254.296665 447.563896 
L 257.865418 449.603751 
L 261.434171 451.993976 
L 265.002924 452.226274 
L 268.571677 454.411402 
L 272.140429 455.059656 
L 275.709182 456.48565 
L 279.277935 457.316809 
L 282.846688 458.358545 
L 293.552947 460.215024 
L 297.121699 460.633881 
L 304.259205 461.69715 
L 307.827958 461.899938 
L 311.396711 462.487698 
L 314.965464 462.854226 
L 318.534217 463.404064 
L 322.102969 463.442174 
L 325.671722 463.972557 
L 336.377981 464.773261 
L 339.946734 465.300894 
L 347.084239 465.513147 
L 350.652992 466.072996 
L 357.790498 466.24011 
L 361.359251 466.522242 
L 364.928004 466.557203 
L 368.496757 466.918438 
L 372.065509 466.792827 
L 379.203015 467.358952 
L 382.771768 467.207136 
L 386.340521 467.613356 
L 429.165555 469.019026 
L 432.734308 468.915569 
L 436.303061 469.250544 
L 443.440566 469.095041 
L 447.009319 469.444923 
L 450.578072 469.341718 
L 468.421836 470.049098 
L 471.990589 470.159628 
L 475.559342 470.079361 
L 486.265601 470.327033 
L 489.834354 470.496392 
L 493.403106 470.451896 
L 496.971859 470.290503 
L 500.540612 470.61762 
L 511.246871 470.996355 
L 518.384376 470.918394 
L 525.521882 471.207984 
L 529.090635 471.190019 
L 532.659388 471.466059 
L 536.228141 471.347562 
L 539.796894 471.631776 
L 561.209411 471.915773 
L 582.621928 472.539803 
L 586.190681 472.438515 
L 589.759434 472.788749 
L 596.896939 472.930381 
L 614.740704 473.556294 
L 618.309456 473.443359 
L 621.878209 473.768046 
L 625.446962 473.576706 
L 629.015715 473.989238 
L 632.584468 474.02279 
L 636.153221 474.317196 
L 643.290726 474.439434 
L 646.859479 474.749161 
L 650.428232 474.651011 
L 653.996985 474.916874 
L 664.703243 475.175278 
L 668.271996 475.435249 
L 671.840749 475.341589 
L 682.547008 475.860792 
L 693.253266 476.303719 
L 696.822019 476.220782 
L 700.390772 476.492162 
L 707.528278 476.697937 
L 711.097031 476.772931 
L 714.665783 476.978359 
L 721.803289 477.06154 
L 725.372042 477.253526 
L 736.078301 477.525745 
L 746.784559 477.900193 
L 750.353312 477.78743 
L 764.628323 478.347768 
L 771.765829 478.339746 
L 775.334582 478.310357 
L 778.903335 478.579985 
L 782.472088 478.668339 
L 786.040841 478.611544 
L 793.178346 478.902769 
L 796.747099 478.881481 
L 807.453358 479.240372 
L 811.022111 479.334611 
L 814.590863 479.080713 
L 818.159616 479.354177 
L 821.728369 479.491062 
L 825.297122 479.482501 
L 832.434628 479.732216 
L 836.003381 479.602312 
L 853.847145 480.040813 
L 857.415898 480.004415 
L 860.984651 480.132174 
L 864.553403 480.093907 
L 868.122156 480.287949 
L 871.690909 480.348489 
L 871.690909 480.348489 
" style="fill:none;stroke:#0000ff;stroke-linecap:round;stroke-width:1.5;"/>
   </g>
   <g id="patch_3">
    <path d="M 126 504 
L 126 69.12 
" style="fill:none;stroke:#cccccc;stroke-linecap:square;stroke-linejoin:miter;"/>
   </g>
   <g id="patch_4">
    <path d="M 907.2 504 
L 907.2 69.12 
" style="fill:none;stroke:#cccccc;stroke-linecap:square;stroke-linejoin:miter;"/>
   </g>
   <g id="patch_5">
    <path d="M 126 504 
L 907.2 504 
" style="fill:none;stroke:#cccccc;stroke-linecap:square;stroke-linejoin:miter;"/>
   </g>
   <g id="patch_6">
    <path d="M 126 69.12 
L 907.2 69.12 
" style="fill:none;stroke:#cccccc;stroke-linecap:square;stroke-linejoin:miter;"/>
   </g>
  </g>
 </g>
 <defs>
  <clipPath id="p98ec5535be">
   <rect height="434.88" width="781.2" x="126" y="69.12"/>
  </clipPath>
 </defs>
</svg>
